<?xml version="1.0" encoding="utf-8"?>
<!-- Generator: Adobe Illustrator 22.0.0, SVG Export Plug-In . SVG Version: 6.00 Build 0)  -->
<svg version="1.1" id="Capa_1" xmlns="http://www.w3.org/2000/svg" xmlns:xlink="http://www.w3.org/1999/xlink" x="0px" y="0px"
	 viewBox="0 0 500 300" style="enable-background:new 0 0 500 300;" xml:space="preserve">
<style type="text/css">
	.st0{fill:#E6EFF0;}
	.st1{fill:#D5E5E6;}
	.st2{fill:#FDDA89;}
	.st3{fill:#FFFFFF;}
	.st4{fill:#556566;}
	.st5{fill:#D53D33;}
	.st6{fill:#EFF4FF;}
	.st7{fill:#C6DBFF;}
	.st8{fill:#F1CEB7;}
	.st9{fill:#FF546D;}
	.st10{fill:#413F84;}
	.st11{fill:#D5B6A2;}
	.st12{fill:#DFEBFF;}
	.st13{fill:#FA0008;}
	.st14{fill:#FF8B9D;}
	.st15{opacity:0.7;fill:#FA0008;}
	.st16{fill:#050521;}
	.st17{opacity:0.7;}
	.st18{fill:#FEDCB7;}
	.st19{fill:#FEC29E;}
	.st20{fill:#354546;}
	.st21{clip-path:url(#SVGID_2_);}
	.st22{fill:#CB0909;}
	.st23{fill:#DA0505;}
	.st24{fill:#E70505;}
</style>
<g>
	<defs>
		<rect id="SVGID_1_" x="-1.1" y="29.9" width="505.2" height="267.1"/>
	</defs>
	<clipPath id="SVGID_2_">
		<use xlink:href="#SVGID_1_"  style="overflow:visible;"/>
	</clipPath>
	<g class="st21">
		<g>
			
				<image style="overflow:visible;" width="2228" height="1399" xlink:href="6FF79FAC.png"  transform="matrix(0.24 0 0 0.24 -15.1606 -52.7849)">
			</image>
		</g>
		<path class="st22" d="M505.2,221.5c0,0-85.2,42.1-212.8,3C144.4,179.1,12.9,203.7-2,233.4l0-273h508.2L505.2,221.5z"/>
		<g>
			
				<image style="overflow:visible;" width="2245" height="925" xlink:href="6FF79FAD.png"  transform="matrix(0.24 0 0 0.24 -1.2406 -8.6249)">
			</image>
		</g>
		<path class="st23" d="M524.1,152.2c0,0-119.3,66.3-242.7,41.6s-155.1-82.1-269.5-63.3l0-126.7l506.2,0L524.1,152.2z"/>
		<g>
			
				<image style="overflow:visible;" width="2446" height="737" xlink:href="6FF79FAB.png"  transform="matrix(0.24 0 0 0.24 -33.1606 28.8151)">
			</image>
		</g>
		<path class="st24" d="M535,155.8c0,0-50.7-28.7-179-4.9s-304.3,80.2-375.9,1V42H540L535,155.8z"/>
		<g>
			
				<image style="overflow:visible;" width="2855" height="696" xlink:href="6FF79FB4.png"  transform="matrix(0.24 0 0 0.24 -101.0806 13.9351)">
			</image>
		</g>
		<path class="st13" d="M560.9,152.8c0,0-53.7-66.3-222.8-40.6S6,222.1-86.5,114.2c0,0-3-87.1,0-87.1s656.4,0,656.4,0L560.9,152.8z"
			/>
	</g>
</g>
<rect x="-5.3" y="-8.3" class="st13" width="520.7" height="42.7"/>
</svg>
