<?xml version="1.0" encoding="utf-8"?>
<!-- Generator: Adobe Illustrator 22.0.0, SVG Export Plug-In . SVG Version: 6.00 Build 0)  -->
<svg version="1.1" id="Capa_1" xmlns="http://www.w3.org/2000/svg" xmlns:xlink="http://www.w3.org/1999/xlink" x="0px" y="0px"
	 viewBox="0 0 250.3 250.3" style="enable-background:new 0 0 250.3 250.3;" xml:space="preserve">
<style type="text/css">
	.st0{fill:#FFF0F0;}
	.st1{fill:none;stroke:#F99898;stroke-linecap:round;stroke-linejoin:round;stroke-miterlimit:10;}
	.st2{fill:#FFC7C6;}
	.st3{fill:none;stroke:#FFFFFF;stroke-linecap:round;stroke-miterlimit:10;}
	.st4{fill:#EE9681;}
	.st5{fill:#BCE3F6;}
	.st6{fill:#517CC5;}
	.st7{fill:#DEF1F8;}
	.st8{fill:#EC6469;}
	.st9{fill:none;stroke:#EC6469;stroke-linecap:round;stroke-miterlimit:10;}
	.st10{fill:none;stroke:#DEF1F8;stroke-width:2;stroke-linecap:round;stroke-miterlimit:10;}
	.st11{fill:#E73555;}
	.st12{fill:#F0FAFF;}
	.st13{fill:#E76266;}
	.st14{fill:#EE4652;}
	.st15{fill:#2CA5C6;}
	.st16{fill:#292669;}
	.st17{fill:#1E1242;}
	.st18{fill:#90C8EE;}
	.st19{fill:#F9575C;}
	.st20{fill:#F8C6A3;}
	.st21{fill:#40BEDB;}
	.st22{fill:#2F256A;}
	.st23{clip-path:url(#XMLID_2_);fill:none;stroke:#EE9681;stroke-linecap:round;stroke-miterlimit:10;}
	.st24{fill:none;stroke:#EE9681;stroke-linecap:round;stroke-miterlimit:10;}
	.st25{fill:#FE6061;}
	.st26{fill:#ADD9EA;}
	.st27{clip-path:url(#XMLID_3_);fill:none;stroke:#EE9681;stroke-linecap:round;stroke-miterlimit:10;}
</style>
<g id="XMLID_41_">
	<path id="XMLID_54_" class="st0" d="M15.6,207.7c-9.5-9.5-13.4-30.2,3.4-50.6c15.5-18.9,13.8-51.3,55.5-57.4
		c41.6-6.1,56.2,39.3,86.8,50.2c13.7,4.9,29.3-1.6,43.4,15.2c7.9,9.4,7.1,28.5-3.2,42.6H15.6z"/>
	<g id="XMLID_410_">
		<path id="XMLID_315_" class="st1" d="M200.2,207.9c0,0-4.2-5.9-7.1-15.3c-3.3-10.8-1.3-28.2,4.8-36.6c6.1-8.4,13.7-12,19.9-8.3
			c6.2,3.7,2.4,11.3-1.1,15.5c-3.4,4.2-17.6,24.1-11.8,44.5"/>
		<path id="XMLID_314_" class="st1" d="M215.8,149.5c-3.7,1.6-13.4,11.3-16.8,22.8c-4.9,16.6,3.7,35.6,3.7,35.6"/>
		<line id="XMLID_53_" class="st1" x1="218.7" y1="154.5" x2="210.5" y2="153.7"/>
		<line id="XMLID_52_" class="st1" x1="214.8" y1="159.3" x2="206.3" y2="158.7"/>
		<line id="XMLID_51_" class="st1" x1="212.2" y1="163.9" x2="203.4" y2="163"/>
		<line id="XMLID_50_" class="st1" x1="200.6" y1="168" x2="210.1" y2="168.2"/>
		<line id="XMLID_49_" class="st1" x1="198.9" y1="172.8" x2="207.7" y2="172.8"/>
		<line id="XMLID_48_" class="st1" x1="197.8" y1="178.7" x2="205.8" y2="178.7"/>
		<line id="XMLID_352_" class="st1" x1="197.4" y1="183.5" x2="203.7" y2="183.1"/>
		<line id="XMLID_390_" class="st1" x1="197.8" y1="189.5" x2="202.7" y2="188.6"/>
		<line id="XMLID_393_" class="st1" x1="198.6" y1="194.5" x2="202.7" y2="193.2"/>
		<line id="XMLID_397_" class="st1" x1="198.2" y1="192.3" x2="193.9" y2="190.7"/>
		<line id="XMLID_402_" class="st1" x1="197.5" y1="186.2" x2="193" y2="184.4"/>
		<line id="XMLID_403_" class="st1" x1="197.5" y1="180.6" x2="193.4" y2="178.7"/>
		<line id="XMLID_404_" class="st1" x1="198.4" y1="174.9" x2="194.2" y2="172"/>
		<line id="XMLID_405_" class="st1" x1="208.4" y1="156" x2="205.8" y2="151.3"/>
		<line id="XMLID_406_" class="st1" x1="204.6" y1="160.8" x2="201.3" y2="155.2"/>
		<line id="XMLID_407_" class="st1" x1="202" y1="165.1" x2="197.8" y2="160.3"/>
		<line id="XMLID_408_" class="st1" x1="199.8" y1="170.1" x2="195.5" y2="165.8"/>
		<line id="XMLID_409_" class="st1" x1="213.1" y1="151.3" x2="211.8" y2="148.4"/>
	</g>
	<g id="XMLID_281_">
		<path id="XMLID_288_" class="st2" d="M212.6,208.1c6.6,0,19.2-0.8,24.5-10.8c5.3-10,6.8-28.1,7.3-31.7c0.6-3.6-2.4-4.4-10.2-4.8
			c-7.7-0.5-20.9,3.7-28.4,14.5C198.4,186.1,198.9,204.7,212.6,208.1z"/>
		<path id="XMLID_289_" class="st3" d="M241.5,163.8c-12,3-26.2,19.8-30.7,43.7"/>
		<line id="XMLID_296_" class="st3" x1="242.3" y1="170.6" x2="231.2" y2="169.4"/>
		<line id="XMLID_297_" class="st3" x1="226.1" y1="164.2" x2="227.6" y2="172.7"/>
		<line id="XMLID_302_" class="st3" x1="216.3" y1="169.5" x2="220.6" y2="181.7"/>
		<line id="XMLID_306_" class="st3" x1="238.8" y1="178.2" x2="223.8" y2="177.1"/>
		<line id="XMLID_307_" class="st3" x1="209.6" y1="178.7" x2="215.6" y2="190.7"/>
		<line id="XMLID_312_" class="st3" x1="235.8" y1="188.4" x2="218.1" y2="186.7"/>
		<line id="XMLID_317_" class="st3" x1="231.2" y1="198.2" x2="213.4" y2="197.3"/>
		<line id="XMLID_318_" class="st3" x1="204.7" y1="186.7" x2="212.6" y2="200"/>
	</g>
	<path id="XMLID_592_" class="st4" d="M168,65.6c-4.4,1.5-6.1,18.9-9,22.1c-2.9,3.3-11.5,9.3-11.5,9.3l2,6.6c0,0,13.1-7.1,14.9-8.8
		c1.7-1.6,6.1-12.8,6.1-12.8L168,65.6z"/>
	<path id="XMLID_590_" class="st4" d="M140.5,99.6c0,0,0,0.1-0.2,0.2c-1.3,0.6-2.7,0.3-4.1,0.2c-1.4-0.2-2.6-0.2-3.9-0.4
		c-1.9-0.2-1.7,2.5-0.9,3.7c1.2,1.7,3.4,2.6,5.4,3.1c4.1,1,9.2-0.4,12.8-2.9c0,0-2-6.6-2-6.6c-0.8,0.7-1.9,1.1-2.1,1.1
		c-0.6-0.1-1.2-0.4-1.7-0.6"/>
	<g id="XMLID_311_">
		<path id="XMLID_298_" class="st2" d="M42.6,207.3c-4.1,0-12.1,1.5-19-5.3c-6.9-6.8-7.8-23.8-5.4-28.7c1.7-3.4,21.1,0.2,27.6,8.4
			C52.2,189.8,52.1,203.4,42.6,207.3z"/>
		<path id="XMLID_313_" class="st3" d="M21.6,174.3c7.3,3.3,21.1,16.2,23,30.1"/>
		<line id="XMLID_316_" class="st3" x1="20.6" y1="180.6" x2="30" y2="180.2"/>
		<line id="XMLID_33_" class="st3" x1="33.6" y1="177.1" x2="33.6" y2="183.7"/>
		<line id="XMLID_32_" class="st3" x1="21.6" y1="188.3" x2="36.2" y2="186.7"/>
		<line id="XMLID_31_" class="st3" x1="40.3" y1="181.7" x2="39.7" y2="191.5"/>
		<line id="XMLID_30_" class="st3" x1="24.4" y1="196.5" x2="41.5" y2="194.8"/>
	</g>
	<g id="XMLID_526_">
		<g id="XMLID_1116_">
			<g id="XMLID_1202_">
				<path id="XMLID_1213_" class="st5" d="M120.7,204.3L120.7,204.3c0.6,0,1-0.5,1-1V52.6c0-0.6-0.5-1-1-1l0,0c-0.6,0-1,0.5-1,1
					v150.7C119.7,203.8,120.1,204.3,120.7,204.3z"/>
				<path id="XMLID_1210_" class="st5" d="M136.9,60.2H105c-0.6,0-1-0.5-1-1l0,0c0-0.6,0.5-1,1-1H137"/>
				<g id="XMLID_1208_">
					<path id="XMLID_1209_" class="st5" d="M102.1,203.5c0.6,0,1-0.5,1-1v-1.2l17.8-4.7c0.5-0.1,0.9-0.7,0.7-1.2
						c-0.1-0.5-0.7-0.9-1.2-0.7l-18.6,4.9c-0.4,0.1-0.8,0.5-0.8,1v2C101.1,203.1,101.5,203.5,102.1,203.5z"/>
				</g>
				<g id="XMLID_1206_">
					<path id="XMLID_1207_" class="st5" d="M139.2,203.5c0.6,0,1-0.5,1-1v-2c0-0.5-0.3-0.9-0.8-1l-18.6-4.9
						c-0.5-0.1-1.1,0.2-1.2,0.7c-0.1,0.5,0.2,1.1,0.7,1.2l17.8,4.7v1.2C138.2,203.1,138.7,203.5,139.2,203.5z"/>
				</g>
				<circle id="XMLID_1205_" class="st6" cx="120.7" cy="205" r="2.9"/>
				<path id="XMLID_1204_" class="st6" d="M99.2,205c0,1.6,1.3,2.9,2.9,2.9c1.6,0,2.9-1.3,2.9-2.9c0-1.6-1.3-2.9-2.9-2.9
					C100.5,202.2,99.2,203.5,99.2,205z"/>
				<path id="XMLID_1203_" class="st6" d="M142.2,205c0,1.6-1.3,2.9-2.9,2.9c-1.6,0-2.9-1.3-2.9-2.9c0-1.6,1.3-2.9,2.9-2.9
					C140.9,202.2,142.2,203.5,142.2,205z"/>
			</g>
			<g id="XMLID_1117_">
				<path id="XMLID_1184_" class="st7" d="M130.6,86.6l-0.2,1.1c0,0.3-0.3,0.4-0.6,0.4c-0.4-0.1-0.8,0.2-0.8,0.6l-0.5,3.8
					c0,0.4,0.2,0.7,0.5,0.7l2.1,0.4c0.4,0.1,0.7-0.2,0.8-0.5l0.8-3.7c0.1-0.4-0.2-0.7-0.5-0.8l-0.2,0c-0.3-0.1-0.4-0.3-0.4-0.6
					l0.1-0.7c0.1-0.4,0.4-0.6,0.8-0.5c0.4,0.1,0.7,0.2,1.1,0.2c0.3,0.1,0.5,0.3,0.5,0.6l-0.2,5.7c-0.1,0.6,0.4,1,0.9,1
					c0.6,0,1-0.4,1-0.9l0.2-5.5c0-0.3,0.3-0.6,0.6-0.6c0.2,0,0.4,0,0.6,0c1.2,0,2.3-0.1,3.3-0.2c0.2,0,0.5-0.1,0.7-0.1
					c0.4-0.1,0.8,0.1,0.8,0.4c0.1,0.3,0.1,0.6,0.1,0.6c0,0.3-0.1,0.5-0.4,0.6c-0.4,0.1-0.7,0.4-0.6,0.9l0.8,4
					c0.1,0.4,0.4,0.6,0.8,0.6l2.3-0.4c0.4-0.1,0.6-0.4,0.6-0.8l-0.5-4c0-0.4-0.4-0.7-0.8-0.6l-0.2,0c-0.3,0-0.6-0.2-0.6-0.4
					l-0.1-0.8c0-0.3,0.1-0.6,0.4-0.7c3.3-1.3,4.6-3.4,4.5-4.5c-0.1-1.6-0.8-12.2-1.3-16.1s-1.3-5-2.5-5.5c-1.3-0.5-2.5-0.8-3.5-2
					c-0.9-1.2-1.6-2.2-3.7-2.2c-2.1,0-2.8,1.1-3.7,2.2c-0.9,1.2-2.2,1.5-3.5,2c-1.3,0.5-2.1,1.5-2.5,5.5c-0.5,3.9-1.2,14.5-1.3,16.1
					c-0.1,1,1.1,2.9,3.9,4.2C130.5,86.1,130.6,86.3,130.6,86.6z M136.1,59.2c0-0.7,0.6-1.3,1.3-1.3c0.7,0,1.3,0.6,1.3,1.3
					s-0.6,1.3-1.3,1.3C136.6,60.5,136.1,59.9,136.1,59.2z"/>
				<path id="XMLID_1181_" class="st5" d="M128.9,68.9c0.3-4.7,0.5-7.3,2.8-7.2c2.3,0.1,7.6,0.1,9.3,0c1.6-0.1,3.6,0,4,1.3
					c0.4,1.3,0.8,5.7,0.9,7.6c0.1,1.9-5.3,2.5-9.8,2.6C131.5,73.2,128.9,68.9,128.9,68.9z"/>
				<path id="XMLID_1180_" class="st8" d="M145.9,70.6c0.3,3.7,0.6,8.1,0.7,10.2l0.1,1c-0.1,0.8-2.5,3.9-9.4,3.9s-9.3-3-9.4-3.8
					l0.1-1.1c0.2-2.4,0.5-7.9,0.9-11.9c0,0,0.9-0.6,3.1,0c2.2,0.6,4.5,1.7,9.8,1.2C145.1,69.8,145.9,70.6,145.9,70.6z"/>
				<line id="XMLID_1156_" class="st9" x1="135.1" y1="89.1" x2="135.2" y2="84.9"/>
				<path id="XMLID_1142_" class="st10" d="M109,161.2c10.9-0.3,19-7.1,23.4-16.8c5-11.1,6.1-23.8,6.5-35.8
					c0.2-7.3,0.1-14.5-0.1-21.8"/>
				<path id="XMLID_1139_" class="st9" d="M138.6,84.7c0.4,13.2,0.6,27.4-1,39.7c-1.4,10.8-4.3,23.1-12.7,30.7c-4.4,4-10.1,6-16,6.1
					"/>
				<path id="XMLID_1135_" class="st11" d="M128,81.9l0.1-1.1c0-0.3,0-0.7,0.1-1.2c-0.2,3.5,5.1,4.4,10.2,3.1
					c4.9-1.3,4-5.2,3.4-12.6c0,0,0,0,0.1,0c3.3-0.3,4.1,0.5,4.1,0.5c0.3,3.7,0.6,8.1,0.7,10.2l0.1,1c-0.1,0.8-2.5,3.9-9.4,3.9
					S128,82.7,128,81.9z"/>
				<path id="XMLID_1121_" class="st12" d="M131.6,79.4c3.7,0.4,7.6,0.4,11.6,0c0.2,0,0.3-0.2,0.3-0.3v-2.9c0-0.2-0.1-0.3-0.3-0.3
					c-3.8-0.2-7.7-0.2-11.5,0c-0.2,0-0.3,0.2-0.3,0.3V79C131.3,79.2,131.4,79.4,131.6,79.4z"/>
				<path id="XMLID_1118_" class="st7" d="M131.8,63c3.6-0.2,6.1-0.2,6.1,0.5c0,0.7-4.8,0.9-6.3,2.5c-1.5,1.6-1.5,1-1.5,0
					C130.1,65,130.3,63,131.8,63z"/>
			</g>
		</g>
		<path id="XMLID_597_" class="st4" d="M143.7,97.4c-1.5-0.5-3-1.1-4.5-1.6c-0.2-0.1-0.5-0.2-0.7-0.1c-1.1,0.4-0.2,1.8,0.4,2.3
			c0.5,0.4,1.2,1,1.6,1.5c0,0,0.1,0.1,0.1,0.1"/>
		<g id="XMLID_459_">
			<path id="XMLID_578_" class="st13" d="M102.3,121.9c1.5,0.1,3.1-0.4,4.1-1.6c0.6-0.7,0.9-1.7,1.3-2.5c0.1-0.3,0.3-0.6,0.5-0.8
				c0.2-0.2,0.5-0.3,0.8-0.2c0.2,0,0.4,0.1,0.4,0.3c0.1,0.2,0.1,0.4,0,0.6c-0.3,1.7-0.5,3.9-1.8,5.1c-1.2,1.1-2.5,1.7-4.1,2.1"/>
			<path id="XMLID_574_" class="st11" d="M108.4,116.5c0,3.2-2.6,5.7-5.7,5.7c-3.2,0-5.7-2.6-5.7-5.7c0-3.2,2.6-5.7,5.7-5.7
				C105.9,110.8,108.4,113.3,108.4,116.5z"/>
			<path id="XMLID_563_" class="st8" d="M102.7,110.8c-2.7,0-4.9,1.8-5.5,4.3c0.2,2.5,2.3,4.4,4.8,4.4c2.7,0,4.8-2.2,4.8-4.8
				c0-1.1-0.4-2.2-1.1-3C104.9,111.1,103.8,110.8,102.7,110.8z"/>
			<path id="XMLID_559_" class="st14" d="M74.6,123.4c-4,0-6.6,2.8-4.2,5.4c2.1,2.2,10.6,2.5,16.5,2.5c5.9,0,13.9,0.1,19-1.3
				c5.1-1.3,5.1-5.7,1.4-6.1C103.6,123.6,74.6,123.4,74.6,123.4z"/>
			<path id="XMLID_535_" class="st4" d="M102.9,125.4c-0.9,0.1-2,0.3-3.3,0.3c-4.4,0.3-7.3,0.2-14.3,0.2c-6.1,0-9.4-0.3-10.3-0.8
				c-1.7-0.9-6-6.6-7-8.1c-1.5-2.2-5-18.9-5-18.9l2.5-2.2c3.1,1.3,4,2.3,5.1,4.5c2.3,5,6.8,16.2,7.3,16.7c0.2,0.3,0.7,1,1.8,1.2
				c1.8,0.2,13,1.4,14.3,1.3c1.9,0,1.3-0.3,2.2-1.2c0.3-0.3,0.7-0.7,1.1-0.7c0.9,2.6,2.9,3.7,4.5,4"/>
			<path id="XMLID_492_" class="st15" d="M63.6,95.4c2.2,0.3,5.2,1.3,6.6,3.3c1.4,2,5.9,13.4,5.9,13.4s-2.5,2.2-7.8,2.7L63.6,95.4z"
				/>
			<polygon id="XMLID_485_" class="st12" points="81,118.9 79.6,122 81.4,122.2 82.7,119.1 			"/>
			<path id="XMLID_464_" class="st4" d="M102.9,125.4c1.2-0.2,2.7-0.8,3.7-2.6c1-1.8,1.6-4.2,1.1-5.1c-0.7-1.2-1-0.1-1.4,0.6
				c-0.4,0.7-1.5,4.2-5.8,3.3L102.9,125.4z"/>
		</g>
		<g id="XMLID_452_">
			<path id="XMLID_456_" class="st10" d="M85.1,120.9c0.5,13.5-10.7,25.2-24.5,24.1"/>
			<path id="XMLID_453_" class="st9" d="M60.6,145c8.2,0.4,15.4-3.1,20.2-9.9c1.8-2.6,2.9-4.9,3.6-7.7c0.6-2.6,0.7-5.7,0.7-6.5
				l-6.1-0.6"/>
		</g>
		<g id="XMLID_538_">
			<g id="XMLID_564_">
				<g id="XMLID_1092_">
					<path id="XMLID_1113_" class="st16" d="M55.9,187.9L55.9,187.9c0-1.3,1-2.3,2.2-2.3l0,0c1.2,0,2.2-1,2.2-2.2v-0.1
						c0-1.2,1-2.2,2.2-2.2H88c1.2,0,2.2,1,2.2,2.2v0.1c0,1.2,1,2.2,2.2,2.2l0,0c1.2,0,2.2,1,2.2,2.2v0.1c0,1.2-1,2.2-2.2,2.2l0,0
						c-1.2,0-2.2,1-2.2,2.2v0.1c0,1.2,1,2.2,2.2,2.2l0,0c1.2,0,2.2,1,2.2,2.2v0.1c0,1.2-1,2.2-2.2,2.2l0,0c-1.2,0-2.2,1-2.2,2.2v0.1
						c0,1.2-1,2.2-2.2,2.2H62.5c-1.2,0-2.2-1-2.2-2.2v-0.1c0-1.2-1-2.2-2.2-2.2l0,0c-1.2,0-2.2-1-2.2-2.2v-0.1c0-1.2,1-2.2,2.2-2.2
						l0,0c1.2,0,2.2-1,2.2-2.2v-0.1c0-1.2-1-2.2-2.2-2.2l0,0C56.9,190.1,55.9,189.1,55.9,187.9z"/>
					<path id="XMLID_1099_" class="st17" d="M92.4,194.6H58.1c1.2,0,2.2-1,2.2-2.2v-0.1c0-1.2-1-2.2-2.2-2.2h34.3
						c-1.2,0-2.2,1-2.2,2.2v0.1C90.2,193.6,91.2,194.6,92.4,194.6z"/>
					<path id="XMLID_1096_" class="st17" d="M58.1,185.6c1.2,0,2.2-1,2.2-2.2v-0.1c0-1.2,1-2.2,2.2-2.2H88c1.2,0,2.2,1,2.2,2.2v0.1
						c0,1.2,1,2.2,2.2,2.2c0,0,0,0,0,0L58.1,185.6L58.1,185.6z"/>
					<path id="XMLID_1093_" class="st17" d="M90.2,201.2L90.2,201.2c0,1.3-1,2.3-2.2,2.3H62.5c-1.2,0-2.2-1-2.2-2.2v-0.1
						c0-1.2-1-2.2-2.2-2.2h34.3C91.2,199,90.2,200,90.2,201.2z"/>
				</g>
				<g id="XMLID_1074_">
					<path id="XMLID_1091_" class="st5" d="M57.9,203.1h34.6c2.2,0,4.2,1.4,4.9,3.5l0,0c0.2,0.6-0.3,1.3-0.9,1.3H53.9
						c-0.7,0-1.1-0.6-0.9-1.3l0,0C53.7,204.5,55.7,203.1,57.9,203.1z"/>
					<path id="XMLID_1076_" class="st7" d="M57.4,206.2h27.5c0.8,0,1.5-0.7,1.5-1.5l0,0c0-0.8-0.7-1.5-1.5-1.5H57.4
						c-0.8,0-1.5,0.7-1.5,1.5l0,0C55.9,205.5,56.5,206.2,57.4,206.2z"/>
				</g>
			</g>
			<g id="XMLID_539_">
				<g id="XMLID_550_">
					<path id="XMLID_561_" class="st5" d="M87.8,182.5c2.2-0.6,12.4-5.8,14.9-8.6l-1-10.8H70.8l-29.8,10.4L87.8,182.5z"/>
					<path id="XMLID_556_" class="st7" d="M40.6,171.3c0,4.3-0.5,8.9,0.8,10c1.3,1.2,10.8,3,20.8,3s25.1-0.3,26.4-2.5
						s0.6-16.6,0.6-16.6L40.6,171.3z"/>
					<path id="XMLID_551_" class="st18" d="M40.5,174.7c0-1.1,0.1-2.2,0.1-3.3l9.8-1.2l20.4-7.1h28.8l2.3,10.8c0,0-8.3-2.4-11.6-3.4
						c-3.3-1-5.7,0.9-19.3,3.4C58.3,176.2,46,175.4,40.5,174.7z"/>
				</g>
				<g id="XMLID_547_">
					<path id="XMLID_549_" class="st19" d="M17.2,102.3c2.6-3.1,25-11,33.4-9c8.4,2.1,17.2,48.2,17.2,48.2s-19.6,22.1-32.4,22.9
						C35.4,163.7,17.2,102.3,17.2,102.3z"/>
					<path id="XMLID_548_" class="st14" d="M18.5,101.4L18.5,101.4c4.8-1.4,9.8,1.2,11.4,5.9c5.4,15.2,9.4,30.6,12.2,46.4
						c0.8,4.4-1.7,8.6-5.8,10.3l-0.8,0.3c-1.4,0.5-2.9-0.2-3.3-1.7l-15.4-58.2C16.4,103.2,17.2,101.8,18.5,101.4z"/>
				</g>
				<g id="XMLID_543_">
					<path id="XMLID_546_" class="st14" d="M85.8,168.8c2.5-0.8,4-1.6,6.9-4.3c2.9-2.7,16-16.4,17.7-18.2c1.7-1.7,0.4-9.5-8.4-9.8
						c-8.8-0.2-31.2,0-38.5,3.6c-7.3,3.5-24.2,21.1-25.6,24.1C36.5,167.3,85.8,168.8,85.8,168.8z"/>
					<path id="XMLID_545_" class="st19" d="M37.9,164.2c0.4-0.8,1.7-2.5,3.6-4.6c7.9-3.2,15.6-3.6,23.7-4.2
						c9.1-0.7,19.2-1.1,21.5,2.9c1.7,3,2.6,6.4,2.5,8.9c-1.1,0.7-2.1,1.1-3.4,1.5C85.8,168.8,36.5,167.3,37.9,164.2z"/>
					<path id="XMLID_544_" class="st14" d="M35.9,171.5c-0.9-2.7,0.6-6.8,3.7-8.9c3.1-2.1,9.3-3.8,21.7-4.8
						c12.5-1,19.3-1.1,22.1,0.8c2.8,1.9,3.4,6.4,3.7,7.7c0.3,1.3-0.6,2.3-2.4,2.9c-1.8,0.6-11.3,3.2-22.2,4.1
						c-10.9,0.9-18.9,0.7-22.9,0C37.3,172.8,36.1,172.2,35.9,171.5z"/>
				</g>
				<g id="XMLID_540_">
					<path id="XMLID_542_" class="st19" d="M118.9,184.2c4,1.7,13.7-3.2,18.2-5.2c4.5-2,12.3-6,13.5-7.8c1.3-1.8,2.4-7.7-1.9-11.7
						c-4.3-4-19.4-13.2-31.1-13.5c-11.7-0.3-27.4,10.4-28.8,13.5s-1.5,5.2-1.1,7.5L118.9,184.2z"/>
					<path id="XMLID_541_" class="st14" d="M87.8,166.9c-0.1-0.8-0.1-3.8,1.4-6c1.5-2.1,5.2-4.5,13.6-0.3c8.4,4.2,15.5,9.1,18,11.6
						c2.5,2.5,2.3,6.9,1.5,9.4c-0.8,2.4-1.9,3-3.5,2.6c-1.6-0.4-27.2-13.5-28.7-14.5C88.7,168.5,88,167.8,87.8,166.9z"/>
				</g>
			</g>
		</g>
		<g id="XMLID_517_">
			<path id="XMLID_525_" class="st4" d="M144.8,159.2l-3.8-3.3l-6,4.9l3.5,2.8c0,0,2.3-0.4,4.3-1.9
				C144.7,160.1,144.8,159.2,144.8,159.2z"/>
			<path id="XMLID_524_" class="st13" d="M141,155.9l0.5,0.4c0,0-1.4,4.3-5,5.7l-1.5-1.2L141,155.9z"/>
			<path id="XMLID_521_" class="st17" d="M137.7,162c0.2-0.6,1.6,0.6,2.6,0.5c1.1-0.1,2-0.3,2.5-1.3c0.5-1.2,0-1.9-0.6-2.7
				c-0.8-0.9-0.8-2.4,0.2-3.1c0.2-0.1,0.3-0.2,0.5-0.2c1-0.1,1.4,0.8,3.5,0.9c2.4,0.1,4.4-0.8,6.7-1.4c2.7-0.7,4-2.2,5.6-2.3
				c1.4-0.1,2.1,0.4,3.1,3.2c-0.4,1.9-2.2,3.7-4.4,5.1c-2,1.2-5,2.4-6.7,3.3c-1.7,0.8-4.4,4.4-8.2,4.9
				C139.4,165.9,137.7,162,137.7,162z"/>
			<path id="XMLID_518_" class="st17" d="M79.5,129.4c0,0,26.8-1.3,29.4-1.3c2.6,0,4,0.5,5.9,2.2c1.9,1.7,26.2,25.6,26.2,25.6
				s-1.3,3.6-6.2,5.9l-30.8-23.3L73,139.3L79.5,129.4z"/>
		</g>
		<g id="XMLID_508_">
			<path id="XMLID_516_" class="st20" d="M136.5,161l3.5,2.7c0,4.4-2,6.4-5.1,5.9l-4.1-3.3L136.5,161z"/>
			<path id="XMLID_515_" class="st4" d="M136.5,161l0.4,0.3c0,0-1,4.1-4.1,6.6l-1.9-1.6L136.5,161z"/>
			<path id="XMLID_512_" class="st16" d="M50.8,143.7c1.2,5,3.8,9.9,12,10.4c8.3,0.4,23.7-3.2,29.2-3.9c5.5-0.7,7.7,0.3,10.6,1.9
				c2.9,1.6,28.1,15.9,28.1,15.9s3.3-1.8,5.7-6.9c0,0-24.8-23.1-28.4-24.8c-3.6-1.7-5.4-1.9-11.5-2.6c-6.1-0.7-17-1.5-17-1.5
				L50.8,143.7z"/>
			<path id="XMLID_509_" class="st16" d="M133.8,168.8c0.1-0.6,1.6,0.3,2.7-0.1c1-0.3,1.9-0.7,2.2-1.8c0.3-1.2-0.3-1.9-1.1-2.5
				c-1-0.7-1.2-2.2-0.4-3.1c0.1-0.1,0.3-0.2,0.4-0.3c1-0.3,1.5,0.5,3.6,0.1c2.4-0.4,4.2-1.7,6.3-2.7c2.5-1.2,3.5-3,5-3.4
				c1.3-0.3,2.2,0,3.7,2.6c0,1.9-1.4,4.1-3.3,5.8c-1.7,1.6-4.4,3.4-5.9,4.5c-1.5,1.2-3.5,5.2-7.1,6.5
				C136.3,172.3,133.8,168.8,133.8,168.8z"/>
		</g>
		<path id="XMLID_507_" class="st21" d="M59.7,94.5c1.7,0.4,6.6,1.2,8.8,3.4c1.1,1.1,11.1,35.6,11.1,35.6s-4.5,10.2-28.8,10.2
			l-5.4-18l-2-28l6.3-3.6C49.7,94,57.9,94.1,59.7,94.5z"/>
		<path id="XMLID_506_" class="st15" d="M79.5,133.5c0,0-0.5-1.8-1.4-4.7c-7.8,3.3-25.5,4.3-28.9-8.4c0,0-3.4,3.3-4.1,2.5l0.2,2.7
			l5.4,18C75,143.7,79.5,133.5,79.5,133.5z"/>
		<g id="XMLID_493_">
			<path id="XMLID_505_" class="st22" d="M47.7,83.9l0.2,2.1c0.1,0.8,0.8,1.4,1.6,1.3l0,0l-0.1-3.9L47.7,83.9z"/>
			<g id="XMLID_502_">
				<defs>
					<path id="XMLID_503_" d="M64.9,71.7c0.4,4.3,0.9,13.2-0.5,16.6c-1.4,3.4-4.7,3.6-4.7,3.6V97c0,0-4.4,2.6-9.9-0.8l-0.4-13.6
						c0,0-1.1-9.5,0.4-10.9C51.2,70.2,56.9,65.3,64.9,71.7z"/>
				</defs>
				<use xlink:href="#XMLID_503_"  style="overflow:visible;fill:#F8C6A3;"/>
				<clipPath id="XMLID_2_">
					<use xlink:href="#XMLID_503_"  style="overflow:visible;"/>
				</clipPath>
				<path id="XMLID_504_" class="st23" d="M60,92.3c-3.1,0.4-8.3-0.7-9.2-6.5"/>
			</g>
			<circle id="XMLID_501_" class="st20" cx="48.2" cy="81.3" r="2.5"/>
			<path id="XMLID_500_" class="st22" d="M49,79.2l0.1,1.7h1.6v-3.3c0,0,0,0,0,0c0.2-0.1,1.2-0.8,1.3-2.2c0.1-1.5-0.3-3.9,0.8-4
				c1.1-0.1,4.4,2.7,7.8,2.4c3.4-0.3,4.9-2.1,5.5-3.3c0.6-1.2,0.5-2.6,0-2.6c-0.5,0-1.9,0.4-2.6,0.6c0,0,0.8-1.2,0.9-2.2
				s-0.5-0.7-1.9-0.3c-1.4,0.4-6.8,1.1-9.5,1.6c-2.6,0.5-4,1.1-4.9,2.2c-1,1.1-0.7,5.9-0.4,9.2C48.2,78.7,48.7,78.9,49,79.2z"/>
			<circle id="XMLID_498_" class="st22" cx="56.8" cy="79.6" r="0.7"/>
			<circle id="XMLID_497_" class="st22" cx="62.9" cy="79.3" r="0.7"/>
			<path id="XMLID_496_" class="st22" d="M54.3,77.7c1.2-0.6,2.6-0.7,3.9-0.7c0,0-0.7-0.7-2.1-0.5C54.7,76.8,54.3,77.7,54.3,77.7z"
				/>
			<path id="XMLID_1133_" class="st22" d="M50.7,78.3c0.1,3.1,1.2,7.2,3.2,7.7c2,0.5,4.7-0.6,6.4-0.7c1.7-0.1,4.7,0.4,4.8-0.9
				c0,0,0.3,3.2-0.7,5.3c-1,2.1-2.9,2.7-5.4,3c-2.5,0.3-8.6-0.1-9.7-7.2l-0.1-1.9l-0.2-2.8L50.7,78.3z"/>
			<path id="XMLID_495_" class="st4" d="M60,88.3c-1.3,0-2.6-0.4-3.8-1c0,0,0.2,1.3,1.6,1.6C59.3,89.1,60,88.3,60,88.3z"/>
			<path id="XMLID_494_" class="st22" d="M61.5,76.7c1.3-0.3,2.7-0.1,3.9,0.2c0,0-0.5-0.9-1.9-1C62.1,75.8,61.5,76.7,61.5,76.7z"/>
			<path id="XMLID_499_" class="st24" d="M60.4,77c0,0,1,7.2,1,7.6c0,0.3-1.4,0.7-1.4,0.7"/>
		</g>
		<g id="XMLID_514_">
			<g id="XMLID_536_">
				<path id="XMLID_537_" class="st5" d="M49.5,169.5c-3.4,0-7.5-0.1-12.5-2.2c-1-0.4-1.7-1.4-1.4-2.5c0.3-1.1,1.5-1.7,2.5-1.4
					c5.3,1.8,10.2,2.1,13.3,1.5c2.3-0.4,3.7-1.6,4.3-3.8c1.1-4,1.5-8,1.1-13c-0.1-1.1,0.7-2.1,1.9-2.2c1.1-0.1,2.1,0.7,2.2,1.9
					c0.4,5.5,0.1,10-1.2,14.5c-1.1,3.9-2.8,6.3-7.3,7C51.6,169.4,50.3,169.5,49.5,169.5z"/>
			</g>
			<path id="XMLID_533_" class="st18" d="M56.8,148.1c0.1,1,0.1,1.9,0.1,2.8c1.2,0,2.6,0.1,4.1,0.1c0-1-0.1-2.1-0.2-3.2
				c0,0,0-0.1,0-0.1l-4,0C56.8,147.8,56.8,147.9,56.8,148.1z"/>
			<path id="XMLID_523_" class="st7" d="M46.9,145.6c0.2,1.4,0.9,2.5,2.7,3c2,0.5,6.3,0.7,12.4,0.7c6,0,9.5-0.5,11.5-0.8
				c2-0.3,2.2-2.7,2.2-2.7L46.9,145.6z"/>
			<path id="XMLID_522_" class="st25" d="M47.8,138.8c-4,0-6.6,2.8-4.2,5.4c2.1,2.2,10.6,2.5,16.5,2.5c5.9,0,13.9,0.1,19-1.3
				c5.1-1.3,5.1-5.7,1.4-6.1C76.9,138.9,47.8,138.8,47.8,138.8z"/>
			<path id="XMLID_520_" class="st14" d="M46.9,138.8c-2.6,0.9-3.5,2.3,2,3.3c4.9,0.9,28.9,1.5,34-1.2L46.9,138.8z"/>
		</g>
		<g id="XMLID_448_">
			<path id="XMLID_445_" class="st20" d="M72.8,134.6c-0.4,0-2.4-0.2-2.9-0.3c-1.4-0.2-14.4-2.2-15.9-2.4c-1.4-0.2-2-0.5-2.1-0.9
				c-0.1-0.4-2.7-18.1-2.7-18.1l-11.9,3.9c0,0,3.1,17.7,3.6,19.7c0.6,2,1.5,3.2,2.6,3.5c1.1,0.3,6.5,1.6,14.6,1.6
				c5.5,0,8.9-0.4,12.5,0.1c1.3,0.2,1.9,0.9,3.9,1.4c1.5,0.4,3.4,0,5-0.2c1.9-0.2,3.7-0.3,5.6,0.3c1.1,0.4,2.3,0.7,3.3-0.1
				c0.3-0.2,0.5-0.5,0.5-0.8c0-0.7-0.7-1.6-1-2.2c-0.5-0.7-1.1-1.3-1.7-1.9c-1.1-1.1-2.3-1.9-3.9-2.3
				C81.3,135.7,74.2,134.7,72.8,134.6z"/>
			<path id="XMLID_451_" class="st4" d="M49.2,112.9l0.8,5.6c0,0-3.7,3.9-11.7,3.6l-1-5.3L49.2,112.9z"/>
			<path id="XMLID_449_" class="st15" d="M43.4,97.7c-2.6,1.3-6.1,3.6-6.8,8.5c-0.7,4.8,0.8,14.5,0.8,14.5s3.5,0.3,7.1-0.4
				c3.6-0.7,5.8-2.5,5.8-2.5s-0.7-5.1-1.3-9.4C48.1,102.1,46.7,98.5,43.4,97.7z"/>
		</g>
		<path id="XMLID_519_" class="st5" d="M129.7,58.2h2.3c0.6,0,1,0.5,1,1l0,0c0,0.6-0.5,1-1,1h-2.3"/>
	</g>
	<g id="XMLID_529_">
		<path id="XMLID_596_" class="st4" d="M191.2,186.9l3.1,7.8c0,0-0.2,3.4-2.7,3.8c-2.5,0.4-5-4.8-5-4.8l-2.1-4.2L191.2,186.9z"/>
		<path id="XMLID_595_" class="st13" d="M184.5,189.5l1.3,2.6c0,0,1.5,0.1,3.8-1c2.3-1,2.5-2,2.5-2l-0.9-2.2L184.5,189.5z"/>
		<path id="XMLID_591_" class="st26" d="M194.3,193.9c-0.5-0.1-0.4,1.5-1.1,2.3c-0.7,0.8-1.4,1.4-2.4,1.1c-1.2-0.2-1.5-1.1-1.7-2
			c-0.2-1.1-1.4-1.9-2.5-1.6c-0.2,0.1-0.3,0.1-0.4,0.3c-0.7,0.7-0.2,1.5-1.3,3.2c-1.3,1.9-2.9,3.3-4.8,4.3c-1.7,0.8-3.1,0.2-4.9,1.6
			c-1,0.7-1,2.6-0.7,4c1.7,0.8,6.3,0.9,8,0.5c2.2-0.5,4.5-1.8,6.1-2.7c1.6-0.9,6.4-1.4,8.9-4C196.8,196.9,194.3,193.9,194.3,193.9z"
			/>
		<g id="XMLID_634_">
			<g>
				<path id="XMLID_9_" class="st15" d="M190.3,106.5c0,0-7.3,42.6-7,44.8c0.3,2.2,8.9,36.2,8.9,36.2c-1.8,1.9-5.3,3.6-7.6,3.1
					c0,0-15-30.3-15.7-36.5c-0.9-8.6,0-48.3,0-48.3L190.3,106.5z"/>
			</g>
		</g>
		<g id="XMLID_639_">
			<path id="XMLID_1216_" class="st20" d="M172.9,191.8l-0.9,8.2c0,0-1.4,3.1-3.9,2.6c-2.5-0.5-3.1-6.2-3.1-6.2l0.2-4.7H172.9z"/>
			<path id="XMLID_1212_" class="st4" d="M172.9,191.8l-0.3,3c0,0-3.6,1.4-7.4-0.4l0.1-2.6H172.9z"/>
			<path id="XMLID_771_" class="st21" d="M164.4,106.3c0,0-1.4,39-1.4,44.6s1.9,41.8,1.9,41.8s3.1,1.7,8.3-0.2
				c-0.1-1,5.3-36.5,5.8-40.2c0.6-3.7,10.3-45.3,10.3-45.3L164.4,106.3z"/>
			<path id="XMLID_643_" class="st5" d="M172.4,199.2c-0.5-0.3-0.9,1.3-1.9,1.8c-0.9,0.5-1.8,0.8-2.6,0.3c-1-0.6-1.1-1.5-0.9-2.4
				c0.2-1.2-0.7-2.3-1.8-2.3c-0.2,0-0.3,0-0.5,0.1c-0.9,0.4-0.7,1.3-2.3,2.5c-1.9,1.3-3.9,1.8-6,2.4c-2.7,0.7-4.7,0.5-6.1,1.1
				c-1.1,0.5-2,1.8-1.2,4.5c1.3,1.3,4.6,1.5,7,1.3c2.2-0.1,5.2-0.7,7-0.9c1.8-0.2,5.8,1.2,9.1-0.4
				C173,203.2,172.4,199.2,172.4,199.2z"/>
		</g>
		<g id="XMLID_602_">
			<g>
				<path id="XMLID_43_" class="st21" d="M188.3,70.6c0.1-1.9-1-3.7-2.8-4.4c-2.5-1.1-5.8-2-7.7-2.3c-2.8-0.6-7.7,0.1-10.3,1.2
					c-2.6,1-3.1,2.2-4.9,5.5c-1.6,2.9-2.6,4.8-2.9,7.7c-0.4,4.1,2.8,7.8,2.8,7.8s0.9,4.1,0.9,6.1c0,0.9-2.4,7.3-2.7,9.1
					c-0.4,2-6.7,22.4-6.4,36.8c4.3,3.9,16.1,5.3,25,4.6l1.7-14.5l2.4,13.5c4.6-0.9,8.4-2.3,10.2-4.1c0,0,0.5-27.3-7.1-43.7
					c-1.7-3.6,0.3-12.3,1.2-15.5c0.2-0.9,0.4-1.7,0.4-2.6L188.3,70.6z"/>
				<path id="XMLID_42_" class="st21" d="M187.7,78.1c0.1-0.4,0.2-0.8,0.2-1.2c-0.1,0.1-8.5,18.8-12.3,21.2
					c-3.8,2.4-14.4,1.4-14.4,1.4l-1,3.6c0,0,8.7,3.7,17.1,3.2c5.5-0.3,10.1,7.4,10.6,20.7c0.4,11.3-2.5,13.8-3.3,14.3
					c4.1-0.9,7.3-2.2,8.9-3.8c0,0,0.5-27.3-7.1-43.7C184.9,90,186.9,81.3,187.7,78.1z"/>
				<path id="XMLID_40_" class="st21" d="M179.1,111.5l9.6-0.5c0,0,1.3,11.7,0.2,12.5c-1.9,1.3-6.7,1.3-8.7,0.7
					C178.7,123.9,179.1,111.5,179.1,111.5z"/>
				<path id="XMLID_39_" class="st21" d="M188.8,123.6c0.3-0.2,0.4-1,0.5-2.1l0,0c-0.6,1.9-3.8,2-6.7,1.9c-2.2-0.1-2.9-3.9-3.5-6.5
					c-0.2,2.8,0.3,7.2,1.1,7.4C182.1,125,186.9,124.9,188.8,123.6z"/>
				<path id="XMLID_38_" class="st21" d="M179.1,65.4c0,0,1.8,0.3,1.9,1.2c0.1,1.4-2.8,5.7-10.8,11.9c-0.6-0.2-3.4-11.8-0.3-13
					L179.1,65.4z"/>
			</g>
			<g>
				<path id="XMLID_37_" class="st7" d="M188.3,70.6c0.1-1.9-1-3.7-2.8-4.4c-2.5-1.1-5.8-2-7.7-2.3c-2.8-0.6-7.7,0.1-10.3,1.2
					c-2.6,1-3.1,2.2-4.9,5.5c-1.6,2.9-2.6,4.8-2.9,7.7c-0.4,4.1,2.8,7.8,2.8,7.8s0.9,4.1,0.9,6.1c0,0.9-2.4,7.3-2.7,9.1
					c-0.4,2-6.7,22.4-6.4,36.8c4.3,3.9,16.1,5.3,25,4.6l1.7-14.5l2.4,13.5c4.6-0.9,8.4-2.3,10.2-4.1c0,0,0.5-27.3-7.1-43.7
					c-1.7-3.6,0.3-12.3,1.2-15.5c0.2-0.9,0.4-1.7,0.4-2.6L188.3,70.6z"/>
				<path id="XMLID_36_" class="st5" d="M187.7,78.1c0.1-0.4,0.2-0.8,0.2-1.2c-0.1,0.1-8.5,18.8-12.3,21.2
					c-3.8,2.4-14.4,1.4-14.4,1.4l-1,3.6c0,0,8.7,3.7,17.1,3.2c5.5-0.3,10.1,7.4,10.6,20.7c0.4,11.3-2.5,13.8-3.3,14.3
					c4.1-0.9,7.3-2.2,8.9-3.8c0,0,0.5-27.3-7.1-43.7C184.9,90,186.9,81.3,187.7,78.1z"/>
				<path id="XMLID_35_" class="st7" d="M179.1,111.5l9.6-0.5c0,0,1.3,11.7,0.2,12.5c-1.9,1.3-6.7,1.3-8.7,0.7
					C178.7,123.9,179.1,111.5,179.1,111.5z"/>
				<path id="XMLID_34_" class="st5" d="M188.8,123.6c0.3-0.2,0.4-1,0.5-2.1l0,0c-0.6,1.9-3.8,2-6.7,1.9c-2.2-0.1-2.9-3.9-3.5-6.5
					c-0.2,2.8,0.3,7.2,1.1,7.4C182.1,125,186.9,124.9,188.8,123.6z"/>
				<path id="XMLID_29_" class="st21" d="M179.1,65.4c0,0,1.8,0.3,1.9,1.2c0.1,1.4-2.8,5.7-10.8,11.9c-0.6-0.2-3.4-11.8-0.3-13
					L179.1,65.4z"/>
			</g>
		</g>
		<g id="XMLID_530_">
			<path id="XMLID_582_" class="st20" d="M177.1,81.1c0,0-4.9,12.2-5.1,12.5s-1,0.4-2.4,0.2c-1.4-0.2-11.1-2.4-13.7-3.3
				c-1.3-0.5-3.1-1.1-3.7-2.6c-0.6-1.5-1.2-2.5-1.9-4c-0.7-1.7-0.7-3.6-1.3-3.6c-0.8,0-2.2,1.2-1.9,3.4c0.1,1,0.2,1.7,0.2,2.3
				c0.1,0.6-0.4,1.1-1,1c-0.6,0-1.5-0.1-2.6-0.3c-2.7-0.4-7.6-1.4-7.6-1.4s-1.9,0.2-0.3,1.7c1.4,1.3,3.7,1.5,4.6,2.9
				c0.9,1.4,2.9,2.7,7.4,4.6c4.5,1.8,8.4,3.4,15.7,5.8c7.3,2.4,10.1,2.3,11.2,2.4c1.1,0,2.6-1.3,3.7-3c1.1-1.6,6.7-13.1,6.7-13.1
				L177.1,81.1z"/>
			<path id="XMLID_531_" class="st7" d="M185.3,66.2c3.1,0.6,5,3.7,4.7,8c-0.3,4.3-4.9,16.9-4.9,16.9s-3.1-0.4-6-1.7
				c-3-1.3-4.5-3.3-4.5-3.3s3.4-8.8,4.7-12.4C181.2,68.5,182.3,66.2,185.3,66.2z"/>
		</g>
		<g id="XMLID_275_">
			<g id="XMLID_610_">
				<path id="XMLID_585_" class="st22" d="M179.3,58.7c1.2-0.2,2.4-1.3,3.6-4.3c1.2-3,3.5-10.7,0.8-14c-2.9-3.7-5.9-4.2-10.5-2.9
					v21.2H179.3z"/>
				<g id="XMLID_1225_">
					<defs>
						<path id="XMLID_1228_" d="M165.6,42.8c-1,3.7-2,9.8-0.2,14.7c1.4,4,5.6,3.9,5.6,3.9l0,4.8c0,0,2.1,3.9,8.1-0.1l0.4-16
							c0,0,2.1-5.3,0.7-6.8C178.8,41.8,173.5,36.8,165.6,42.8z"/>
					</defs>
					<use xlink:href="#XMLID_1228_"  style="overflow:visible;fill:#F8C6A3;"/>
					<clipPath id="XMLID_3_">
						<use xlink:href="#XMLID_1228_"  style="overflow:visible;"/>
					</clipPath>
					<path id="XMLID_1229_" class="st27" d="M169.7,61.8c3.3,0.2,7.1-1.1,8.6-6.6"/>
				</g>
				<path id="XMLID_1221_" class="st20" d="M182.8,51.9c0-1.4-1-2.5-2.4-2.5c-1.4,0-2.5,1-2.5,2.4s1,2.5,2.4,2.5
					C181.7,54.4,182.8,53.3,182.8,51.9z"/>
				<path id="XMLID_1219_" class="st24" d="M168.9,48.4c0,0-1,5.3-1,5.6c0,0.3,1.4,0.4,1.4,0.4"/>
				<path id="XMLID_619_" class="st22" d="M173.3,50.1c0-0.4-0.3-0.7-0.7-0.7c-0.4,0-0.7,0.3-0.7,0.7c0,0.4,0.3,0.7,0.7,0.7
					C172.9,50.8,173.3,50.5,173.3,50.1z"/>
				<path id="XMLID_617_" class="st22" d="M166.7,49.8c0-0.4-0.3-0.7-0.7-0.7c-0.4,0-0.7,0.3-0.7,0.7c0,0.4,0.3,0.7,0.7,0.7
					C166.4,50.5,166.7,50.2,166.7,49.8z"/>
				<path id="XMLID_615_" class="st22" d="M174.6,48.7c-0.9-0.4-1.9-0.8-2.9-0.8c0,0,0.6-0.7,1.7-0.5
					C174.4,47.6,174.6,48.7,174.6,48.7z"/>
				<path id="XMLID_614_" class="st22" d="M167.5,47.7c-1,0-2.1,0.2-2.9,0.7c0,0,0.2-0.9,1.2-1.2S167.5,47.7,167.5,47.7z"/>
				<path id="XMLID_613_" class="st13" d="M168.7,56.7c1.3,0.1,2.6-0.1,3.7-0.5c0,0-0.1,1.4-1.7,1.6C168.9,58,168.7,56.7,168.7,56.7
					z"/>
				<path id="XMLID_612_" class="st22" d="M180,49.4l-0.5,2.9c-1.2-0.2-1.7-0.5-1.6-1.7l0.2-1.4c0,0-1.9-0.5-3.2-1.8
					c-2.3-2.3-0.7-7.8-0.7-7.8s1.5-0.9,4.9,1.6C182.4,43.6,181,48.2,180,49.4z"/>
				<path id="XMLID_611_" class="st22" d="M173.8,40.9c0,0-1.7,6.1-9,5.7c0,0-0.4,2.5-0.4,3.3c0,0-1.7-0.6-2.8-3.6
					c-1.1-3.1,0.2-6.6,2.7-8.6c4.5-3.6,10.1-1.7,11.3,0.4l-0.9,2.2L173.8,40.9z"/>
			</g>
			<path id="XMLID_589_" class="st20" d="M171.4,72c-1.3-0.8-1.9-3.9-1.5-6.4l1.6-0.7l7.6,0.5c0,0,0.7,0.2,0.8,0.8
				C180,66.9,175.9,71,171.4,72z"/>
		</g>
	</g>
</g>
</svg>
