<?xml version="1.0" encoding="utf-8"?>
<!-- Generator: Adobe Illustrator 22.0.0, SVG Export Plug-In . SVG Version: 6.00 Build 0)  -->
<svg version="1.1" id="Capa_1" xmlns="http://www.w3.org/2000/svg" xmlns:xlink="http://www.w3.org/1999/xlink" x="0px" y="0px"
	 viewBox="0 0 250.3 250.3" style="enable-background:new 0 0 250.3 250.3;" xml:space="preserve">
<style type="text/css">
	.st0{fill:#FFF0F0;}
	.st1{clip-path:url(#SVGID_2_);}
	.st2{fill:#302C43;}
	.st3{fill:url(#SVGID_3_);}
	.st4{fill:url(#SVGID_4_);}
	.st5{opacity:0.5;fill:url(#SVGID_5_);}
	.st6{fill:#FFFFFF;}
	.st7{fill:#EBB591;}
	.st8{fill:#EFC3A6;}
	.st9{fill:#29ABE2;}
	.st10{fill:#E49B6A;}
	.st11{fill:#314488;}
	.st12{fill:#ECADB5;}
	.st13{fill:url(#SVGID_6_);}
	.st14{fill:#F8FAFF;}
	.st15{fill:#C26951;}
	.st16{fill:url(#SVGID_7_);}
	.st17{opacity:0.29;fill:url(#SVGID_8_);}
	.st18{fill:#C97A65;}
	.st19{fill:url(#SVGID_9_);}
	.st20{fill:url(#SVGID_10_);}
	.st21{fill:url(#SVGID_11_);}
	.st22{fill:#E7817B;}
	.st23{fill:url(#SVGID_12_);}
	.st24{fill:#B6DCE3;}
	.st25{fill:#FF555F;}
	.st26{fill:#E83540;}
	.st27{fill:#5CBCCC;}
</style>
<g>
	<g>
		<g>
			<g>
				<path class="st0" d="M220,112.1c-1.2-4.6-3.1-9.2-3.9-13.9c-1.9-10.6,1.6-21.4,1.6-32.3c0-12.2-5.5-25.1-15.5-29.5
					c-1.6-0.7-3.1-1.2-4.7-1.4c-9.3-1.7-19.2,2.6-28.9,3.1c-24.5,1.2-45.8-21.7-70.3-22c-15.6-0.2-30.9,9.7-38.7,25
					c-2.6,5-4.4,10.6-8.1,14.7c-4.5,5-11,6.8-16.9,9.3c-12,5.1-19.5,18.3-13.3,32.3c2.6,5.8,6.4,11.2,7.6,17.6
					c0.3,1.7,0.5,3.4,0.5,5.2c0,7.1-2.3,14.4-2.7,21.6c-0.9,18.3,13.1,35.9,29.3,36.3c12.4,0.3,23.6-8.1,35.7-11.2
					c11.8-3,24.2-0.8,35.3,4.5c8.6,4.1,16.5,10.1,24.8,14.9c8.3,4.8,17.5,8.6,26.9,7.9c9.3-0.7,18.8-6.9,22-16.9
					c3-9.3,0.1-20.3,3.9-29.3c3.9-9.4,14.3-14.5,16.3-24.6C221.5,119.6,221,115.9,220,112.1z"/>
			</g>
		</g>
	</g>
	<g>
		<defs>
			<rect id="SVGID_1_" x="7.1" y="40.8" width="223.2" height="187.2"/>
		</defs>
		<clipPath id="SVGID_2_">
			<use xlink:href="#SVGID_1_"  style="overflow:visible;"/>
		</clipPath>
		<g class="st1">
			<g>
				<path class="st2" d="M200.1,55.3c-1.1-2.7-2-5.6-3.8-7.8l1,2c-1.9-3.1-10.4-3.6-13.5-3.2c-2.2,0.3-4.4,1.4-6,2.8
					c-3.1,2.7-4.1,4.9-5.5,8.9c-1.7,4.8-1.6,8.6-0.2,13.5c1.1,3.9,3,7.9,6.8,9.8c4.7,2.3,11,1.8,15.3-1c4.5-2.9,7.3-8.5,7.7-13.9
					C202.1,62.4,201.6,59,200.1,55.3z"/>
			</g>
			<linearGradient id="SVGID_3_" gradientUnits="userSpaceOnUse" x1="185.7239" y1="196.5961" x2="185.7239" y2="294.7167">
				<stop  offset="0" style="stop-color:#29ABE2"/>
				<stop  offset="0.1086" style="stop-color:#22A1DB"/>
				<stop  offset="0.4513" style="stop-color:#0F87CA"/>
				<stop  offset="0.7577" style="stop-color:#0477C0"/>
				<stop  offset="0.9955" style="stop-color:#0071BC"/>
			</linearGradient>
			<path class="st3" d="M177.7,237.5l8-54.5h7.3l2.2,54.5H210l2.1-60.8h-47.8c-2.2,16.7-3.8,37.8-5,60.8H177.7z"/>
			<linearGradient id="SVGID_4_" gradientUnits="userSpaceOnUse" x1="155.8965" y1="131.9286" x2="212.1497" y2="131.9286">
				<stop  offset="0" style="stop-color:#29ABE2"/>
				<stop  offset="0.1086" style="stop-color:#22A1DB"/>
				<stop  offset="0.4513" style="stop-color:#0F87CA"/>
				<stop  offset="0.7577" style="stop-color:#0477C0"/>
				<stop  offset="0.9955" style="stop-color:#0071BC"/>
			</linearGradient>
			<path class="st4" d="M212.1,176.7h-47.8c1.2-8.6,2.5-16,4.1-21.9l-8.3-34.4l-4.2-17.3c0.5-4.8,14-10.7,22-13.8
				c1-0.4,1.9-0.7,2.7-1c1.9-0.7,3.1-1.1,3.1-1.1h10.8l2.1,0.9l2.8,1.2l9.8,4.1l0,44.3c0,2.1,0.1,4.1,0.3,6.2L212.1,176.7z"/>
			<linearGradient id="SVGID_5_" gradientUnits="userSpaceOnUse" x1="160.0754" y1="148.4819" x2="173.1699" y2="148.4819">
				<stop  offset="0" style="stop-color:#29ABE2"/>
				<stop  offset="0.1086" style="stop-color:#22A1DB"/>
				<stop  offset="0.4513" style="stop-color:#0F87CA"/>
				<stop  offset="0.7577" style="stop-color:#0477C0"/>
				<stop  offset="0.9955" style="stop-color:#0071BC"/>
			</linearGradient>
			<path class="st5" d="M173.2,176.4l-8.9,0.3c1.2-8.6,2.5-16,4.1-21.9l-8.3-34.4l10.2,0.1C170.3,120.5,171,113.6,173.2,176.4z"/>
			<path class="st6" d="M199.5,90.5c0,6.5-4.8,11.9-10.8,11.9c-6,0-10.8-5.3-10.8-11.9c0-0.4,0-0.8,0.1-1.3c1-0.4,1.9-0.7,2.7-1
				c1.9-0.7,3.1-1.1,3.1-1.1h10.8l2.1,0.9l2.8,1.2C199.4,89.6,199.5,90.1,199.5,90.5z"/>
			<path class="st7" d="M197.2,91c0,4.7-3.8,8.5-8.5,8.5c-4.7,0-8.5-3.8-8.5-8.5c0-1,0.2-1.9,0.5-2.7c1.9-0.7,3.1-1.1,3.1-1.1h10.8
				l2.1,0.9C197,89,197.2,90,197.2,91z"/>
			<rect x="181.5" y="78.3" class="st7" width="14.4" height="12.6"/>
			<g>
				<path class="st2" d="M203.2,61.4c-0.3-2.7-4.2-10.6-6.7-5.9l0,0c-0.2,1.1-0.1,2.3,0.4,3.2c1.3,2.7,2.9,7.8,3,9.8
					c0.2,2.8,0.4,7.4-0.9,10C202.9,74,203.7,66.6,203.2,61.4z"/>
			</g>
			<path class="st8" d="M170.6,70c0.9,3.3,3.5,4.3,5.8,4.9c0.1,0.2,0.2,0.4,0.3,0.6c1.4,2.4,3.3,4.8,5.4,6.6
				c2.9,2.5,6.2,3.9,9.1,3.3c4.9-1,8.6-5.1,10.3-9.9c0.1-0.2,0.2-0.5,0.2-0.7c0.6-2,0.9-4.1,0.7-6.2c-1.7-18.7-8.1-22.1-15.3-21.3
				c-5.5,0.6-10.9,9.3-12.3,16.9c-0.8-0.4-1.5-0.6-2.2-0.6C170.5,63.8,169.9,67.4,170.6,70z"/>
			<g>
				<path class="st2" d="M209.4,44.9c-1.3,1.2-1.7,2.9-3.7,3.1c-0.1-0.6,0.7-1.5,0.7-2.2c0.1-0.6,0-1.3,0-1.9
					c-0.6,1.7-4,3.1-5.6,3.3c0.2-0.7,1.2-1.4,1.5-2.1c0.3-0.6,0.7-1.3,0.8-1.9c-2,2.2-4.8,2.3-7.5,2.6c-1.9,0.2-3.8,0.1-5.7,0.1
					c-1.3,0-2.6,0.5-3.9,0.7c-4.6,0.8-8.6,3.8-10.5,8.1c-0.6,1.4-1.9,4.7-1,6.6c-0.2,1.9,0.4,3.8,0.7,5.7c0.5,2.5,1.2,4.8,2.3,7.2
					c0.4,0.9,1.2,2.1,1.6,3.3c-0.1-1.3,0.1-2.7,0.1-3.8c0-2.8,0.2-5.8,1.1-8.5c0,0,0,0,0,0c1.1-3.3,3.8-5.7,7.2-6.3
					c0.3-0.1,0.6-0.1,0.8-0.1c3.7-0.5,7.5,0,11.2-0.6c1.8-0.3,3.7-0.9,5.3-1.7c1.6-0.8,2.3-1.8,2.9-3.4
					C208.8,50.7,209.7,47.6,209.4,44.9z"/>
			</g>
			<path class="st2" d="M187.3,66.8c0,0.8,0.6,1.5,1.3,1.5c0.7,0,1.3-0.6,1.4-1.4c0-0.8-0.6-1.5-1.3-1.5
				C187.9,65.4,187.3,66,187.3,66.8z"/>
			<path class="st2" d="M196.4,66.9c0,0.8,0.6,1.5,1.3,1.5c0.7,0,1.3-0.6,1.4-1.4c0-0.8-0.6-1.5-1.3-1.5
				C197,65.4,196.4,66.1,196.4,66.9z"/>
			<g>
				<path class="st2" d="M184.1,64c0.2,0,0.3-0.1,0.4-0.2c1.4-2.5,3.7-1.4,3.8-1.4c0.2,0.1,0.5,0,0.6-0.2c0.1-0.2,0-0.5-0.2-0.6
					c-1.1-0.5-3.5-0.9-5,1.8c-0.1,0.2,0,0.5,0.2,0.6C184,63.9,184.1,64,184.1,64z"/>
			</g>
			<g>
				<path class="st2" d="M191.9,75.6c-0.1-0.2-0.2-0.3-0.4-0.3c-2.9-0.1-3-2.6-3-2.7c0-0.2-0.2-0.4-0.5-0.4c-0.2,0-0.4,0.2-0.4,0.5
					c0,1.2,0.9,3.5,3.8,3.6c0.2,0,0.5-0.2,0.5-0.4C191.9,75.7,191.9,75.7,191.9,75.6z"/>
			</g>
			<g>
				<path class="st2" d="M196.4,62.1c0.1,0.1,0.3,0.1,0.4,0.1c2.3-0.8,3.1,1.1,3.2,1.2c0.1,0.2,0.3,0.3,0.5,0.2
					c0.2-0.1,0.3-0.3,0.2-0.5c-0.4-0.9-1.8-2.5-4.1-1.6c-0.2,0.1-0.3,0.3-0.2,0.5C196.3,62,196.3,62.1,196.4,62.1z"/>
			</g>
			<g>
				<path class="st2" d="M195.9,73.5c0.3-0.1,0.5-0.2,0.7-0.5c0.6-0.7,0.5-1.9-0.3-3.2l-2.3-4.4c-0.1-0.2-0.3-0.2-0.5-0.1
					c-0.2,0.1-0.2,0.3-0.1,0.5l2.3,4.4c0.8,1.2,0.7,2,0.4,2.4c-0.3,0.4-1,0.4-1.6,0.1c-0.2-0.1-0.4,0-0.5,0.1
					c-0.1,0.2,0,0.4,0.1,0.5C194.8,73.6,195.4,73.7,195.9,73.5z"/>
			</g>
			<path class="st7" d="M209.2,93.2c0,0,7.2,1.6,8.7,7.5l6.4,32.1c0.2,1.2,0.4,2.5,0.4,3.8c-0.2,11.6-16.3,8.3-29.8,4.3l14.1-11
				L209.2,93.2z"/>
			<path class="st9" d="M208.8,122.4l14.4-1.2c0,0-1.6-13.4-6.2-23.1c-1.3-2.7-4.4-4.1-7.7-4.8L208.8,122.4z"/>
			<path class="st8" d="M199.5,137.2l-18.2,14.2c-3,2.1-5.6,3.4-7.8,4.2c-5.7,2.1-11.9-1.2-13.5-7.3c-4.8-17.8-6.2-36.9-4.1-45.2
				c2.8-2.2,6.1,0.4,8.7,3.5c2.7,3.3,7.1,30.9,7.1,30.9l24-5.4c0,0,0,0,0-0.1C196.7,133.4,198.5,135.7,199.5,137.2z"/>
			<path class="st9" d="M155.1,104c-2.5,8.8,0.8,31.5,0.8,31.5l16.7-6.8c0,0-2.6-30.3-14.3-27.7C156.7,101.4,155.5,102.5,155.1,104z
				"/>
			<path class="st7" d="M172.6,129.9c0,0-6.1-0.8-8.7-3.2c0,0-1.3-0.2-1.1,1.2c0.1,0.5,0.3,1,0.6,1.4c0.7,0.8,2.1,1.9,5,2.1
				L172.6,129.9z"/>
			<g>
				<path class="st7" d="M180.3,132.2c-1,0.1-1.9-0.1-2.8-0.6c-2.4-1.3-8.1-3.5-12.6,1l-5.7,6.1c0,0-0.6,0.7-0.8,1.5
					c-0.1,0.2-0.1,0.5,0,0.7c0,0.2,0.1,0.3,0.3,0.5c0.1,0.1,0.3,0.2,0.5,0.3c0.5,0.2,1.4,0.3,2.8,0.2c2.1-0.2,4.2-0.9,6.1-1.9
					l4.4-2.4l4.6-1l20.6-4.4L180.3,132.2z"/>
				<g>
					<path class="st10" d="M167.2,133.2c-0.6,0.2-5.3,4.4-8.8,7.6c-0.1-0.2,0-0.5,0-0.7c2.8-2.5,7.8-7.2,8.6-7.4L167.2,133.2z"/>
				</g>
				<g>
					<path class="st10" d="M167.8,135.6l-8.7,6c-0.2-0.1-0.3-0.2-0.5-0.3l8.8-6.2L167.8,135.6z"/>
				</g>
			</g>
			<path class="st8" d="M209,129.9l-9.4,7.3c-1.1-1.5-2.8-3.8-3.8-5.1C202.9,124.5,209,129.9,209,129.9z"/>
			<rect x="173.2" y="109.6" class="st6" width="12.5" height="2.2"/>
		</g>
		<g class="st1">
			<g>
				<path class="st11" d="M75.3,71c2.1-2.3,3.2-6.5,0.7-8.8c-1.9-1.8-4.8-1.7-7.1-2.4c-4.1-1.3-8.3-1.7-12.6-1.7
					c-2.7,0-6,0.3-8.1-1.8l3.8-1.8c-1.7,0.7-4.3,1.1-6.2,1.9c-1.1,0.4-2.5,0.9-2.8,2.4c-0.3,1.4,0.8,1.9,1.4,3
					c-1.3,0.6-6.2,4.1-2.3,5.1c-2.1,0.9-4.1,2.4-4.8,4.9c-0.8,2.6,0.3,4.4,3,3.8c0,1.8-2.7,12.1,2.6,8.6c0.8,2,0.6,4.4,2.8,5.7
					c1.7,1.1,3.3,0.3,4.1-1.6c0.9,2,7.2,6.7,7.1,1.6c1.5,0.9,2,2.9,4.2,2.7c1.7-0.1,3.3-1.5,2.7-3.5c3.1,2.8,9.2,1.5,7.3-3.9
					c2.5-0.2,6.5-2.7,3.1-5.5c2.6-0.6,4.5-0.5,4.9-4C78.9,73.7,77.6,70.8,75.3,71z"/>
			</g>
			<path class="st12" d="M41.5,97.8c-6.7,5.8-7,21.3-5.6,37.8l-15.8-0.9l2.1,8.7l16.8,3.4c3.2,0.6,6.2-1.8,6.2-5.1V99.1L41.5,97.8z"
				/>
			<linearGradient id="SVGID_6_" gradientUnits="userSpaceOnUse" x1="32.9374" y1="218.7652" x2="87.6308" y2="218.7652">
				<stop  offset="0" style="stop-color:#ECADB5"/>
				<stop  offset="1" style="stop-color:#DD819A"/>
			</linearGradient>
			<path class="st13" d="M37.4,243h18.7l2.5-29.5l2.2-0.3l3.5,29.8h20l3-46c0-0.1,0-0.2,0-0.3c0-0.7,0.1-1.4,0.1-2.2H32.9
				c0,0.7,0.1,1.5,0.2,2.2L37.4,243z"/>
			<rect x="32.9" y="194.3" class="st14" width="54.6" height="3"/>
			<path class="st15" d="M50.9,92.7l0.6-0.1c0.4,0,0.7-0.2,1-0.4c0.5-0.4,0.9-1,0.9-1.7c0-0.5,0-1.1,0.1-1.6c0-0.2,0-0.4,0-0.6
				c0-0.8,0.1-1.6,0.2-2.3l0.4-4.2l10.8-4.4c-0.6,1-1.4,9.3-1.3,10.9c0,0.4,0.1,0.9,0.1,1.4c0,0,0,0,0,0c0,0.1,0.1,0.3,0.1,0.4
				c0.2,0.8,0.5,1.4,0.9,1.8C56.4,102.5,51.7,102.8,50.9,92.7z"/>
			<linearGradient id="SVGID_7_" gradientUnits="userSpaceOnUse" x1="60.223" y1="110.4566" x2="60.223" y2="170.2863">
				<stop  offset="0" style="stop-color:#DD819A"/>
				<stop  offset="1" style="stop-color:#ECADB5"/>
			</linearGradient>
			<path class="st16" d="M87.5,194.5H32.9c-0.5-13,8.9-31.1,12.5-36.3c0.1-0.2,0.3-0.3,0.4-0.5c0.4-0.6,0.7-1.3,0.7-2.1
				c0-0.4-0.1-0.8-0.2-1.3c-0.1-0.3-0.3-0.8-0.5-1.4c-2-5.8-7.9-23.2-8.9-28.8c-1.3-7.3,4.6-26.5,4.6-26.5l7.5-4.2c-4,9.1,3,16,3,16
				c9.8-3.8,13-12,14-16.5c0.2,0.1,0.4,0.2,0.6,0.3c0,0,0,0,0,0h0l5.3,0.8v0c0.9,0.1,5.2,1.2,5.8,2.3c0.3,0.5,0.4,1.1,0.4,1.8
				c0,0.1,0,0.1,0,0.2c-0.3,3.6-0.7,7.4,0,10.9c0.5,2.8,1.4,5.6,1.8,8.4c0.6,3.8,0,7.4-1.4,10.9c-0.8,1.9-3.4,14.3-4.8,21.4
				c-0.1,0.6-0.2,1.3-0.2,1.9c-0.1,1.7,0.2,3.4,0.8,4.9c0.3,0.8,0.7,1.6,1.2,2.4l0.2,0.3C75.7,159.6,87.5,177.9,87.5,194.5z"/>
			<linearGradient id="SVGID_8_" gradientUnits="userSpaceOnUse" x1="76.6556" y1="113.2677" x2="76.6556" y2="171.097">
				<stop  offset="0" style="stop-color:#ECADB5"/>
				<stop  offset="1" style="stop-color:#DD819A"/>
			</linearGradient>
			<path class="st17" d="M87.5,194.5h-4.7c-3.7-12.2-9-23.5-13.1-31.4c-4-7.6-4.9-16.3-2.8-24.6l10.9-42l0.4,1.8c0,0.1,0,0.1,0,0.2
				c-0.3,3.6-0.7,7.4,0,10.9c0.5,2.8,1.4,5.6,1.8,8.4c0.6,3.8,0,7.4-1.4,10.9c-0.8,1.9-3.4,14.3-4.8,21.4c-0.1,0.6-0.2,1.3-0.2,1.9
				c-0.1,1.7,0.2,3.4,0.8,4.9c0.3,0.8,0.7,1.6,1.2,2.4l0.2,0.3C75.7,159.6,87.5,177.9,87.5,194.5z"/>
			<rect x="38.6" y="112.7" class="st6" width="10.9" height="2.8"/>
			<g>
				<g>
					<path class="st18" d="M71.9,74.4c0.9-2.3,0.7-5.5-1.3-6c-0.6-0.1-1.3,0-2,0.3c-0.6-7-4.5-15.2-9.4-16.3
						c-6.4-1.4-12.4,1-15.7,17.6c-1.3,6.6,2.2,14.2,8.4,16.2c4.7,1.5,10.9-2.9,14.3-7.9C68.4,77.9,70.8,77.3,71.9,74.4z"/>
					<g>
						<g>
							<g>
								<path class="st2" d="M49.6,79c-0.4-0.1-0.6-0.1-0.7-0.1c-0.2-0.1-0.3-0.3-0.3-0.5c0.1-0.2,0.3-0.4,0.5-0.3
									c0.2,0.1,4.9,1.2,6.7-3.3c0.1-0.2,0.3-0.3,0.5-0.2c0.2,0.1,0.3,0.3,0.2,0.5C55,79.3,51.2,79.2,49.6,79z"/>
							</g>
						</g>
						<path class="st2" d="M57.3,69.9c-0.1,0.7-0.6,1.3-1.3,1.2c-0.7-0.1-1.1-0.7-1.1-1.4c0.1-0.7,0.6-1.3,1.3-1.2
							C56.9,68.6,57.4,69.2,57.3,69.9z"/>
						<path class="st2" d="M49.1,69.1c-0.1,0.7-0.6,1.3-1.3,1.2c-0.7-0.1-1.1-0.7-1.1-1.4c0.1-0.7,0.6-1.3,1.3-1.2
							C48.7,67.8,49.2,68.4,49.1,69.1z"/>
						<g>
							<g>
								<path class="st2" d="M60.4,67.7c-0.2,0-0.3-0.1-0.4-0.2c-1-2.4-3.2-1.6-3.3-1.6c-0.2,0.1-0.4,0-0.5-0.2
									c-0.1-0.2,0-0.4,0.2-0.5c1-0.4,3.3-0.4,4.3,2c0.1,0.2,0,0.4-0.2,0.5C60.5,67.7,60.4,67.7,60.4,67.7z"/>
							</g>
						</g>
						<g>
							<g>
								<path class="st2" d="M49.6,64.9c-0.1,0.1-0.2,0.1-0.4,0c-1.9-1-2.9,0.7-3,0.8c-0.1,0.2-0.3,0.2-0.5,0.1
									c-0.2-0.1-0.2-0.3-0.1-0.5c0.5-0.8,1.8-2.1,3.9-1.1c0.2,0.1,0.2,0.3,0.2,0.5C49.7,64.8,49.6,64.8,49.6,64.9z"/>
							</g>
						</g>
					</g>
				</g>
			</g>
			<g>
				<path class="st2" d="M50.4,75.4c0.2,0,0.4-0.2,0.4-0.4c0-0.2-0.2-0.4-0.4-0.4c0,0-0.7,0-0.9-0.4c-0.1-0.2-0.2-0.7,0.9-2
					c0.1-0.2,0.1-0.4-0.1-0.5c-0.2-0.1-0.4-0.1-0.5,0.1c-1,1.2-1.3,2.1-1,2.8C49.2,75.4,50.3,75.4,50.4,75.4L50.4,75.4z"/>
			</g>
			<g>
				<linearGradient id="SVGID_9_" gradientUnits="userSpaceOnUse" x1="72.5796" y1="154.6347" x2="75.3269" y2="174.7816">
					<stop  offset="0" style="stop-color:#ECADB5"/>
					<stop  offset="1" style="stop-color:#DD819A"/>
				</linearGradient>
				<polygon class="st19" points="79.9,184.7 83.4,181.2 71.3,169.1 67.8,172.6 				"/>
				
					<rect x="72.2" y="170.8" transform="matrix(0.7071 -0.7071 0.7071 0.7071 -105.3945 104.2709)" class="st14" width="2" height="17.2"/>
			</g>
			<g>
				<linearGradient id="SVGID_10_" gradientUnits="userSpaceOnUse" x1="41.5987" y1="158.8594" x2="44.346" y2="179.0061">
					<stop  offset="0" style="stop-color:#ECADB5"/>
					<stop  offset="1" style="stop-color:#DD819A"/>
				</linearGradient>
				<polygon class="st20" points="39.7,184.7 36.2,181.2 48.4,169.1 51.9,172.6 				"/>
				
					<rect x="45.5" y="170.8" transform="matrix(-0.7071 -0.7071 0.7071 -0.7071 -47.4315 339.0702)" class="st14" width="2" height="17.2"/>
			</g>
			<path class="st6" d="M66.1,93.1c-1,4.5-4.2,12.7-14,16.5c0,0-7-6.9-3-16l1.7-0.5c0.9,10.3,5.6,10,14.1-0.9
				c0.3,0.3,0.6,0.6,0.9,0.8C65.9,93,66,93,66.1,93.1z"/>
			<g>
				<path class="st11" d="M72.9,58.3c-2.1-4-6.1-6.9-10.3-8c-3.8-1-9-0.9-12.3,1.6c-3,2.3-5.7,6.1-5.4,10.2c0,0,0,0,0,0
					c0,0.9,1.2,1.3,1.8,0.6c0.7-0.9,1.5-1.9,2.3-2.1c0.5,1.3,1.6,2.1,2.8,2.2c1.3,0.1,2.6,0,3.3-0.9c0,0,0,0,0,0
					c0.3,1.4,2,2.1,3.2,1.4c0.6-0.4,1.3-0.7,2-1c1,3.6,2.1,7.3,3.1,10.9c0.3,1,0.6,2,1.4,2.5c0.8,0.5,1.9,0.2,2.7-0.1
					C73.5,72.9,76.1,64.5,72.9,58.3z"/>
			</g>
			<g>
				<path class="st18" d="M106.2,137.8c-6.7,7.3-17.2,12.5-30,16.5c0,0,0.8,4.4-7.6,4.1c-0.4,0-0.8-0.1-1.1-0.3
					c-0.2-0.1-0.3-0.2-0.5-0.3c-0.1-0.1-0.1-0.1-0.2-0.2c-0.1-0.1-0.3-0.3-0.4-0.4c-0.1-0.1-0.2-0.2-0.3-0.4
					c-0.3-0.3-0.6-0.7-0.8-1.1c-0.1-0.1-0.2-0.3-0.3-0.4c-0.4-0.8-0.7-1.7-0.3-2.3c0.6-1,1.7-2.1,3.6-3.5c0,0,4.2-2.9,5.6-1l0.6,0.9
					l17.7-14.3l-10-10.5c-3.3-3.5-5.2-8.1-5.3-12.9l-0.3-15.9c2.5,0.6,21.6,25.2,29.6,34.6C108.1,132.3,108,135.8,106.2,137.8z"/>
				<g>
					<path class="st15" d="M73.5,154.8l-6,3.1c-0.2-0.1-0.3-0.2-0.5-0.3l6.2-3.3L73.5,154.8z"/>
				</g>
				<g>
					<path class="st15" d="M72.3,152.9l-5.9,4.1c-0.1-0.1-0.2-0.2-0.3-0.4l5.9-4.2L72.3,152.9z"/>
				</g>
				<g>
					<path class="st15" d="M70.8,151.1l-5.5,4.4c-0.1-0.1-0.2-0.3-0.3-0.4l5.5-4.4L70.8,151.1z"/>
				</g>
			</g>
			<path class="st11" d="M18.1,115l21.7-0.3c1.2,0,2.3,0.8,2.6,2l8,34.5c0.4,1.6-0.8,3.1-2.5,3.2L26,154.7c-1.2,0-2.3-0.8-2.6-2
				l-7.8-34.5C15.3,116.6,16.5,115.1,18.1,115z"/>
			<path class="st18" d="M21.8,143.4c-0.3,0-0.6-0.1-0.9-0.3c-2-1.7-2.4-5.2-2.5-7c0-0.7,0.4-1.3,1-1.4c4.1-0.6,6.2,0.8,7.3,2.3
				c0.1,0.2,0.2,0.4,0.3,0.6c0.1,0.2,0.2,0.4,0.3,0.6c0.1,0.2,0.1,0.3,0.2,0.5c0.1,0.2,0.1,0.5,0.2,0.6c0.1,0.3,0.1,0.4,0.1,0.5
				c0,0,0,0,0,0C28.1,142.5,23.3,143.2,21.8,143.4z"/>
			<g>
				<path class="st15" d="M27.1,137.5c-1.6-0.3-5.1-0.4-6.3-0.4v-0.5c0.4,0,3.9,0.1,5.9,0.3C26.9,137.2,27,137.4,27.1,137.5z"/>
			</g>
			<g>
				<path class="st15" d="M27.6,138.7l-6.7,0.6l0-0.5l6.6-0.6C27.5,138.3,27.6,138.5,27.6,138.7z"/>
			</g>
			<g>
				<path class="st15" d="M27.8,139.8c-1.9,0.7-5.4,1.5-6.4,1.8l-0.1-0.5c2.2-0.4,5.1-1.2,6.5-1.8C27.8,139.6,27.8,139.7,27.8,139.8
					z"/>
			</g>
			<path class="st12" d="M76.7,95.6l0.5,17.6c0.1,3.4,1.3,6.6,3.4,9.2l8,9.8L99,119.6C99,119.6,79.5,94.2,76.7,95.6z"/>
		</g>
		<g class="st1">
			<g>
				<path class="st2" d="M107.8,69.4c-1.1,3-1.4,6.1-2.7,9c-2.1,4.5-6.7,5.8-9.8,9.4c-1.2,1.4-1.9,2.7-1.7,4.6
					c0.2,2.7,2.3,3.3,3.3,5.7c2,4.6-2.8,5.1-6,7.3c-11.1,7.6-6.4,21.2,5.6,23.8c6.1,1.3,11.3-0.1,16.7,3.7c4.6,3.3,7.5,6,13.3,6.9
					c5.3,0.8,11.5,0.9,16.9,0.2c6.3-0.9,9.5-4.7,15.2-6.7c4.4-1.6,10.3,1.5,13.7-2c2.9-3.1,4.3-9.7,1.4-12.9
					c-4.5-4.9-10.8-6.1-12.1-13.4c-0.8-4.6,1-9.3,0.1-13.9c-1.1-5.6-8.3-9.8-12.4-13.3c-4-3.4-3-6-3.9-10.9
					c-1.7-9.2-10.1-19.5-20.2-18.7c-10.7,0.8-18.2,11.9-17.7,22.2"/>
			</g>
			<path class="st8" d="M106,98.6c0,0-6.7,0.9-6.7,11.2l-1.4,33.5l-14.6,43.8c-0.6,1.7-0.8,3.4-0.8,5.1v10.2l7.3,5.9
				c0,0,1.6-0.9-4.5-5.9l0.4-8c0,0,1.1,7.5,2.3,7.5c0.8-0.1,0.6-5.2,0.5-9.7c0-0.5-0.1-1-0.3-1.5l-0.9-2.1l18.5-35.3
				c2-3.8,2.9-8.1,2.7-12.5L106,98.6z"/>
			<path class="st9" d="M106,98.6c0,0-11.1,0.2-9.1,31h11.2L106,98.6z"/>
			<linearGradient id="SVGID_11_" gradientUnits="userSpaceOnUse" x1="122.8641" y1="169.7782" x2="134.3497" y2="104.3988">
				<stop  offset="0" style="stop-color:#29ABE2"/>
				<stop  offset="0.1086" style="stop-color:#22A1DB"/>
				<stop  offset="0.4513" style="stop-color:#0F87CA"/>
				<stop  offset="0.7577" style="stop-color:#0477C0"/>
				<stop  offset="0.9955" style="stop-color:#0071BC"/>
			</linearGradient>
			<path class="st21" d="M149.9,183.1c-12.9,4.4-27.3,7.2-39.5,4.3c-4.5-1.1-8.7-2.9-12.5-5.7c0,0,4.9-17.6,9.9-30.8
				c0.8-2.1,1.5-5.8,1.3-8c-0.4-7.4-3.7-12.8-4.6-20c-0.8-6.1,1.5-24.2,1.5-24.2s11.3-3.9,12.3-3.9c0.1,0,0.1,0,0.2,0
				c-0.1,1.3-0.1,3,0.1,4.6c0.8,6.4,9.1,8.7,12.9,3.5c1.2-1.7,2.3-3.9,2.8-6.7l1.1,0.2l0.4,0.1c2.8,0.4,8,1.1,8,1.1
				c-0.4,4.3-1.5,9-0.9,13.4c0.4,2.6,1,5.2,1.3,7.8c0.4,3.5-0.3,6.8-1.7,10c-1.8,3.9-3.4,8.4-3.8,12.8c-0.9,9.4,3.2,17.7,6.5,26.3
				C148.1,175,149.9,183.1,149.9,183.1z"/>
			<path class="st11" d="M117.3,130.9l8,29.2c0.4,1.4,1.8,2.2,3.2,1.8l19-5.7c1.3-0.4,2.1-1.8,1.7-3.1l-7.6-28.3
				c-0.4-1.3-1.7-2.1-3.1-1.8l-19.5,4.9C117.7,128.1,116.9,129.5,117.3,130.9z"/>
			<rect x="108.8" y="116.3" class="st6" width="9.7" height="2.2"/>
			<path class="st6" d="M135.4,96.2c0.2,10.8-10.3,19-10.3,19c-9-4.5-8.4-20.1-8.4-20.1c0-0.1,1.8-0.5,1.8-0.4
				c-0.1,1.3-0.1,3,0.1,4.6c0.8,6.4,9.1,8.7,12.9,3.5c1.2-1.7,2.3-3.9,2.8-6.7L135.4,96.2z"/>
			<g>
				<g>
					<path class="st12" d="M139.2,115.3l0-0.5c0-8,0-16.3-7.4-20.5c-3.6-2-7.8-2.4-11.5-1.1c-7.4,2.6-7.4,10.9-7.4,11.3l-1.8,0
						c0-0.1,0-10,8.6-13c4.2-1.5,9-1,13,1.3c8.3,4.7,8.3,13.5,8.3,22l0,0.5L139.2,115.3z"/>
				</g>
				<path class="st12" d="M142.8,117c0,1.5-1.2,2.7-2.7,2.7s-2.7-1.2-2.7-2.7c0-1.5,1.2-2.7,2.7-2.7S142.8,115.5,142.8,117z"/>
				<path class="st22" d="M141.7,117c0,0.8-0.7,1.5-1.5,1.5c-0.8,0-1.5-0.7-1.5-1.5c0-0.8,0.7-1.5,1.5-1.5
					C141,115.4,141.7,116.1,141.7,117z"/>
				<g>
					<path class="st12" d="M112.8,126.4c-1.3-0.6-2.4-1.4-3.3-2.5c-0.9,0.8-1.8,1.4-2.8,1.6l-0.3-1.8c0.7-0.1,1.4-0.6,2.1-1.3
						c-0.8-1.4-1.4-3-1.7-4.9c-0.9-5.1,0.3-10.8,2.7-13.1c0.6-0.6,1.5-0.9,2.4-0.8c0.9,0.1,1.8,0.5,2.3,1.3c2.1,2.8,1.3,8-0.3,12
						c-0.8,2-1.9,4.1-3.2,5.8c0.7,0.9,1.6,1.7,2.8,2.2L112.8,126.4z M111.5,105.4c-0.4,0-0.7,0.1-0.9,0.4c-1.7,1.7-3,6.7-2.2,11.5
						c0.2,1,0.5,2.4,1.2,3.8c0.9-1.3,1.8-2.9,2.5-4.8c1.7-4.4,1.9-8.5,0.5-10.3c-0.2-0.3-0.6-0.5-1-0.6
						C111.6,105.4,111.6,105.4,111.5,105.4z"/>
				</g>
				<path class="st22" d="M113.8,127.5l-1.8-1.1c-0.4-0.3-0.6-0.9-0.3-1.3l0.2-0.3c0.3-0.4,0.9-0.6,1.3-0.3l1.8,1.1
					c0.4,0.3,0.6,0.9,0.3,1.3l-0.2,0.3C114.8,127.7,114.2,127.8,113.8,127.5z"/>
				<path class="st22" d="M106.9,125.7l-2,0.5c-0.5,0.1-1-0.2-1.1-0.7l-0.1-0.3c-0.1-0.5,0.2-1,0.7-1.1l2-0.5c0.5-0.1,1,0.2,1.1,0.7
					l0.1,0.3C107.7,125,107.4,125.5,106.9,125.7z"/>
			</g>
			<path class="st7" d="M131.5,95.6c-0.7-0.1-1.2-0.7-1.2-1.5l0.2-1.8c0,0,0,0,0,0l0.8-4.9l-9.5-2.7c0,0-0.7,5.3-0.8,6.1
				c0,0.4-0.1,0.8-0.1,1.2l0,0l-0.2,0.8c-0.3,1.1-1.2,1.9-2.3,1.9c0,0,0,0,0,0c-0.1,1.3-0.1,3,0.1,4.6c0.8,6.4,9.1,8.7,12.9,3.5
				c1.2-1.7,2.3-3.9,2.8-6.7L131.5,95.6z"/>
			<path class="st8" d="M111,67.6c0.6,0,1.3,0.2,2,0.7c1.1-4.1,3.5-8.5,6.3-11.4c1.2-1.5,2.6-2.4,4-2.9c0.8-0.3,1.6-0.6,2.4-0.6
				c0.5,0,1.1,0,1.6,0c0.5,0,1.1,0.1,1.6,0.1c0.8,0.1,1.5,0.4,2.3,0.8c1.4,0.7,2.7,1.7,3.7,3.3c2.6,3.2,4.6,7.7,5.3,11.9
				c0.7-0.4,1.4-0.6,2-0.5c2.1,0.3,2.6,3.6,1.9,6.1c-0.9,3.1-3.3,4-5.5,4.6c-1.1,2.1-2.6,4-4.4,5.7c-1.8,2-4.1,3.4-6.7,3.9
				c-0.1,0-0.2,0-0.2,0c-0.1,0-0.3,0.1-0.4,0.1c-0.1,0-0.2,0-0.3,0c-0.1,0-0.2,0-0.3,0c-0.2,0-0.4,0-0.6,0c-0.2,0-0.4,0-0.6-0.1
				c-0.1,0-0.2,0-0.3,0c-0.1,0-0.2,0-0.3,0c-0.1,0-0.3-0.1-0.4-0.1c-0.1,0-0.1,0-0.2-0.1c-2.5-0.7-4.7-2.3-6.4-4.5
				c-1.6-1.8-2.9-3.9-3.9-6c-2.2-0.7-4.5-1.8-5.1-5C108,71,108.9,67.7,111,67.6z"/>
			<g>
				<g>
					<path class="st2" d="M127.3,82.5c1.5-0.4,3.1-1.4,3.9-3.8c0.1-0.2,0-0.4-0.2-0.5c-0.2-0.1-0.4,0-0.5,0.2
						c-1.4,4.3-5.8,3.5-6,3.4c-0.2,0-0.4,0.1-0.4,0.3c0,0.2,0.1,0.4,0.3,0.4C124.3,82.6,125.7,82.9,127.3,82.5z"/>
				</g>
				<g>
					<path class="st2" d="M132.5,73.7c-0.1,0.7-0.7,1.2-1.4,1.1c-0.7-0.1-1.2-0.7-1.1-1.4c0.1-0.7,0.7-1.2,1.4-1.1
						C132.1,72.3,132.6,73,132.5,73.7z"/>
				</g>
				<g>
					<path class="st2" d="M122.2,73.2c-0.1,0.7-0.7,1.2-1.4,1.1c-0.7-0.1-1.2-0.7-1.1-1.4c0.1-0.7,0.7-1.2,1.4-1.1
						C121.8,71.9,122.3,72.5,122.2,73.2z"/>
				</g>
				<g>
					<path class="st2" d="M134.2,70.5C134.2,70.5,134.2,70.5,134.2,70.5c0.2-0.1,0.3-0.3,0.3-0.5c-0.9-2.3-2.9-2.3-3.9-2
						c-0.2,0.1-0.3,0.3-0.2,0.5c0.1,0.2,0.3,0.3,0.5,0.2c0.1,0,2.1-0.7,3,1.6C133.8,70.5,134,70.6,134.2,70.5z"/>
				</g>
				<g>
					<path class="st2" d="M122.9,68.6C122.9,68.6,122.9,68.6,122.9,68.6c0.1-0.2,0.1-0.4-0.1-0.5c-2.2-1.2-3.7,0.1-4.3,0.9
						c-0.1,0.2-0.1,0.4,0.1,0.5c0.2,0.1,0.4,0.1,0.5-0.1c0-0.1,1.2-1.9,3.3-0.7C122.6,68.8,122.8,68.7,122.9,68.6z"/>
				</g>
				<g>
					<path class="st2" d="M124.8,78.6c0.2,0,0.4-0.1,0.4-0.3c0-0.2-0.1-0.4-0.3-0.4c0,0-0.7,0-0.9-0.4c-0.1-0.2-0.1-0.7,0.9-1.9
						c0.1-0.2,0.1-0.4,0-0.5c-0.2-0.1-0.4-0.1-0.5,0c-1,1.1-1.3,2-1.1,2.7C123.6,78.5,124.7,78.6,124.8,78.6L124.8,78.6z"/>
				</g>
			</g>
			<g>
				<path class="st2" d="M141.1,59.2c-0.5-3.3-3-6.1-5.8-7.6c-3-1.5-6.5-1.6-9.7-0.8c-4,1-8.5,3.3-11.2,6.5c-1.5,1.8-2.7,5-3.4,8.6
					c-0.7,4.1,4.7,6.1,7,2.6c0.1-0.1,0.2-0.2,0.2-0.3c1.6-2.1,4.5-2,7-1.8c3.7,0.3,7.1,0.3,10.2-2.1c-0.1,1.4,0.1,2.6,0.4,4
					C136.9,72.6,143.3,74.8,141.1,59.2z"/>
			</g>
			<path class="st8" d="M167.2,141.9c-8.4,4.6-24.4,6.3-39.7,8.3c0,0-3,1.8-5.4,2.2c-0.9,0.2-1.7-0.3-2.1-1.1
				c-0.7-1.4-1.8-3.9-1.9-5.8c0-1,0.7-1.8,1.7-1.9l4.2-0.3l-3.5-0.8c-0.5-0.1-0.6-0.7-0.3-1c1-0.9,4.2-1.2,7.7,1.9
				c7.5-0.9,18.1-4.8,29.1-9.2l-4.4-5.2l-9.6-11.5l-0.2-0.2c0,0,0-0.1-0.1-0.3c-0.4-2.3-2.5-16.2,1-19.7l4,2.3c2.2,1.3,4,3,5.4,5.1
				l10.1,15.6l6.7,10.4C172.4,134.5,171.2,139.7,167.2,141.9z"/>
			<linearGradient id="SVGID_12_" gradientUnits="userSpaceOnUse" x1="59.7314" y1="211.1181" x2="151.5305" y2="211.1181">
				<stop  offset="0" style="stop-color:#29ABE2"/>
				<stop  offset="0.1086" style="stop-color:#22A1DB"/>
				<stop  offset="0.4513" style="stop-color:#0F87CA"/>
				<stop  offset="0.7577" style="stop-color:#0477C0"/>
				<stop  offset="0.9955" style="stop-color:#0071BC"/>
			</linearGradient>
			<polygon class="st23" points="109.2,240.6 119.2,200.8 127.5,200.8 126.4,240.6 143.5,240.6 149.9,183.1 97.9,181.7 90.2,240.6 
							"/>
			<path class="st9" d="M164.1,119.7l-0.9,0.7l-10.6,8.7l-1.9,1.6c-3.1-3.8-5.6-8.5-7.7-13c0,0,0,0,0,0c-0.2-0.4-0.3-0.7-0.3-1.1
				c-0.5-3.5-2.2-15.8,1.1-19.1C152.1,98.5,164.1,119.7,164.1,119.7z"/>
		</g>
	</g>
	<g>
		<path class="st24" d="M225.9,220.3c1.1-4.6,3-12.2,4.7-16.9c1.6-4.3,4.1-8.9,5.8-12c1.2-2.1,0.6-4.7-1.2-6.1
			c-2.6-2-7.2-3.9-10.5-5.3c-1.1-0.5-2.3-0.9-3.5-1.2c0,0,0,0,0,0c-0.1-0.3-1.8-5.4-4.5-5.6c-2.8-0.3-3.9,4.4-3.9,4.4
			c-1.9,0-3.5,1.5-3.7,3.3c-0.4,3-1.1,7.4-2.2,10.3c-1.2,3.3-6.3,12.9-9.3,18.2c-1.2,2.1-0.4,4.8,1.7,6c3.2,1.8,7.8,4.2,11.2,5.5
			c3.2,1.2,7.3,2.1,10.3,2.8C223.2,224,225.4,222.6,225.9,220.3z M217,175c0.6,0.2,0.9,0.9,0.7,1.5c-0.2,0.6-0.9,0.9-1.5,0.7
			c-0.6-0.2-0.9-0.9-0.7-1.5C215.7,175.1,216.4,174.8,217,175z"/>
		<path class="st25" d="M221.7,219.5c-0.9,1.2-8-0.9-12.1-2.5c-4.1-1.6-8.8-4.8-8.2-6.4c0.6-1.6,5.9-10.4,6.4-14.4l0,0
			c0.3,0.1,5.9,1,9.7,2.8c4,1.8,9.5,5.8,9.5,5.8s-2.4,5-3.1,8.3C223.4,216.3,222.6,218.3,221.7,219.5z"/>
		<path class="st26" d="M227.2,204.8c0,0-4.7-1.3-10-3.2c-5.3-1.9-9.2-5.3-9.2-5.3l0,0c0.3,0.1,5.9,1,9.7,2.8
			C221.6,200.7,227.2,204.8,227.2,204.8z"/>
		<path class="st6" d="M231.9,188.7c0,0-1.5,2.4-2.5,5l-5.9,15.9c-6.6,0.7-16.9-6.3-16.9-6.3l1.6-4.4l3.8-9.1c0,0,0.8-1.4,1-2.8
			c0.3-1.4,0.7-4.8,0.7-4.8s3.6-0.3,9.7,2.3C229.6,187.1,231.9,188.7,231.9,188.7z"/>
		<g>
			
				<ellipse transform="matrix(0.9084 -0.4181 0.4181 0.9084 -61.9088 109.4175)" class="st25" cx="218.8" cy="196" rx="5.1" ry="5.1"/>
			<polygon class="st6" points="222.3,196.5 221.8,197.9 219.2,197 218.3,199.5 216.9,199 217.8,196.5 215.2,195.5 215.8,194.1 
				218.3,195 219.3,192.5 220.7,193 219.8,195.6 			"/>
		</g>
		<path class="st27" d="M216,176.7c-0.4,0-0.8-0.4-0.8-0.8c0-0.9-0.1-3.7-1.2-4.6c-0.2-0.2-0.6-0.4-1.2-0.2
			c-0.5,0.1-0.8,0.3-1.1,0.8c-0.9,1.5-0.5,4.7-0.2,5.9c-0.6,0.2-1.1,0.6-1.4,0.8c-0.1-0.1-0.1-0.2-0.2-0.3c-0.1-0.5-1.2-4.9,0.3-7.3
			c0.5-0.8,1.2-1.3,2.1-1.5c1-0.2,1.9,0,2.6,0.6c1.9,1.6,1.8,5.4,1.8,5.8C216.8,176.3,216.4,176.7,216,176.7z"/>
	</g>
</g>
</svg>
