<?xml version="1.0" encoding="utf-8"?>
<!-- Generator: Adobe Illustrator 22.0.0, SVG Export Plug-In . SVG Version: 6.00 Build 0)  -->
<svg version="1.1" id="Capa_1" xmlns="http://www.w3.org/2000/svg" xmlns:xlink="http://www.w3.org/1999/xlink" x="0px" y="0px"
	 viewBox="0 0 500 300" style="enable-background:new 0 0 500 300;" xml:space="preserve">
<style type="text/css">
	.st0{fill:#E6EFF0;}
	.st1{fill:#D5E5E6;}
	.st2{fill:#FDDA89;}
	.st3{fill:#FFFFFF;}
	.st4{fill:#556566;}
	.st5{fill:#D53D33;}
	.st6{fill:#EFF4FF;}
	.st7{fill:#C6DBFF;}
	.st8{fill:#F1CEB7;}
	.st9{fill:#FF546D;}
	.st10{fill:#413F84;}
	.st11{fill:#D5B6A2;}
	.st12{fill:#DFEBFF;}
	.st13{fill:#FA0008;}
	.st14{fill:#FF8B9D;}
	.st15{opacity:0.7;fill:#FA0008;}
	.st16{fill:#050521;}
	.st17{opacity:0.7;}
	.st18{fill:#FEDCB7;}
	.st19{fill:#FEC29E;}
	.st20{fill:#354546;}
	.st21{clip-path:url(#SVGID_2_);}
	.st22{fill:#CB0909;}
	.st23{fill:#DA0505;}
	.st24{fill:#E70505;}
</style>
<g>
	<g>
		<g>
			<path class="st0" d="M227.9,207.7c0,17.7-14.4,32.1-32.1,32.1h-66.6c-17.7,0-32.1-14.4-32.1-32.1V88.1C97,70.4,111.4,56,129.1,56
				h66.6c17.7,0,32.1,14.4,32.1,32.1V207.7z"/>
		</g>
	</g>
	<g>
		<g>
			<path class="st1" d="M217.2,97.3v100.1c0,14.8-12,26.9-26.9,26.9h-55.8c-14.9,0-26.9-12-26.9-26.9V97.3c0-14.9,12-26.9,26.9-26.9
				h55.8C205.2,70.4,217.2,82.5,217.2,97.3z"/>
		</g>
	</g>
	<g>
		<g>
			<rect x="130.7" y="35.1" class="st0" width="14.5" height="35.3"/>
		</g>
	</g>
	<g>
		<g>
			<rect x="177.8" y="35.1" class="st0" width="14.5" height="35.3"/>
		</g>
	</g>
	<g>
		<g>
			<rect x="154" y="23.1" class="st0" width="14.4" height="47.4"/>
		</g>
	</g>
	<g>
		<g>
			<path class="st2" d="M217.2,109.8v87.6c0,14.8-12,26.9-26.9,26.9h-55.8c-14.9,0-26.9-12-26.9-26.9v-87.6H217.2z"/>
		</g>
	</g>
	<g>
		<g>
			<path class="st3" d="M205.7,196.4c0,2.7-2.7,4.9-6,4.9h-71.6c-3.3,0-6-2.2-6-4.9v-57.9c0-2.7,2.7-4.9,6-4.9h71.6
				c3.3,0,6,2.2,6,4.9V196.4z"/>
		</g>
	</g>
	<g>
		<g>
			<rect x="122" y="174" class="st4" width="84.2" height="1.6"/>
		</g>
	</g>
	<g>
		<g>
			<path class="st3" d="M212.9,124.6c0,1.7-2.4,3.1-5.3,3.1l0,0c-2.9,0-5.3-1.4-5.3-3.1V96.2c0-1.7,2.4-3.1,5.3-3.1l0,0
				c2.9,0,5.3,1.4,5.3,3.1V124.6z"/>
		</g>
	</g>
	<g>
		<path class="st1" d="M146.7,39.4c0,1.4-1.2,2.6-2.6,2.6h-12.2c-1.4,0-2.6-1.2-2.6-2.6v-3.9c0-1.4,1.2-2.6,2.6-2.6h12.2
			c1.4,0,2.6,1.2,2.6,2.6V39.4z"/>
	</g>
	<g>
		<path class="st1" d="M193.7,39.4c0,1.4-1.2,2.6-2.6,2.6h-12.2c-1.4,0-2.6-1.2-2.6-2.6v-3.9c0-1.4,1.2-2.6,2.6-2.6h12.2
			c1.4,0,2.6,1.2,2.6,2.6V39.4z"/>
	</g>
	<g>
		<path class="st1" d="M170,243.4c0,1.4-1.2,2.6-2.6,2.6h-12.2c-1.4,0-2.6-1.2-2.6-2.6v-3.9c0-1.4,1.2-2.6,2.6-2.6h12.2
			c1.4,0,2.6,1.2,2.6,2.6V243.4z"/>
	</g>
	<g>
		<path class="st1" d="M170,28.8c0,1.4-1.2,2.6-2.6,2.6h-12.2c-1.4,0-2.6-1.2-2.6-2.6v-3.9c0-1.4,1.2-2.6,2.6-2.6h12.2
			c1.4,0,2.6,1.2,2.6,2.6V28.8z"/>
	</g>
	<g>
		<path class="st4" d="M134.3,169.7v-13.3h2.7l0.2,1h0.1c0.3-0.4,0.6-0.6,1-0.8c0.4-0.2,0.9-0.3,1.5-0.3c0.7,0,1.4,0.2,2,0.5
			c0.6,0.3,1.1,0.8,1.4,1.5c0.4,0.7,0.5,1.6,0.5,2.7c0,1.1-0.2,2-0.6,2.8s-1,1.3-1.8,1.7s-1.8,0.6-2.9,0.6c-0.2,0-0.3,0-0.5,0
			s-0.3,0-0.5,0v3.7H134.3z M138.5,163.6c0.7,0,1.2-0.2,1.5-0.5c0.3-0.4,0.5-1,0.5-1.9c0-0.6-0.1-1.1-0.2-1.4
			c-0.1-0.3-0.3-0.6-0.6-0.7c-0.3-0.1-0.5-0.2-0.9-0.2c-0.2,0-0.5,0-0.7,0.1c-0.2,0.1-0.4,0.2-0.6,0.3v4.2c0.1,0,0.3,0,0.4,0.1
			C138.1,163.6,138.3,163.6,138.5,163.6z"/>
		<path class="st4" d="M145.2,165.9v-13.9h3.2v13.9H145.2z"/>
		<path class="st4" d="M152.9,166.1c-1,0-1.8-0.3-2.3-0.8c-0.5-0.5-0.8-1.2-0.8-2c0-0.9,0.3-1.6,1-2.1s1.7-0.8,3.1-0.9l1.8-0.1
			l0.4,1.7l-1.8,0.1c-0.4,0-0.8,0.1-1,0.3c-0.2,0.2-0.3,0.4-0.3,0.7c0,0.3,0.1,0.5,0.3,0.7c0.2,0.2,0.4,0.2,0.8,0.2
			c0.2,0,0.4,0,0.6-0.1s0.4-0.2,0.6-0.3v-3.2c0-0.4-0.1-0.7-0.2-0.9c-0.1-0.2-0.3-0.4-0.6-0.5s-0.7-0.1-1.2-0.1
			c-0.4,0-0.8,0-1.2,0.1s-0.9,0.2-1.3,0.3v-2.4c0.5-0.1,1-0.2,1.6-0.3c0.6-0.1,1.1-0.1,1.6-0.1c1.1,0,2,0.1,2.6,0.4
			c0.7,0.3,1.2,0.7,1.5,1.3s0.5,1.4,0.5,2.5v5.4h-2.7l-0.2-0.9h-0.1c-0.3,0.4-0.6,0.7-1,0.8S153.4,166.1,152.9,166.1z"/>
		<path class="st4" d="M163.2,166.1c-0.6,0-1.1,0-1.7-0.1c-0.5-0.1-1-0.2-1.5-0.3v-2.3c0.5,0.1,1,0.2,1.5,0.3
			c0.5,0.1,1.1,0.1,1.6,0.1c0.6,0,0.9-0.1,1.2-0.2c0.2-0.1,0.3-0.3,0.3-0.5c0-0.2,0-0.3-0.1-0.4c-0.1-0.1-0.3-0.1-0.5-0.2l-1.6-0.3
			c-0.9-0.2-1.6-0.5-2-0.9c-0.4-0.5-0.6-1.1-0.6-1.9c0-0.9,0.4-1.7,1.2-2.3s2-0.9,3.5-0.9c0.5,0,1,0,1.4,0.1
			c0.5,0.1,0.9,0.1,1.2,0.2v2.3c-0.4-0.1-0.8-0.2-1.2-0.2c-0.4-0.1-0.9-0.1-1.3-0.1c-0.5,0-0.9,0-1.1,0.1s-0.4,0.2-0.5,0.3
			s-0.1,0.2-0.1,0.4c0,0.1,0,0.3,0.1,0.3c0.1,0.1,0.3,0.2,0.5,0.2l1.6,0.3c0.8,0.1,1.5,0.4,1.9,0.8c0.4,0.4,0.7,1.1,0.7,1.9
			c0,1-0.4,1.7-1.2,2.3C165.6,165.8,164.6,166.1,163.2,166.1z"/>
		<path class="st4" d="M168.9,165.9v-9.5h2.7l0.2,0.9h0.1c0.3-0.4,0.7-0.6,1.1-0.8c0.4-0.2,0.9-0.3,1.5-0.3c0.6,0,1.1,0.1,1.5,0.4
			s0.8,0.6,1.1,1.2c0.3,0.5,0.4,1.3,0.4,2.2v5.9h-3.2v-5.6c0-0.5-0.1-0.8-0.3-1c-0.2-0.2-0.4-0.3-0.7-0.3c-0.2,0-0.3,0-0.5,0.1
			s-0.3,0.1-0.4,0.2c-0.1,0.1-0.3,0.2-0.4,0.3v6.2H168.9z M179.7,165.9v-5.6c0-0.5-0.1-0.8-0.3-1c-0.2-0.2-0.4-0.3-0.7-0.3
			c-0.2,0-0.4,0-0.5,0.1c-0.2,0-0.3,0.1-0.5,0.2c-0.1,0.1-0.3,0.2-0.4,0.3l-0.6-2c0.4-0.5,0.9-0.8,1.4-1.1s1.1-0.3,1.6-0.3
			c0.6,0,1.2,0.1,1.7,0.4c0.5,0.3,0.9,0.7,1.2,1.2c0.3,0.6,0.4,1.3,0.4,2.2v5.8H179.7z"/>
		<path class="st4" d="M187.4,166.1c-1,0-1.8-0.3-2.3-0.8c-0.5-0.5-0.8-1.2-0.8-2c0-0.9,0.3-1.6,1-2.1s1.7-0.8,3.1-0.9l1.8-0.1
			l0.4,1.7l-1.8,0.1c-0.4,0-0.8,0.1-1,0.3c-0.2,0.2-0.3,0.4-0.3,0.7c0,0.3,0.1,0.5,0.3,0.7c0.2,0.2,0.4,0.2,0.8,0.2
			c0.2,0,0.4,0,0.6-0.1s0.4-0.2,0.6-0.3v-3.2c0-0.4-0.1-0.7-0.2-0.9c-0.1-0.2-0.3-0.4-0.6-0.5s-0.7-0.1-1.2-0.1
			c-0.4,0-0.8,0-1.2,0.1s-0.9,0.2-1.3,0.3v-2.4c0.5-0.1,1-0.2,1.6-0.3c0.6-0.1,1.1-0.1,1.6-0.1c1.1,0,2,0.1,2.6,0.4
			c0.7,0.3,1.2,0.7,1.5,1.3s0.5,1.4,0.5,2.5v5.4h-2.7L190,165h-0.1c-0.3,0.4-0.6,0.7-1,0.8S187.9,166.1,187.4,166.1z"/>
	</g>
</g>
<g class="st17">
	<g>
		<rect x="454.4" y="63.2" class="st13" width="6.2" height="17.4"/>
		<rect x="448.9" y="68.8" class="st13" width="17.4" height="6.2"/>
	</g>
</g>
<g class="st17">
	<g>
		<rect x="61.1" y="157.2" class="st13" width="6.2" height="17.4"/>
		<rect x="55.6" y="162.8" class="st13" width="17.4" height="6.2"/>
	</g>
</g>
<path class="st15" d="M424.8,160.1h-7.4c-0.6,0-1-0.4-1-1v-5.5h-5.5c-0.6,0-1-0.4-1-1v-7.4c0-0.6,0.4-1,1-1h5.5v-5.5
	c0-0.6,0.4-1,1-1h7.4c0.6,0,1,0.4,1,1v5.5h5.5c0.6,0,1,0.4,1,1v7.4c0,0.6-0.4,1-1,1h-5.5v5.5C425.8,159.6,425.4,160.1,424.8,160.1z
	 M418.5,158.1h5.4v-5.5c0-0.6,0.4-1,1-1h5.5v-5.4h-5.5c-0.6,0-1-0.4-1-1v-5.5h-5.4v5.5c0,0.6-0.4,1-1,1h-5.5v5.4h5.5
	c0.6,0,1,0.4,1,1V158.1z"/>
<path class="st15" d="M41.1,264.8h-4.4c-0.6,0-1-0.4-1-1v-2.9h-2.9c-0.6,0-1-0.4-1-1v-4.4c0-0.6,0.4-1,1-1h2.9v-2.9c0-0.6,0.4-1,1-1
	h4.4c0.6,0,1,0.4,1,1v2.9H45c0.6,0,1,0.4,1,1v4.4c0,0.6-0.4,1-1,1h-2.9v2.9C42.1,264.4,41.7,264.8,41.1,264.8z M37.7,262.8h2.4v-2.9
	c0-0.6,0.4-1,1-1H44v-2.4h-2.9c-0.6,0-1-0.4-1-1v-2.9h-2.4v2.9c0,0.6-0.4,1-1,1h-2.9v2.4h2.9c0.6,0,1,0.4,1,1V262.8z"/>
<polygon class="st15" points="483,200.6 479.1,200.6 479.1,196.7 474.7,196.7 474.7,200.6 470.8,200.6 470.8,205 474.7,205 
	474.7,208.9 479.1,208.9 479.1,205 483,205 "/>
<polygon class="st15" points="33.5,55.2 29.6,55.2 29.6,51.3 25.2,51.3 25.2,55.2 21.3,55.2 21.3,59.6 25.2,59.6 25.2,63.5 
	29.6,63.5 29.6,59.6 33.5,59.6 "/>
<g>
	<g>
		<g>
			<g>
				<path class="st18" d="M378.3,207.6c0,0.1,0,0.2,0,0.3l0,11.1l0,0l0,27c0,1.5-1.3,2.8-2.8,2.8c-1.5,0-2.8-1.2-2.8-2.8l0-25.6
					c0-0.2,0-0.4-0.1-0.6c-0.2-1-1.1-1.8-2.2-1.9c-0.1,0-0.1,0-0.2,0c-0.4,0-0.8,0.1-1.1,0.3c-0.8,0.4-1.4,1.2-1.4,2.2l0,38.1
					c0,2.6-2.1,4.7-4.7,4.7c-2.6,0-4.7-2.1-4.7-4.7l0-38.1c0-0.9-0.5-1.6-1.1-2c-0.4-0.3-0.8-0.5-1.3-0.5c-0.5,0-1,0.2-1.4,0.5
					c-0.7,0.4-1.1,1.1-1.1,2l0,42.6c0,2.6-2.1,4.7-4.8,4.7c-2.6,0-4.7-2.1-4.7-4.8l0-42.6c0-0.4-0.1-0.8-0.3-1.1
					c-0.2-0.4-0.5-0.7-0.8-0.9c-0.4-0.3-0.8-0.5-1.4-0.5c-0.3,0-0.6,0.1-0.9,0.2c-0.2,0.1-0.3,0.2-0.5,0.3c-0.7,0.5-1.1,1.2-1.1,2.1
					l-0.1,34.2c0,2.9-2.4,5.3-5.3,5.3c-2.9,0-5.3-2.4-5.3-5.3l0.1-34.2c0-0.1,0-0.1,0-0.2c0-0.1,0-0.1,0-0.2l0-11.9
					c0-1.3-1.1-2.4-2.4-2.4c-1.3,0-2.4,1.1-2.4,2.4l0,11.7c0,0,0,0,0,0v5.3c0,0.3,0,0.6-0.1,0.9c-0.5,2.2-2.4,3.8-4.7,3.8h-0.4
					c-2.6,0-4.8-2.1-4.8-4.8v-10.7l0-12l0-0.1c0-0.2,0-0.4,0-0.6l0-0.1l0,0c0-0.2,0-0.4,0-0.6c0-0.5,0.1-1,0.1-1.5
					c0.1-0.8,0.2-1.7,0.3-2.7c1.2-8.4,4.2-20.7,7.1-27.9c0.4-0.9,2.2-3,2.6-3.7c0.5-1-0.5-111.1,0-111.7c0.5-0.6,45-0.7,45.5-0.1
					c0.5,0.6-0.4,111.1,0.1,112.1c0.4,0.7,2.2,2.5,2.6,3.4c2.1,5,4.1,12.4,5.2,18.6c0.2,1,0.3,1.9,0.5,2.8c0.2,1.7,0.4,3.2,0.4,4.5
					c0,0.3,0,0.6,0,0.9L378.3,207.6z"/>
			</g>
		</g>
	</g>
</g>
<g>
	<g>
		<g>
			<g>
				<path class="st19" d="M326,204.5c0.4,0.4,0.9,0.7,1.5,0.7c12.5,0.7,21.9-2.2,28.1-8.7c8.8-9.3,7.4-22.5,7.3-23.1
					c-0.2-1.3-1.3-2.2-2.6-2.1c-1.3,0.2-2.2,1.3-2.1,2.6l0,0c0,0.1,1.2,11.6-6.1,19.3c-5.1,5.4-13.3,7.8-24.3,7.2
					c-1.3-0.1-2.4,0.9-2.5,2.2C325.3,203.4,325.5,204.1,326,204.5z"/>
			</g>
		</g>
	</g>
</g>
<g>
	<g>
		<g>
			<path class="st20" d="M376,39.1c0-2.6-2.1-4.7-4.7-4.7l-49.7,0.1c-2.6,0-4.7,2.1-4.7,4.7l0,12.8c0,2.6,2.1,4.7,4.7,4.7l49.7-0.1
				c2.6,0,4.7-2.1,4.7-4.7L376,39.1z"/>
		</g>
	</g>
</g>
<g>
	<g>
		<path class="st2" d="M263.1,246.2h-4.8l-0.1-22.7c0-8,6.6-14.5,14.6-14.5c8,0,14.5,6.5,14.5,14.5v4.5h-4.8v-4.5
			c0-5.4-4.4-9.8-9.8-9.8c-5.4,0-8.8,4.6-8.8,10L263.1,246.2z"/>
	</g>
</g>
<g>
	<g>
		<path class="st2" d="M296.7,247c-7.7,0-14-6.3-14-14v-6.8h4.8v6.8c0,5.1,4.1,9.2,9.2,9.2c5.1,0,9.2-4.1,9.2-9.2V113.4h4.8v119.7
			C310.7,240.8,304.4,247,296.7,247z"/>
	</g>
</g>
<g>
	<g>
		<path class="st2" d="M310.7,116.6h-4.8V91.1c0-12.3,10-22.3,22.3-22.3c12.3,0,22.3,10,22.3,22.3v14.6h-4.8V91.1
			c0-9.7-7.9-17.6-17.6-17.6c-9.7,0-17.6,7.9-17.6,17.6V116.6z"/>
	</g>
</g>
<g>
	<path class="st2" d="M349.3,133.3c0,0.6-0.5,1.1-1.1,1.1l0,0c-0.6,0-1.1-0.5-1.1-1.1V119c0-0.6,0.5-1.1,1.1-1.1l0,0
		c0.6,0,1.1,0.5,1.1,1.1V133.3z"/>
</g>
<g>
	<path class="st3" d="M361.9,111c0,7.6-6.1,13.7-13.7,13.7c-7.6,0-13.7-6.1-13.7-13.7c0-7.6,6.1-13.7,13.7-13.7
		C355.7,97.4,361.9,103.5,361.9,111z"/>
</g>
<g>
	<path class="st0" d="M358.3,136.3c0,1.8-1.5,3.2-3.3,3.2h-13.7c-1.8,0-3.2-1.5-3.2-3.2v-3.7c0-1.8,1.5-3.3,3.2-3.3H355
		c1.8,0,3.3,1.5,3.3,3.3V136.3z"/>
</g>
<path class="st2" d="M215.6,281.6c-27.4,0-55.8-14.4-55.8-38.6v-29.5h5.7v29.5c0,20.6,25.5,33,50.1,33c11.7,0,22.4-2.9,29.9-8.1
	c8.5-5.9,12.8-14.2,12.8-24.9v-16.6h5.7v16.6c0,12.5-5.3,22.7-15.3,29.6C240.2,278.3,228.4,281.6,215.6,281.6z"/>
<g>
	<defs>
		<rect id="SVGID_1_" x="518.9" y="29.9" width="505.2" height="267.1"/>
	</defs>
	<clipPath id="SVGID_2_">
		<use xlink:href="#SVGID_1_"  style="overflow:visible;"/>
	</clipPath>
	<g class="st21">
		<g>
			
				<image style="overflow:visible;" width="2446" height="737" xlink:href="650CA2B5.png"  transform="matrix(0.24 0 0 0.24 486.8394 28.8151)">
			</image>
		</g>
		<g>
			
				<image style="overflow:visible;" width="2855" height="696" xlink:href="650CA2B7.png"  transform="matrix(0.24 0 0 0.24 418.9194 13.9351)">
			</image>
		</g>
		<path class="st13" d="M1080.9,152.8c0,0-53.7-66.3-222.8-40.6s-332.2,109.9-424.7,2c0,0-3-87.1,0-87.1s656.4,0,656.4,0
			L1080.9,152.8z"/>
	</g>
</g>
</svg>
