<?xml version="1.0" encoding="utf-8"?>
<!-- Generator: Adobe Illustrator 22.0.0, SVG Export Plug-In . SVG Version: 6.00 Build 0)  -->
<svg version="1.1" id="Capa_1" xmlns="http://www.w3.org/2000/svg" xmlns:xlink="http://www.w3.org/1999/xlink" x="0px" y="0px"
	 viewBox="0 0 500 300" style="enable-background:new 0 0 500 300;" xml:space="preserve">
<style type="text/css">
	.st0{fill:#E6EFF0;}
	.st1{fill:#D5E5E6;}
	.st2{fill:#FDDA89;}
	.st3{fill:#FFFFFF;}
	.st4{fill:#556566;}
	.st5{fill:#D53D33;}
	.st6{fill:#EFF4FF;}
	.st7{fill:#C6DBFF;}
	.st8{fill:#F1CEB7;}
	.st9{fill:#FF546D;}
	.st10{fill:#413F84;}
	.st11{fill:#D5B6A2;}
	.st12{fill:#DFEBFF;}
	.st13{fill:#FA0008;}
	.st14{fill:#FF8B9D;}
	.st15{opacity:0.7;fill:#FA0008;}
	.st16{fill:#050521;}
	.st17{opacity:0.7;}
	.st18{fill:#FEDCB7;}
	.st19{fill:#FEC29E;}
	.st20{fill:#354546;}
	.st21{clip-path:url(#SVGID_2_);}
	.st22{fill:#CB0909;}
	.st23{fill:#DA0505;}
	.st24{fill:#E70505;}
</style>
<g>
	<g>
		<g>
			<path class="st0" d="M231.9,212.6c0,17.7-14.4,32.1-32.1,32.1h-66.6c-17.7,0-32.1-14.4-32.1-32.1V92.9
				c0-17.7,14.4-32.1,32.1-32.1h66.6c17.7,0,32.1,14.4,32.1,32.1V212.6z"/>
		</g>
	</g>
	<g>
		<g>
			<path class="st1" d="M221.2,102.1v100.1c0,14.8-12,26.9-26.9,26.9h-55.8c-14.9,0-26.9-12-26.9-26.9V102.1
				c0-14.9,12-26.9,26.9-26.9h55.8C209.2,75.3,221.2,87.3,221.2,102.1z"/>
		</g>
	</g>
	<g>
		<g>
			<rect x="134.7" y="39.9" class="st0" width="14.5" height="35.3"/>
		</g>
	</g>
	<g>
		<g>
			<rect x="181.8" y="39.9" class="st0" width="14.5" height="35.3"/>
		</g>
	</g>
	<g>
		<g>
			<rect x="158" y="27.9" class="st0" width="14.4" height="47.4"/>
		</g>
	</g>
	<g>
		<g>
			<path class="st2" d="M221.2,114.6v87.6c0,14.8-12,26.9-26.9,26.9h-55.8c-14.9,0-26.9-12-26.9-26.9v-87.6H221.2z"/>
		</g>
	</g>
	<g>
		<g>
			<path class="st3" d="M210.3,201.3c0,2.7-2.9,4.9-6.5,4.9h-76.9c-3.6,0-6.5-2.2-6.5-4.9v-57.9c0-2.7,2.9-4.9,6.5-4.9h76.9
				c3.6,0,6.5,2.2,6.5,4.9V201.3z"/>
		</g>
	</g>
	<g>
		<g>
			<rect x="120.4" y="178.8" class="st4" width="89.9" height="1.6"/>
		</g>
	</g>
	<g>
		<g>
			<path class="st3" d="M216.9,129.4c0,1.7-2.4,3.1-5.3,3.1l0,0c-2.9,0-5.3-1.4-5.3-3.1V101c0-1.7,2.4-3.1,5.3-3.1l0,0
				c2.9,0,5.3,1.4,5.3,3.1V129.4z"/>
		</g>
	</g>
	<g>
		<path class="st1" d="M150.7,44.3c0,1.4-1.2,2.6-2.6,2.6h-12.2c-1.4,0-2.6-1.2-2.6-2.6v-3.9c0-1.4,1.2-2.6,2.6-2.6h12.2
			c1.4,0,2.6,1.2,2.6,2.6V44.3z"/>
	</g>
	<g>
		<path class="st1" d="M197.7,44.3c0,1.4-1.2,2.6-2.6,2.6h-12.2c-1.4,0-2.6-1.2-2.6-2.6v-3.9c0-1.4,1.2-2.6,2.6-2.6h12.2
			c1.4,0,2.6,1.2,2.6,2.6V44.3z"/>
	</g>
	<g>
		<path class="st1" d="M174,248.2c0,1.4-1.2,2.6-2.6,2.6h-12.2c-1.4,0-2.6-1.2-2.6-2.6v-3.9c0-1.4,1.2-2.6,2.6-2.6h12.2
			c1.4,0,2.6,1.2,2.6,2.6V248.2z"/>
	</g>
	<g>
		<path class="st1" d="M174,33.6c0,1.4-1.2,2.6-2.6,2.6h-12.2c-1.4,0-2.6-1.2-2.6-2.6v-3.9c0-1.4,1.2-2.6,2.6-2.6h12.2
			c1.4,0,2.6,1.2,2.6,2.6V33.6z"/>
	</g>
	<g>
		<path class="st4" d="M125.5,174.5v-13.3h2.7l0.2,1h0.1c0.3-0.4,0.6-0.6,1-0.8c0.4-0.2,0.9-0.3,1.5-0.3c0.7,0,1.4,0.2,2,0.5
			c0.6,0.3,1.1,0.8,1.4,1.5c0.4,0.7,0.5,1.6,0.5,2.7c0,1.1-0.2,2-0.6,2.8s-1,1.3-1.8,1.7s-1.8,0.6-2.9,0.6c-0.2,0-0.3,0-0.5,0
			s-0.3,0-0.5,0v3.7H125.5z M129.7,168.4c0.7,0,1.2-0.2,1.5-0.5c0.3-0.4,0.5-1,0.5-1.9c0-0.6-0.1-1.1-0.2-1.4
			c-0.1-0.3-0.3-0.6-0.6-0.7c-0.3-0.1-0.5-0.2-0.9-0.2c-0.2,0-0.5,0-0.7,0.1c-0.2,0.1-0.4,0.2-0.6,0.3v4.2c0.1,0,0.3,0,0.4,0.1
			C129.4,168.4,129.5,168.4,129.7,168.4z"/>
		<path class="st4" d="M136.4,170.7v-13.9h3.2v13.9H136.4z"/>
		<path class="st4" d="M144.2,170.9c-1,0-1.8-0.3-2.3-0.8c-0.5-0.5-0.8-1.2-0.8-2c0-0.9,0.3-1.6,1-2.1s1.7-0.8,3.1-0.9l1.8-0.1
			l0.4,1.7l-1.8,0.1c-0.4,0-0.8,0.1-1,0.3c-0.2,0.2-0.3,0.4-0.3,0.7c0,0.3,0.1,0.5,0.3,0.7c0.2,0.2,0.4,0.2,0.8,0.2
			c0.2,0,0.4,0,0.6-0.1s0.4-0.2,0.6-0.3v-3.2c0-0.4-0.1-0.7-0.2-0.9c-0.1-0.2-0.3-0.4-0.6-0.5s-0.7-0.1-1.2-0.1
			c-0.4,0-0.8,0-1.2,0.1s-0.9,0.2-1.3,0.3v-2.4c0.5-0.1,1-0.2,1.6-0.3s1.1-0.1,1.6-0.1c1.1,0,2,0.1,2.6,0.4c0.7,0.3,1.2,0.7,1.5,1.3
			s0.5,1.4,0.5,2.5v5.4H147l-0.2-0.9h-0.1c-0.3,0.4-0.6,0.7-1,0.8S144.7,170.9,144.2,170.9z"/>
		<path class="st4" d="M157.3,174.5v-4.7h-0.1c-0.3,0.3-0.6,0.6-1,0.8c-0.4,0.2-0.9,0.3-1.4,0.3c-0.7,0-1.3-0.2-1.8-0.5
			c-0.6-0.3-1-0.8-1.3-1.5c-0.3-0.7-0.5-1.6-0.5-2.7c0-1.7,0.5-2.9,1.4-3.8s2.3-1.3,4.2-1.3c0.4,0,0.9,0,1.3,0.1
			c0.5,0,0.9,0.1,1.4,0.2c0.4,0.1,0.8,0.2,1.2,0.3v12.9H157.3z M156,168.2c0.2,0,0.4,0,0.7-0.1c0.2-0.1,0.4-0.2,0.6-0.3v-4.3
			c-0.1,0-0.3-0.1-0.4-0.1c-0.2,0-0.3,0-0.5,0c-0.7,0-1.2,0.2-1.5,0.5c-0.4,0.4-0.5,1-0.5,1.9c0,0.6,0.1,1.1,0.2,1.4
			c0.1,0.3,0.3,0.6,0.6,0.7C155.3,168.2,155.6,168.2,156,168.2z"/>
		<path class="st4" d="M165.6,170.9c-0.6,0-1.2-0.1-1.7-0.4s-0.9-0.7-1.2-1.2c-0.3-0.6-0.4-1.3-0.4-2.2v-5.8h3.2v5.6
			c0,0.5,0.1,0.8,0.3,1c0.2,0.2,0.5,0.3,0.8,0.3c0.2,0,0.3,0,0.5-0.1s0.3-0.1,0.5-0.2s0.3-0.2,0.4-0.3v-6.2h3.3v9.5h-2.7l-0.2-0.9
			h-0.1c-0.3,0.4-0.7,0.6-1.2,0.8C166.6,170.8,166.1,170.9,165.6,170.9z"/>
		<path class="st4" d="M178.1,170.9c-1.3,0-2.3-0.2-3.1-0.5c-0.8-0.3-1.4-0.9-1.8-1.6c-0.4-0.7-0.6-1.7-0.6-2.8c0-1,0.2-1.9,0.5-2.6
			c0.4-0.7,0.9-1.3,1.6-1.7s1.5-0.6,2.5-0.6c0.9,0,1.7,0.2,2.4,0.6c0.6,0.4,1.1,1,1.4,1.7c0.3,0.7,0.5,1.6,0.5,2.7v0.8h-7v-1.8h4.5
			l-0.5,0.2c0-0.5,0-0.9-0.1-1.3s-0.2-0.5-0.4-0.7c-0.2-0.1-0.4-0.2-0.7-0.2c-0.3,0-0.5,0.1-0.7,0.2c-0.2,0.1-0.3,0.3-0.4,0.7
			s-0.1,0.7-0.1,1.3v1.3c0,0.5,0.1,0.9,0.2,1.1c0.1,0.3,0.4,0.5,0.8,0.6c0.4,0.1,0.9,0.2,1.7,0.2c0.4,0,0.8,0,1.2-0.1
			c0.4,0,0.8-0.1,1.2-0.2v2.4c-0.5,0.1-1,0.2-1.5,0.2S178.6,170.9,178.1,170.9z"/>
		<path class="st4" d="M182,163.8v-2.5h7v2.5H182z M187.1,170.9c-1.2,0-2.1-0.3-2.8-0.9c-0.6-0.6-1-1.5-1-2.8v-5.9l0.6-3.3h2.6v8.7
			c0,0.6,0.1,1,0.3,1.2c0.2,0.2,0.6,0.3,1.1,0.3c0.1,0,0.3,0,0.4,0s0.3,0,0.5-0.1v2.5c-0.3,0.1-0.5,0.1-0.9,0.2
			C187.8,170.9,187.5,170.9,187.1,170.9z"/>
		<path class="st4" d="M193,170.9c-1,0-1.8-0.3-2.3-0.8c-0.5-0.5-0.8-1.2-0.8-2c0-0.9,0.3-1.6,1-2.1s1.7-0.8,3.1-0.9l1.8-0.1
			l0.4,1.7l-1.8,0.1c-0.4,0-0.8,0.1-1,0.3c-0.2,0.2-0.3,0.4-0.3,0.7c0,0.3,0.1,0.5,0.3,0.7c0.2,0.2,0.4,0.2,0.8,0.2
			c0.2,0,0.4,0,0.6-0.1s0.4-0.2,0.6-0.3v-3.2c0-0.4-0.1-0.7-0.2-0.9c-0.1-0.2-0.3-0.4-0.6-0.5s-0.7-0.1-1.2-0.1
			c-0.4,0-0.8,0-1.2,0.1s-0.9,0.2-1.3,0.3v-2.4c0.5-0.1,1-0.2,1.6-0.3s1.1-0.1,1.6-0.1c1.1,0,2,0.1,2.6,0.4c0.7,0.3,1.2,0.7,1.5,1.3
			s0.5,1.4,0.5,2.5v5.4h-2.7l-0.2-0.9h-0.1c-0.3,0.4-0.6,0.7-1,0.8S193.5,170.9,193,170.9z"/>
		<path class="st4" d="M203.2,170.9c-0.6,0-1.1,0-1.7-0.1c-0.5-0.1-1-0.2-1.5-0.3v-2.3c0.5,0.1,1,0.2,1.5,0.3
			c0.5,0.1,1.1,0.1,1.6,0.1c0.6,0,0.9-0.1,1.2-0.2c0.2-0.1,0.3-0.3,0.3-0.5c0-0.2,0-0.3-0.1-0.4c-0.1-0.1-0.3-0.1-0.5-0.2l-1.6-0.3
			c-0.9-0.2-1.6-0.5-2-0.9c-0.4-0.5-0.6-1.1-0.6-1.9c0-0.9,0.4-1.7,1.2-2.3c0.8-0.6,2-0.9,3.5-0.9c0.5,0,1,0,1.4,0.1
			c0.5,0.1,0.9,0.1,1.2,0.2v2.3c-0.4-0.1-0.8-0.2-1.2-0.2c-0.4-0.1-0.9-0.1-1.3-0.1c-0.5,0-0.9,0-1.1,0.1c-0.3,0.1-0.4,0.2-0.5,0.3
			c-0.1,0.1-0.1,0.2-0.1,0.4c0,0.1,0,0.3,0.1,0.3c0.1,0.1,0.3,0.2,0.5,0.2l1.6,0.3c0.8,0.1,1.5,0.4,1.9,0.8c0.4,0.4,0.7,1.1,0.7,1.9
			c0,1-0.4,1.7-1.2,2.3C205.6,170.6,204.6,170.9,203.2,170.9z"/>
	</g>
</g>
<g class="st17">
	<g>
		<rect x="458.4" y="68.1" class="st13" width="6.2" height="17.4"/>
		<rect x="452.9" y="73.6" class="st13" width="17.4" height="6.2"/>
	</g>
</g>
<g class="st17">
	<g>
		<rect x="65.1" y="162.1" class="st13" width="6.2" height="17.4"/>
		<rect x="59.6" y="167.6" class="st13" width="17.4" height="6.2"/>
	</g>
</g>
<path class="st15" d="M428.8,164.9h-7.4c-0.6,0-1-0.4-1-1v-5.5h-5.5c-0.6,0-1-0.4-1-1V150c0-0.6,0.4-1,1-1h5.5v-5.5c0-0.6,0.4-1,1-1
	h7.4c0.6,0,1,0.4,1,1v5.5h5.5c0.6,0,1,0.4,1,1v7.4c0,0.6-0.4,1-1,1h-5.5v5.5C429.8,164.5,429.4,164.9,428.8,164.9z M422.5,162.9h5.4
	v-5.5c0-0.6,0.4-1,1-1h5.5V151h-5.5c-0.6,0-1-0.4-1-1v-5.5h-5.4v5.5c0,0.6-0.4,1-1,1h-5.5v5.4h5.5c0.6,0,1,0.4,1,1V162.9z"/>
<path class="st15" d="M45.1,269.6h-4.4c-0.6,0-1-0.4-1-1v-2.9h-2.9c-0.6,0-1-0.4-1-1v-4.4c0-0.6,0.4-1,1-1h2.9v-2.9c0-0.6,0.4-1,1-1
	h4.4c0.6,0,1,0.4,1,1v2.9H49c0.6,0,1,0.4,1,1v4.4c0,0.6-0.4,1-1,1h-2.9v2.9C46.1,269.2,45.7,269.6,45.1,269.6z M41.7,267.6h2.4v-2.9
	c0-0.6,0.4-1,1-1H48v-2.4h-2.9c-0.6,0-1-0.4-1-1v-2.9h-2.4v2.9c0,0.6-0.4,1-1,1h-2.9v2.4h2.9c0.6,0,1,0.4,1,1V267.6z"/>
<polygon class="st15" points="484.2,204 480.3,204 480.3,200.1 475.9,200.1 475.9,204 472,204 472,208.4 475.9,208.4 475.9,212.3 
	480.3,212.3 480.3,208.4 484.2,208.4 "/>
<polygon class="st15" points="37.5,60 33.6,60 33.6,56.1 29.2,56.1 29.2,60 25.3,60 25.3,64.4 29.2,64.4 29.2,68.3 33.6,68.3 
	33.6,64.4 37.5,64.4 "/>
<g>
	<g>
		<g>
			<g>
				<path class="st18" d="M382.3,212.4c0,0.1,0,0.2,0,0.3l0,11.1l0,0l0,27c0,1.5-1.3,2.8-2.8,2.8c-1.5,0-2.8-1.2-2.8-2.8l0-25.6
					c0-0.2,0-0.4-0.1-0.6c-0.2-1-1.1-1.8-2.2-1.9c-0.1,0-0.1,0-0.2,0c-0.4,0-0.8,0.1-1.1,0.3c-0.8,0.4-1.4,1.2-1.4,2.2l0,38.1
					c0,2.6-2.1,4.7-4.7,4.7c-2.6,0-4.7-2.1-4.7-4.7l0-38.1c0-0.9-0.5-1.6-1.1-2c-0.4-0.3-0.8-0.5-1.3-0.5c-0.5,0-1,0.2-1.4,0.5
					c-0.7,0.4-1.1,1.1-1.1,2l0,42.6c0,2.6-2.1,4.7-4.8,4.7c-2.6,0-4.7-2.1-4.7-4.8l0-42.6c0-0.4-0.1-0.8-0.3-1.1
					c-0.2-0.4-0.5-0.7-0.8-0.9c-0.4-0.3-0.8-0.5-1.4-0.5c-0.3,0-0.6,0.1-0.9,0.2c-0.2,0.1-0.3,0.2-0.5,0.3c-0.7,0.5-1.1,1.2-1.1,2.1
					l-0.1,34.2c0,2.9-2.4,5.3-5.3,5.3c-2.9,0-5.3-2.4-5.3-5.3l0.1-34.2c0-0.1,0-0.1,0-0.2c0-0.1,0-0.1,0-0.2l0-11.9
					c0-1.3-1.1-2.4-2.4-2.4c-1.3,0-2.4,1.1-2.4,2.4l0,11.7c0,0,0,0,0,0v5.3c0,0.3,0,0.6-0.1,0.9c-0.5,2.2-2.4,3.8-4.7,3.8h-0.4
					c-2.6,0-4.8-2.1-4.8-4.8v-10.7l0-12l0-0.1c0-0.2,0-0.4,0-0.6l0-0.1l0,0c0-0.2,0-0.4,0-0.6c0-0.5,0.1-1,0.1-1.5
					c0.1-0.8,0.2-1.7,0.3-2.7c1.2-8.4,4.2-20.7,7.1-27.9c0.4-0.9,2.2-3,2.6-3.7c0.5-1-0.5-111.1,0-111.7c0.5-0.6,45-0.7,45.5-0.1
					c0.5,0.6-0.4,111.1,0.1,112.1c0.4,0.7,2.2,2.5,2.6,3.4c2.1,5,4.1,12.4,5.2,18.6c0.2,1,0.3,1.9,0.5,2.8c0.2,1.7,0.4,3.2,0.4,4.5
					c0,0.3,0,0.6,0,0.9L382.3,212.4z"/>
			</g>
		</g>
	</g>
</g>
<g>
	<g>
		<g>
			<g>
				<path class="st19" d="M330,209.4c0.4,0.4,0.9,0.7,1.5,0.7c12.5,0.7,21.9-2.2,28.1-8.7c8.8-9.3,7.4-22.5,7.3-23.1
					c-0.2-1.3-1.3-2.2-2.6-2.1c-1.3,0.2-2.2,1.3-2.1,2.6l0,0c0,0.1,1.2,11.6-6.1,19.3c-5.1,5.4-13.3,7.8-24.3,7.2
					c-1.3-0.1-2.4,0.9-2.5,2.2C329.3,208.3,329.5,208.9,330,209.4z"/>
			</g>
		</g>
	</g>
</g>
<g>
	<g>
		<g>
			<path class="st20" d="M380,43.9c0-2.6-2.1-4.7-4.7-4.7l-49.7,0.1c-2.6,0-4.7,2.1-4.7,4.7l0,12.8c0,2.6,2.1,4.7,4.7,4.7l49.7-0.1
				c2.6,0,4.7-2.1,4.7-4.7L380,43.9z"/>
		</g>
	</g>
</g>
<g>
	<g>
		<path class="st2" d="M267.1,251h-4.8l-0.1-22.7c0-8,6.6-14.5,14.6-14.5c8,0,14.5,6.5,14.5,14.5v4.5h-4.8v-4.5
			c0-5.4-4.4-9.8-9.8-9.8c-5.4,0-8.8,4.6-8.8,10L267.1,251z"/>
	</g>
</g>
<g>
	<g>
		<path class="st2" d="M300.7,251.9c-7.7,0-14-6.3-14-14v-6.8h4.8v6.8c0,5.1,4.1,9.2,9.2,9.2c5.1,0,9.2-4.1,9.2-9.2V118.2h4.8v119.7
			C314.7,245.6,308.4,251.9,300.7,251.9z"/>
	</g>
</g>
<g>
	<g>
		<path class="st2" d="M314.7,121.4h-4.8V95.9c0-12.3,10-22.3,22.3-22.3c12.3,0,22.3,10,22.3,22.3v14.6h-4.8V95.9
			c0-9.7-7.9-17.6-17.6-17.6c-9.7,0-17.6,7.9-17.6,17.6V121.4z"/>
	</g>
</g>
<g>
	<path class="st2" d="M353.3,138.2c0,0.6-0.5,1.1-1.1,1.1l0,0c-0.6,0-1.1-0.5-1.1-1.1v-14.3c0-0.6,0.5-1.1,1.1-1.1l0,0
		c0.6,0,1.1,0.5,1.1,1.1V138.2z"/>
</g>
<g>
	<path class="st3" d="M365.9,115.9c0,7.6-6.1,13.7-13.7,13.7c-7.6,0-13.7-6.1-13.7-13.7c0-7.6,6.1-13.7,13.7-13.7
		C359.7,102.2,365.9,108.3,365.9,115.9z"/>
</g>
<g>
	<path class="st0" d="M362.3,141.1c0,1.8-1.5,3.2-3.3,3.2h-13.7c-1.8,0-3.2-1.5-3.2-3.2v-3.7c0-1.8,1.5-3.3,3.2-3.3H359
		c1.8,0,3.3,1.5,3.3,3.3V141.1z"/>
</g>
<path class="st2" d="M219.6,286.4c-27.4,0-55.8-14.4-55.8-38.6v-29.5h5.7v29.5c0,20.6,25.5,33,50.1,33c11.7,0,22.4-2.9,29.9-8.1
	c8.5-5.9,12.8-14.2,12.8-24.9v-16.6h5.7v16.6c0,12.5-5.3,22.7-15.3,29.6C244.2,283.2,232.4,286.4,219.6,286.4z"/>
</svg>
