<?xml version="1.0" encoding="utf-8"?>
<!-- Generator: Adobe Illustrator 22.0.0, SVG Export Plug-In . SVG Version: 6.00 Build 0)  -->
<svg version="1.1" id="Capa_1" xmlns="http://www.w3.org/2000/svg" xmlns:xlink="http://www.w3.org/1999/xlink" x="0px" y="0px"
	 viewBox="0 0 500 300" style="enable-background:new 0 0 500 300;" xml:space="preserve">
<style type="text/css">
	.st0{fill:#E6EFF0;}
	.st1{fill:#D5E5E6;}
	.st2{fill:#FDDA89;}
	.st3{fill:#FFFFFF;}
	.st4{fill:#556566;}
	.st5{fill:#D53D33;}
	.st6{fill:#EFF4FF;}
	.st7{fill:#C6DBFF;}
	.st8{fill:#F1CEB7;}
	.st9{fill:#FF546D;}
	.st10{fill:#413F84;}
	.st11{fill:#D5B6A2;}
	.st12{fill:#DFEBFF;}
	.st13{fill:#FA0008;}
	.st14{fill:#FF8B9D;}
	.st15{opacity:0.7;fill:#FA0008;}
	.st16{fill:#050521;}
	.st17{opacity:0.7;}
	.st18{fill:#FEDCB7;}
	.st19{fill:#FEC29E;}
	.st20{fill:#354546;}
	.st21{clip-path:url(#SVGID_2_);}
	.st22{fill:#CB0909;}
	.st23{fill:#DA0505;}
	.st24{fill:#E70505;}
</style>
<g>
	<g>
		<path class="st6" d="M94.1,260.2c-5.7-6.9-12-13.8-14.8-22.4c-2.9-8-1.1-16.1,2.3-24.1c8-17.2,23.9-29.2,32.5-46.4
			c8-15.5,10.3-33.3,17.1-49.3c8.6-18.3,21.7-34.4,37.6-45.9c17.7-12,38.2-17.2,58.7-18.9c24.5-1.7,49,1.7,71.8,11.5
			c21.1,9.7,42.2,23.5,61,37.3c8.6,6.3,17.7,13.8,23.4,22.9c5.1,8.6,6.3,18.3,5.7,28.1c-2.3,20.1-10.3,39-4,59.1
			c4.6,14.9,15.4,27.5,15.4,43.6c0,3.4-0.4,4.6-1,7.5c0,0-98.6-0.2-123.1-0.2C252.2,263,94.1,260.2,94.1,260.2z"/>
		<g>
			<path class="st7" d="M89.7,260.8c12.5-0.7,25.2-0.3,37.8,0c11.7,0.3,23.3,0.8,35,0.8c21.1,0.1,42.2,0.6,63.3,1.1
				c17.4,0.4,34.7,0.8,52.1,0.5c18.8-0.3,37.6-0.2,56.3-0.2c20.3,0,40.5,0.1,60.8,0.1c3.4,0,6.8,0,10.2-0.1c0.3,0,0.3-0.5,0-0.5
				c-14.7,0.5-29.4,0.1-44,0.1c-22.1,0-44.1-0.1-66.2,0c-13.8,0-27.5,0.4-41.3,0.2c-24.2-0.4-48.5-1.2-72.7-1.6
				c-8-0.1-16.1,0-24.1-0.2c-12.9-0.2-25.9-0.7-38.8-0.9c-9.5-0.2-18.9-0.3-28.4,0.2C89.3,260.3,89.3,260.8,89.7,260.8L89.7,260.8z"
				/>
		</g>
	</g>
	<g>
		<path class="st8" d="M369,250.4c-1.4-2.2-3-5.1-4.6-7.8c-1.5,1.1-2.9,2.1-4.4,3.2c2,3.1,4.2,6.4,5.3,8.8c1.9,4.2,1.4,8.4,1,8.9
			c-0.4,0.5-1.9,2.1-1.9,2.1l3.5-1.6l4.9-8.3C372.9,255.7,370.8,253.3,369,250.4z"/>
		<path class="st9" d="M366.2,259.8c0.7-0.6,2.5-0.5,3.1,0.2c1.4-3,2.8-5.8,2.8-5.8c1.7,1.4,2.8,2.4,1.8,3.7
			c-1.5,1.9-4.6,6.7-6.2,7.6c-3.9,2.1-8,1.7-5.1,0.2c2.7-1.4,3.1-2.4,3.3-3.5C366.2,261.1,366.2,259.8,366.2,259.8z"/>
		<g>
			<path d="M370.3,253.4c0.2,0.5,0.3,1,0.3,1.5c0,0.3,0.5,0.3,0.5,0c0-0.6-0.1-1.1-0.3-1.6C370.6,252.9,370.1,253.1,370.3,253.4
				L370.3,253.4z"/>
		</g>
		<path class="st8" d="M342.5,240.4c0.2,2.4,1.9,12.5,2.2,17.2c0.3,4.6-1.7,5.9-4.8,8.1c4.6,2,10.5-1.5,10.5-1.7
			c-0.4-2.9-0.8-9.6-0.3-14.3c0.5-4.8,0.4-10.5,0.4-10.5L342.5,240.4z"/>
		<path class="st9" d="M342.2,263.2c0.9,0,2.3,1.1,2.3,2.1c2.9-1.6,5.8-2.9,5.8-2.9c0.5,2.1,0.8,3.6-0.8,4
			c-2.3,0.6-9.6,1.6-11.4,1.9c-1.8,0.2-5.8,0.5-2.9-0.9c2.9-1.4,4.5-1.7,5.3-2.4C341.4,264.3,342.2,263.2,342.2,263.2z"/>
		<g>
			<path d="M348.8,260c0,0.7-0.2,1.4-0.5,2c-0.1,0.3,0.3,0.6,0.4,0.3c0.4-0.7,0.6-1.5,0.6-2.3C349.3,259.7,348.8,259.7,348.8,260
				L348.8,260z"/>
		</g>
		<path class="st10" d="M335.1,181.3c-0.3,6.7-0.1,30.8,2.6,41.5c2.7,10.7,5.4,28.1,5.8,29.8c3.1,0.7,7.1,0.3,7.6-0.1
			c0.3-3.4-1.4-19.4-1.4-19.4c3.6,4,9.8,15.3,10.8,16c0.9,1.2,7.5-2.9,7.3-3.7c-1.1-4.1-13.3-27.2-13.8-34.2
			c-0.6-7,3.7-23.1,2.1-32.9C354.8,172.9,335.1,181.3,335.1,181.3z"/>
		<g>
			<path d="M346.4,181.1c-0.1,1.8,0.4,3.9,1.5,5.4c0.7,0.9,2.3,2,3.5,1.4c0.3-0.1,0-0.6-0.3-0.4c-1.2,0.6-2.7-1.1-3.2-2
				c-0.7-1.3-1-3-1-4.4C347,180.8,346.4,180.8,346.4,181.1L346.4,181.1z"/>
		</g>
		<g>
			<path d="M337.2,182.1c0,2.1,0.1,4.1,0.2,6.2c0,0.1,0.1,0.3,0.3,0.3c0.9,0,1.9,0.3,2-0.8c0.1-0.9-0.1-1.8-0.1-2.7
				c0-1.1,0.2-2.1,0.2-3.2c-0.1,0.1-0.2,0.2-0.3,0.3c0,0,0,0,0.1,0c-0.1-0.1-0.1-0.3-0.2-0.4c0,0,0,0.1-0.1,0.1
				c-0.1,0.3,0.3,0.6,0.4,0.3c0,0,0-0.1,0.1-0.1c0.1-0.2,0-0.4-0.2-0.4c0,0,0,0-0.1,0c-0.1,0-0.3,0.1-0.3,0.3c0,1.4-0.2,2.7-0.2,4.1
				c0,0.6,0.1,1.2,0.1,1.8c0,0.5-1.2,0.3-1.5,0.3c0.1,0.1,0.2,0.2,0.3,0.3c-0.1-2.1-0.2-4.1-0.2-6.2
				C337.7,181.7,337.2,181.7,337.2,182.1L337.2,182.1z"/>
		</g>
		<path class="st11" d="M301.5,136.8c1.3,1.4,0.1,4.4,1.4,6.4c1.3,2,1.9,2.7,1.9,2.7l-3,1.8c0,0-4.8-5.5-4.8-6.3
			C297,140.6,301.5,136.8,301.5,136.8z"/>
		<path class="st10" d="M346.7,111.8c0.6-2.5,6.9-6.3,11.7,1c4.8,7.3,2.7,12,1,19.9c-1.6,8,1.9,9.4,2.6,11.5
			c0.9,1.1,0.2,1.7-0.8,1.3c1.4,1.5,0.1,4-4,1.9c0.4,1.4-2.6,0.9-5.6-2.9c-2.9-3.8-4.2-9.5-3.5-15.9c0.7-6.4,0.3-12.8-1.1-14.2
			C345.8,113.1,346.7,111.8,346.7,111.8z"/>
		<path class="st9" d="M344.4,112.3c0.8-0.6,2.1-1.1,2.4-0.6c0.4,0.4,1.3,3.1,1,3.5c-0.3,0.4-2.1,0.6-2.4,0.5
			C345,115.6,344.4,112.3,344.4,112.3z"/>
		<path class="st7" d="M309.6,96.5c-6.1-12.7-20-13.9-28.6-10.2c-4.1,1.7-3.5,1.3-3.5-1.3c0.1-2.7,0.7-6.6-3.3-6.8
			c-3.9-0.2-6.2-0.3-6.2-0.3c-2.3,0.2-8.3-0.8-8.6,1.7c-0.2,2.5,0.1,4.6,0.1,5.7c0,1.1,0.1,2.8-3.3,1.5c-3.5-1.3-18.1-2.7-26.9,8
			c-8.8,10.8-11.7,27.6,6,43.8c17.6,16.2,24.8,21,25.3,22.7c0.5,1.7,0.9,6.6,0.9,7.5c0.1,1.6,1.5,2.8,7.1,2.8c5.6,0,9.1-0.4,9.1-2.1
			c0.1-2.8,0-5.5,0.1-8.7c0-1.1,14.2-7,26.4-24C316.4,119.8,315.7,109.2,309.6,96.5z M269.2,88.5c-4.2-0.2-4.4,0-4.6-1.9
			c-0.2-1.9-0.1-4,0.3-4.3c0.4-0.3,1.5-0.3,3.4-0.2c3.2,0.2,4.3-0.1,4.2,2.1C272.4,87.7,272.9,88.6,269.2,88.5z"/>
		<path class="st12" d="M268.1,99.2c-4.9-7-25.4-14.7-36.7,4.6c-11.3,19.3,27.5,52.1,36.8,51.6c9.3-0.5,44.3-28.2,38.3-50.5
			c-4.5-16.7-26.5-17-35.3-7.2C270,99,269,100.7,268.1,99.2z"/>
		<path class="st8" d="M339.5,129.4c0,0,9-7.8,4.3-14.8c-2-4-9.2-7.8-14.4-3.2c-4.3,3.9-2.3,8.5-3.7,9c-1.3,0.5-2.3,0.6-2.3,0.8
			c0,0.2,1.6,1.5,2.2,2.1c-0.6,5.8,0.7,7.6,5.7,8.2c0.7,0.5,1.5,3.4,2.5,8c4.1,0.4,8.1-0.7,8.1-0.7L339.5,129.4z"/>
		<g>
			<path d="M329.2,120.9c0.4-0.3,0.5-0.9,0.3-1.3c-0.2-0.4-0.7-0.4-0.9,0c-0.2,0.3-0.2,0.8-0.1,1.1c0.2,0.4,0.6,0.4,0.9,0.1
				c0.4-0.5,0.2-1.9-0.6-1.6c-0.8,0.2-0.5,1.9,0.3,1.7c0.5-0.1,0.8-1.1,0.3-1.4c-0.3-0.2-0.6,0-0.7,0.3c-0.1,0.3,0.1,0.6,0.3,0.8
				c0.1,0.1,0.3,0,0.4-0.1c0.1-0.2,0.1-0.4,0-0.6c-0.2-0.3-0.6,0-0.4,0.3c0,0,0,0.1,0,0.1c0.1,0,0.2-0.1,0.4-0.1
				c-0.1-0.1-0.1-0.2-0.1-0.3c0,0,0,0-0.1,0c0,0,0,0.1,0,0.1c0,0.1-0.1,0.4-0.1,0.3c-0.1-0.2-0.2-0.4-0.1-0.6c0.1-0.2,0.1,0,0.2,0.1
				c0,0.2,0,0.4,0,0.6c0,0,0,0,0,0c-0.1,0-0.1-0.2-0.1-0.2c0-0.1,0-0.2,0-0.3c0-0.1,0.1-0.1,0.1-0.1c0.2,0,0.1,0.5,0,0.6
				C328.6,120.6,328.9,121.1,329.2,120.9L329.2,120.9z"/>
		</g>
		<g>
			<path d="M331.3,115.3c-0.6-0.5-1.2-1.1-2-1.3c-0.3-0.1-0.5,0.4-0.1,0.5c0.7,0.2,1.2,0.7,1.7,1.1
				C331.1,115.9,331.5,115.6,331.3,115.3L331.3,115.3z"/>
		</g>
		<g>
			<path d="M325.4,124.4c0.9,0.5,1.9,0.2,2.8-0.3c0.3-0.2,0-0.6-0.3-0.4c-0.7,0.4-1.5,0.8-2.2,0.3
				C325.3,123.8,325.1,124.3,325.4,124.4L325.4,124.4z"/>
		</g>
		<g>
			<path d="M325.3,126.6c1.2,0.5,2.3-1.4,2.8-2.3c0.2-0.3-0.3-0.5-0.4-0.3c-0.3,0.4-0.5,0.9-0.9,1.2c-0.3,0.4-0.8,1-1.4,0.8
				C325.1,126,325,126.5,325.3,126.6L325.3,126.6z"/>
		</g>
		<path class="st13" d="M303.9,122.6c-20.1-10.7-28.1,6.2-45.1,6.6c-14.4,0.4-22.3-5.6-27.3-7.2c10.7,23.3,32.7,32.5,33.4,32.7
			c2.3,0.8,1.9,4.2,1.9,6.5c0,4.8-0.2,5,2.6,5.1c3.9,0.1,3.7-0.4,3.6-6.3c-0.1-3.3,0.1-5.1,1-5.5C275,154.1,298.2,138.2,303.9,122.6
			z"/>
		<path class="st10" d="M329.2,111.2c0.1,0.9,3.4,2.2,4.8,2.5c0.5,0.7-0.9,3.5,1.6,5.1c2,1.3,1,1.1,0.9,2.6c-0.1,1.5-0.2,2.7,1.3,1
			c1.4-1.6,2.8-2.4,3.9-0.2c1.1,2.1-0.5,4.5-3.9,4.1c-0.5,0.4,1.2,3.5,1.7,3.4c0.5-0.1,6.6-2.3,7.1-9.6c0.5-7.3-4.4-10.4-8.3-11.3
			C334.4,108,329.7,109.9,329.2,111.2z"/>
		<path class="st8" d="M302,146.3c-1.2-1.5-1.5-2.3-2.4-3.4c-0.9-1-3.4-2.6-4.2-2.5c-0.8,0.1-0.6,1.1,1.2,2.4
			c-0.1,0.2-4.1-0.1-6.5-1.7c-2.4-1.5-2.4,0.4-1,1.2c-1.7-0.4-2,0.9-0.3,1.6c-0.8,0.2,0.2,1.4,1.1,1.6c-0.4,0.7,3.9,1.8,6,2
			c2.2,0.2,2.1,1.8,2.1,1.8l4-3.2"/>
		<g>
			<path d="M288.5,142.4c2,1.3,4.2,2.1,6.5,2.3c0.3,0,0.3-0.5,0-0.5c-2.3-0.1-4.3-1-6.3-2.2C288.5,141.7,288.2,142.2,288.5,142.4
				L288.5,142.4z"/>
		</g>
		<g>
			<path d="M288.5,144.1c1.3,0.6,2.7,1.1,4,1.4c0.5,0.1,1.6,0.5,2.2,0.2c0.3-0.2,0-0.6-0.3-0.4c-0.4,0.3-1.7-0.2-2.1-0.3
				c-1.2-0.3-2.5-0.8-3.6-1.3C288.4,143.5,288.2,144,288.5,144.1L288.5,144.1z"/>
		</g>
		<g>
			<path d="M289.4,145.7c1.3,0.5,2.7,0.9,4.1,1.1c0.3,0,0.3-0.5,0-0.5c-1.3-0.2-2.7-0.6-4-1.1C289.2,145,289.1,145.5,289.4,145.7
				L289.4,145.7z"/>
		</g>
		<path class="st9" d="M302.1,147.1c0.6-0.9,2-1.4,2.4-1.9c0.4-0.4,0.8,0.1,1.9,1.3c1.7-0.4,7.5,1.7,12,0.8
			c4.5-0.9,11.8-7.4,15.8-7.9c4-0.5-6.5,12.2-14,13.6C312.5,154.5,305.7,153.5,302.1,147.1z"/>
		<path class="st14" d="M297.8,149.5c0.9-1.7,3.9-3.4,4.3-3.2c0.4,0.2,2.1,1.8,2.1,1.8c2.5,0.4,9.4,3.2,14.8,1.9
			c5.3-1.4,10.1-8.6,13.5-11.5c3.5-2.9,9-2.8,10.8-1.4c1.9,1.4,6.3,7.3,10.2,21.6c3.9,14.3,4.8,18.9,4.6,19.6
			c-0.2,0.7-17.6,4.7-27.2,3.4c-0.6,0-0.8-0.4-0.8-2.5c0-2.1-1.1-13.5-1.8-17.6c-2.5,2.6-11,7.4-19.8,0.6c-8.8-6.8-9.7-8.8-9.2-9.8
			C298.4,151.1,297.6,149.8,297.8,149.5z"/>
		<g>
			<path d="M300,151.8c0.5-0.7,1.3-1.4,2-2c0.6-0.4,1.2-0.7,1.8-1.1c0.3-0.2-0.1-0.6-0.4-0.4c-0.3,0.2-0.7,0.4-1,0.6
				c-0.4,0.2-0.8,0.5-1.1,0.8c-0.6,0.5-1.2,1.2-1.7,1.8C299.3,151.8,299.8,152.1,300,151.8L300,151.8z"/>
		</g>
		<g>
			<path d="M328.3,162.2c3.5-2.1,6.6-5,9.2-8.2c0.2-0.3-0.2-0.6-0.4-0.4c-2.5,3.1-5.7,6-9.1,8.1C327.7,161.9,328,162.3,328.3,162.2
				L328.3,162.2z"/>
		</g>
		<g>
			<path d="M338.7,189.8c0,4.1,0,8.2,0.3,12.4c0.3,4,1,8,1.6,11.9c0.3,1.8,0.5,3.6,1,5.3c0.5,1.6,1.2,3,2,4.4
				c2,3.5,4.4,6.8,6.3,10.4c0.2,0.3,0.6,0,0.4-0.3c-1.8-3.3-3.9-6.5-5.8-9.7c-0.9-1.5-1.7-3-2.3-4.7c-0.6-1.7-0.8-3.5-1.1-5.2
				c-0.6-4.1-1.4-8.2-1.7-12.3c-0.3-4.1-0.3-8.2-0.3-12.4C339.2,189.5,338.7,189.5,338.7,189.8L338.7,189.8z"/>
		</g>
		<g>
			<path d="M351.3,180.6c0.5,2.7,0.4,5.5,0.4,8.3c0,3,0,6-0.2,9c-0.4,5.4-1.4,10.9-0.6,16.4c0.7,5.3,3.4,9.7,6.1,14.2
				c2.9,5,5.5,10.2,8.3,15.2c0.2,0.3,0.6,0,0.4-0.3c-2.7-4.9-5.2-10-8-14.9c-2.8-4.9-5.7-9.6-6.3-15.4c-0.6-5.4,0.5-11,0.8-16.4
				c0.2-2.8,0.2-5.6,0.2-8.4c0-2.6,0-5.3-0.4-7.9C351.7,180.2,351.2,180.3,351.3,180.6L351.3,180.6z"/>
		</g>
		<g>
			<path d="M345.9,227.2c0.8,4.1,1.7,8.2,2.1,12.3c0.2,2,0.5,3.9,0.6,5.9c0.1,1.9,0.2,3.9,0.7,5.8c0.1,0.3,0.6,0.2,0.5-0.1
				c-0.5-2-0.6-4.1-0.7-6.2c-0.1-2.2-0.5-4.3-0.7-6.4c-0.5-3.8-1.2-7.7-2-11.5C346.4,226.7,345.9,226.9,345.9,227.2L345.9,227.2z"/>
		</g>
		<g>
			<path d="M334.3,159.1c1.2-0.6,2.2-1.4,3.4-2.1c1.1-0.6,2.2-1.2,3.2-2c0.3-0.2-0.1-0.6-0.4-0.4c-0.9,0.8-2,1.4-3.1,1.9
				c-1.2,0.6-2.2,1.5-3.4,2.1C333.7,158.8,334,159.2,334.3,159.1L334.3,159.1z"/>
		</g>
		<g>
			<path d="M358.2,132.1c-1,2.4-1.6,4.6-1,7.2c0.6,2.5,2.5,4.3,3.8,6.4c0.2,0.3,0.6,0,0.4-0.3c-1.2-2-2.8-3.6-3.6-5.9
				c-0.9-2.5-0.1-4.9,0.9-7.3C358.8,132,358.3,131.8,358.2,132.1L358.2,132.1z"/>
		</g>
		<g>
			<path d="M350.9,124.9c0.9,4.4,0,8.7,0.4,13.1c0.2,1.8,0.5,3.7,1.2,5.4c0.8,1.8,1.6,2.8,3.3,3.9c0.3,0.2,0.5-0.3,0.3-0.4
				c-0.9-0.6-1.7-1.1-2.3-2c-0.6-0.9-0.9-2-1.3-3c-0.6-1.9-0.8-4.2-0.8-6.2c0-1.9,0.2-3.8,0.3-5.7c0-1.7-0.2-3.4-0.5-5.1
				C351.3,124.4,350.8,124.5,350.9,124.9L350.9,124.9z"/>
		</g>
		<g>
			<path d="M353.5,140.6c0.2,3,1.5,5.6,4.2,7.1c0.3,0.2,0.6-0.3,0.3-0.4c-2.5-1.4-3.8-3.8-4-6.7C354,140.3,353.5,140.3,353.5,140.6
				L353.5,140.6z"/>
		</g>
		<path class="st13" d="M300.4,99.6c-0.9,1.5-1.9,2.5-1.2,4.1c0.6,1.6,3.3,1.6,3.8-0.4c0.3-1.3-0.9-3-1.4-3.7
			C301,98.9,300.9,98.8,300.4,99.6z"/>
		<path class="st13" d="M296.8,107.7c-1.5,2.6-3.3,4.4-2.2,7.1c1.1,2.7,5.7,2.9,6.7-0.7c0.6-2.2-1.6-5.3-2.4-6.4
			C298,106.5,297.6,106.3,296.8,107.7z"/>
	</g>
	<g>
		<path class="st11" d="M170.9,129.6c0.9-0.8,2.7-2.1,2-3.9c-0.7-1.9-1.1-3.2-0.8-4.2c0.3-1,6.9,2.2,6.9,2.2l-5.5,7.3L170.9,129.6z"
			/>
		<path class="st9" d="M142.5,135.3c3.1,1.9,9.2,4.4,10.8,4.7s1.9,1.3,4.4-1.5c2.9-3.2,10.9-10,11.6-10.5c0.7-0.5,2.9,0.7,4.3,2.4
			c1.4,1.6-16.8,16.2-16.8,16.2L142.5,135.3z"/>
		<path class="st15" d="M178.9,100.1l-0.6-2.1c11.3-3,20.4-8.8,24.4-15.7c1.8-3.1,2.6-6.4,2.4-9.9c-3.4,1.5-6.6,2.2-9.4,1.9
			c-3.2-0.4-5.8-2.1-7.8-5.1c-1.9-2.9-2.1-6.1-0.4-8.6c1.8-2.8,5.4-4.3,8.9-3.7c4.8,0.7,8.5,4.8,10.2,11.1c0.1,0.4,0.2,0.8,0.3,1.2
			c8.9-4.8,18.9-14.1,25.8-20.4c13.1-12.2,34.4-17.4,52.9-13c14.4,3.4,24.9,12.3,29.6,25c7.9,21.5-10.3,39-10.5,39.2l-1.5-1.6
			c0.2-0.2,17.4-16.7,10-36.8c-4.4-12-14.4-20.4-28.1-23.6c-17.5-4.2-38.5,1-50.9,12.5c-9.2,8.5-18.6,16.9-26.9,21.1
			c0.4,4.2-0.4,8.2-2.6,12C200.4,90.8,190.8,97,178.9,100.1z M194.9,58.9c-2.3,0-4.5,1.1-5.6,2.9c-1.2,1.8-1,4.1,0.4,6.3
			c1.6,2.5,3.7,3.8,6.3,4.1c2.6,0.3,5.6-0.5,8.9-2c-0.1-0.6-0.2-1.1-0.4-1.7c-1.5-5.5-4.5-8.9-8.4-9.5
			C195.7,58.9,195.3,58.9,194.9,58.9z"/>
		<path class="st13" d="M174.5,85.5c-7.9,12.6-12.1,22.2-10.3,28.7c3.2,11.3,22.7,15.3,28.2,0.4c2.7-7.4-7.2-22.2-11.5-29.6
			C178.8,81.2,176.5,82.3,174.5,85.5z"/>
		<path class="st16" d="M144.1,256.6c-0.3,2.8-0.6,5.3-0.6,6.8c0,1.5-0.4,2.7,5.3,2.9c5.6,0.1,12.3,0.4,12.9-1
			c0.6-1.4-3.3-1.7-6-2.9c-2.7-1.2-4.9-1.9-4.9-5.1C150.7,254.1,144.1,256.6,144.1,256.6z"/>
		<path class="st16" d="M117.3,256.4c-0.9,1.9-2.1,6.8-2.1,7.9c-0.1,1.1,1.1,1.8,9,1.8c7.8,0,9.8-1.3,6.2-2.1
			c-3.6-0.8-6.3-2-6.8-3.1c-0.4-1.1-0.1-4.3-0.1-4.3L117.3,256.4z"/>
		<path class="st10" d="M125.9,172.9c-1.4,6-3.3,9.7,0.4,22c3.7,12.3-0.6,28.1-1.6,32.2c-1,4.1-7.1,23-8.3,29.5
			c-0.4,0.7,7.1,2.3,8.3,1.7c1.1-0.6,13.3-25.6,15.3-34.3c3.6,9.6,2.9,32.9,3.1,33.6c4,1.4,9,0.6,9.3-0.3c0.3-0.9,3.8-28.8,2.6-42.3
			c-1.3-13.5-7.4-31.8-6.8-39.6C137.7,172.9,125.9,172.9,125.9,172.9z"/>
		<path class="st8" d="M172,130.2c2.1-1.3,3.3-3.5,4.1-5.6c0.8-2.1,1.8-2.9,2.7-2.8c0.9,0.1-0.1,1.8-0.6,2.4c-0.6,0.6-0.5,1.5,1.1,0
			c1.6-1.5,3.1-2.9,4.5-2.6c1.4,0.2-2.5,3.3-2.5,3.3c1.9-0.6,3.3-2,3.9-1.9c1.1,0.1-0.1,1.2-0.1,1.2c0.6,0.4-0.1,1.6-0.1,1.6
			c0.6,1.1-1.1,2.1-3.2,3c-2.1,0.9-3.8,1.3-5.5,4.2C174.4,135.8,172,130.2,172,130.2z"/>
		<path class="st8" d="M127.3,107.5c3.5-3.4,12.9-6.9,16.5,0.4c0.9,2.2,0.7,6,1.8,7.2c1,1.1,2.4,1.7,2.4,2.2c0,0.6-1.8,0.9-1.6,1.9
			c0.2,1,1,6.3-2.7,6.7c-3.7,0.5-5,0-5.4,1.8c-0.4,1.8-1.2,7.8-1.2,7.8l-8.8-0.2c0,0,2.7-7.1,0.5-11.1
			C126.5,120.2,122,114.9,127.3,107.5z"/>
		<path class="st10" d="M129,125.2c1.9-0.3,2.8-2.2,2.9-3.2c-5.3-2.3-0.6-9.2,2.8-3.9c1,0.4,2.3-0.6,2.3-0.6c-0.5-1.7-0.7-2.8,0-3.9
			c0.7-1-0.2-2.6-0.5-4.2c-0.3-1.6,5.3-3.4,6-5.8c1.4-5.3-3.3-6.6-4.7-2.9c-0.2-2.4-2.7-2.8-3.2,0c-0.9-2.4-2.4-2.2-4.1,0.6
			c-1.8,2.8-8.5,5.6-7,9.1C120,113.7,122.4,119.9,129,125.2z"/>
		<path class="st14" d="M128.4,132.1c5-2.2,8.7-2.2,15.3,3c6.6,5.2,9.6,7.5,11.7,7.3c2.1-0.2,14.3-11.8,15.6-12.8
			c1-0.8,1.9-0.4,3.6,0.9c1.7,1.4,4.4,2.4,2.9,4.5c-1.6,2.1-11.3,14.6-14.5,18c-3.3,3.4-8.3,4.6-13,1.6c-0.5,6.2-1.1,15.4-0.7,20.2
			c0.3,3.9,1,5.1-1.5,4.5c-3-0.7-17.5-1.7-23.1-1.3c-1.2,0.1-2.8-0.1-2.4-2.6c1.8-10.9,2-23.2,2.2-28.2
			C124.6,138.6,127.1,133,128.4,132.1z"/>
		<g>
			<path d="M142.6,114.8c-0.2-0.2-0.4-0.4-0.4-0.7c0-0.1,0-0.1,0-0.2c0-0.1,0.1-0.2,0-0.1c0,0,0.1,0.1,0.2,0.1
				c0.1,0.2,0.3,0.5,0.2,0.7c0,0.2-0.2-0.3-0.2-0.3c0-0.1-0.1-0.2-0.1-0.3c0-0.2,0.1,0-0.2,0c-0.1,0,0,0,0,0c0,0,0.1,0.1,0.1,0.2
				c0.1,0.1,0.1,0.3,0.2,0.4c0,0.1,0,0.1,0,0.2c0,0,0,0,0,0c0,0,0,0,0,0c0-0.1,0.1-0.2,0.2-0.2c-0.3,0-0.3,0.5,0,0.5
				c0.7,0,0.1-1.2-0.1-1.4c-0.2-0.2-0.5-0.4-0.7-0.1c-0.2,0.4,0,0.8,0.1,1.2c0.2,0.4,0.8,0.5,1,0c0.2-0.4-0.1-1.1-0.4-1.4
				c-0.3-0.3-0.8-0.3-1,0.1c-0.2,0.5,0.1,1.2,0.5,1.5C142.5,115.4,142.9,115,142.6,114.8L142.6,114.8z"/>
		</g>
		<g>
			<path d="M140.2,111.1c0.1-0.5,0.5-0.9,0.8-1.2c0.4-0.4,0.9-0.6,1.4-0.9c0.3-0.2,0-0.6-0.3-0.4c-0.3,0.2-0.6,0.3-0.9,0.4
				c-0.3,0.1-0.5,0.4-0.7,0.6c-0.3,0.4-0.7,0.8-0.8,1.4C139.7,111.3,140.2,111.4,140.2,111.1L140.2,111.1z"/>
		</g>
		<g>
			<path d="M142.8,120.2c0.5,0.4,0.9,0.7,1.5,0.8c0.7,0.2,1.2,0.2,1.8,0.1c0.3,0,0.3-0.5,0-0.5c-0.5,0-1,0.1-1.5,0
				c-0.6-0.1-1-0.4-1.5-0.7C142.9,119.6,142.6,120,142.8,120.2L142.8,120.2z"/>
		</g>
		<g>
			<path d="M129.6,120c1.2,2.4,3.9,3.2,6,1.3c0.3-0.2-0.1-0.6-0.4-0.4c-1.9,1.6-4.2,0.9-5.2-1.2C129.9,119.5,129.4,119.7,129.6,120
				L129.6,120z"/>
		</g>
		<g>
			<path d="M179.8,125.7c1.2-0.2,2.3-1,3.2-1.8c0.2-0.2-0.1-0.6-0.4-0.4c-0.8,0.8-1.8,1.5-2.9,1.7
				C179.3,125.3,179.4,125.8,179.8,125.7L179.8,125.7z"/>
		</g>
		<g>
			<path d="M180.1,126.9c1.8-0.7,3.7-1.4,5.1-2.8c0.2-0.2-0.1-0.6-0.4-0.4c-1.3,1.3-3.2,2-4.9,2.6
				C179.7,126.6,179.8,127.1,180.1,126.9L180.1,126.9z"/>
		</g>
		<g>
			<path d="M180.5,128.1c1.6-0.1,3.3-1,4.4-2.1c0.2-0.2-0.1-0.6-0.4-0.4c-1,1-2.6,1.9-4,2C180.1,127.6,180.1,128.1,180.5,128.1
				L180.5,128.1z"/>
		</g>
		<g>
			<path d="M137.8,148.5c2.1,1.4,4.4,2.5,6.6,3.8c2.4,1.4,4.7,2.8,7.3,3.8c0.3,0.1,0.4-0.4,0.1-0.5c-2.6-1-4.8-2.4-7.2-3.8
				c-2.2-1.3-4.5-2.4-6.6-3.8C137.8,147.9,137.6,148.3,137.8,148.5L137.8,148.5z"/>
		</g>
		<g>
			<path d="M130.2,196c2.5,4.6,4,9.7,5.9,14.6c0.9,2.4,1.8,4.8,2.5,7.3c0.7,2.5,0.7,5.1,1.5,7.6c0.1,0.3,0.6,0.2,0.5-0.1
				c-0.7-2.5-0.8-5.1-1.5-7.6c-0.7-2.7-1.7-5.2-2.7-7.8c-1.8-4.7-3.3-9.8-5.8-14.3C130.5,195.4,130.1,195.7,130.2,196L130.2,196z"/>
		</g>
		<g>
			<path d="M141.7,179.5c0.3,2.8,1.3,5.4,2.1,8.1c0.9,3,1.7,6,2.6,9c1.8,6.3,3.8,12.5,4.6,19.1c0.8,6.2,0.7,12.6,0,18.8
				c-0.4,3.1-0.8,6.2-1.2,9.4c-0.4,3.1-0.5,6.6-1.6,9.5c-0.1,0.3,0.4,0.4,0.5,0.1c1.1-2.7,1-5.7,1.5-8.6c0.5-3.1,0.8-6.3,1.2-9.5
				c0.8-6.2,0.9-12.6,0.2-18.8c-0.7-6.3-2.4-12.2-4.2-18.2c-0.9-3.2-1.8-6.4-2.7-9.5c-0.9-3.1-2.1-6.2-2.5-9.4
				C142.2,179.2,141.7,179.1,141.7,179.5L141.7,179.5z"/>
		</g>
		<g>
			<path d="M144.1,186.5c1.9-1.6,2.2-4.1,2.2-6.5c0-0.3-0.5-0.3-0.5,0c0,2.2-0.2,4.6-2,6.1C143.4,186.4,143.8,186.7,144.1,186.5
				L144.1,186.5z"/>
		</g>
		<g>
			<path d="M128.9,182.8c1.1,0.3,2.1,0.1,3.2,0.2c0.3,0,3.3-0.1,3.3,0c0.4,1.3,0.4,2.8,0.6,4.1c0.1,0.5,0.1,1,0.2,1.5
				c0.1,0.8,0.3,0.9-0.3,1.6c-0.7,0.9-1.4,1.7-2.1,2.6c-0.4,0.5-2.7-2-3-2.3c-0.9-1.1-0.9-2.8-1.3-4.1c-0.3-1.3-0.3-2.6-0.5-3.9
				c0-0.3-0.6-0.3-0.5,0c0.1,1,0.2,2.1,0.3,3.1c0.2,1.3,0.6,2.5,0.8,3.8c0.2,1,1,1.8,1.7,2.4c0.6,0.6,1.4,1.6,2.3,1.7
				c0.1,0,0.2,0,0.3-0.1c0.6-1,1.5-1.9,2.2-2.9c0.2-0.2,0.9-0.8,0.7-1.2c-1-2.1-0.6-4.7-1.2-6.9c0-0.1-0.1-0.2-0.2-0.2
				c-1,0.1-2,0.2-3,0.2c-1.1,0-2.4,0-3.5-0.3C128.7,182.2,128.6,182.7,128.9,182.8L128.9,182.8z"/>
		</g>
	</g>
</g>
<g class="st17">
	<g>
		<rect x="424.7" y="52.8" class="st13" width="6.2" height="17.4"/>
		<rect x="419.2" y="58.4" class="st13" width="17.4" height="6.2"/>
	</g>
</g>
<path class="st15" d="M459.6,148.7v-5.5h-5.5c-0.6,0-1-0.4-1-1v-7.4c0-0.6,0.4-1,1-1h5.5v-5.5c0-0.6,0.4-1,1-1h7.4c0.6,0,1,0.4,1,1
	v5.5h5.5c0.6,0,1,0.4,1,1v7.4c0,0.6-0.4,1-1,1h-5.5v5.5c0,0.6-0.4,1-1,1h-7.4C460,149.7,459.6,149.2,459.6,148.7z M466.9,142.1
	c0-0.6,0.4-1,1-1h5.5v-5.4h-5.5c-0.6,0-1-0.4-1-1v-5.5h-5.4v5.5c0,0.6-0.4,1-1,1h-5.5v5.4h5.5c0.6,0,1,0.4,1,1v5.5h5.4V142.1z"/>
<polygon class="st15" points="405.2,188.8 409.1,188.8 409.1,184.8 413.5,184.8 413.5,188.8 417.5,188.8 417.5,193.2 413.5,193.2 
	413.5,197.1 409.1,197.1 409.1,193.2 405.2,193.2 "/>
<g class="st17">
	<g>
		<rect x="28.6" y="109.7" class="st13" width="6.2" height="17.4"/>
		<rect x="23.1" y="115.3" class="st13" width="17.4" height="6.2"/>
	</g>
</g>
<path class="st15" d="M44.3,256.4v-2.9h-2.9c-0.6,0-1-0.4-1-1v-4.4c0-0.6,0.4-1,1-1h2.9v-2.9c0-0.6,0.4-1,1-1h4.4c0.6,0,1,0.4,1,1
	v2.9h2.9c0.6,0,1,0.4,1,1v4.4c0,0.6-0.4,1-1,1h-2.9v2.9c0,0.6-0.4,1-1,1h-4.4C44.7,257.4,44.3,256.9,44.3,256.4z M48.7,252.5
	c0-0.6,0.4-1,1-1h2.9v-2.4h-2.9c-0.6,0-1-0.4-1-1v-2.9h-2.4v2.9c0,0.6-0.4,1-1,1h-2.9v2.4h2.9c0.6,0,1,0.4,1,1v2.9h2.4V252.5z"/>
<polygon class="st15" points="82.5,50.3 86.4,50.3 86.4,46.4 90.8,46.4 90.8,50.3 94.7,50.3 94.7,54.8 90.8,54.8 90.8,58.7 
	86.4,58.7 86.4,54.8 82.5,54.8 "/>
</svg>
