<?xml version="1.0" encoding="utf-8"?>
<!-- Generator: Adobe Illustrator 22.0.0, SVG Export Plug-In . SVG Version: 6.00 Build 0)  -->
<svg version="1.1" id="Capa_1" xmlns="http://www.w3.org/2000/svg" xmlns:xlink="http://www.w3.org/1999/xlink" x="0px" y="0px"
	 viewBox="0 0 500 300" style="enable-background:new 0 0 500 300;" xml:space="preserve">
<style type="text/css">
	.st0{fill:#E6EFF0;}
	.st1{fill:#D5E5E6;}
	.st2{fill:#FDDA89;}
	.st3{fill:#FFFFFF;}
	.st4{fill:#556566;}
	.st5{fill:#D53D33;}
	.st6{fill:#EFF4FF;}
	.st7{fill:#C6DBFF;}
	.st8{fill:#F1CEB7;}
	.st9{fill:#FF546D;}
	.st10{fill:#413F84;}
	.st11{fill:#D5B6A2;}
	.st12{fill:#DFEBFF;}
	.st13{fill:#FA0008;}
	.st14{fill:#FF8B9D;}
	.st15{opacity:0.7;fill:#FA0008;}
	.st16{fill:#050521;}
	.st17{opacity:0.7;}
	.st18{fill:#FEDCB7;}
	.st19{fill:#FEC29E;}
	.st20{fill:#354546;}
	.st21{clip-path:url(#SVGID_2_);}
	.st22{fill:#CB0909;}
	.st23{fill:#DA0505;}
	.st24{fill:#E70505;}
</style>
<g>
	<g>
		<g>
			<path class="st0" d="M227,206.4c0,17.7-14.3,32-32,32h-66.5c-17.7,0-32-14.3-32-32V87.1c0-17.7,14.3-32,32-32H195
				c17.7,0,32,14.3,32,32V206.4z"/>
		</g>
	</g>
	<g>
		<g>
			<path class="st1" d="M216.4,96.3v99.8c0,14.8-12,26.8-26.8,26.8H134c-14.8,0-26.8-12-26.8-26.8V96.3c0-14.8,12-26.8,26.8-26.8
				h55.6C204.4,69.5,216.4,81.5,216.4,96.3z"/>
		</g>
	</g>
	<g>
		<g>
			<rect x="130.1" y="34.2" class="st0" width="14.4" height="35.2"/>
		</g>
	</g>
	<g>
		<g>
			<rect x="177" y="34.2" class="st0" width="14.4" height="35.2"/>
		</g>
	</g>
	<g>
		<g>
			<rect x="153.4" y="22.2" class="st0" width="14.4" height="47.2"/>
		</g>
	</g>
	<g>
		<g>
			<path class="st5" d="M216.4,108.7v87.4c0,14.8-12,26.8-26.8,26.8H134c-14.8,0-26.8-12-26.8-26.8v-87.4H216.4z"/>
		</g>
	</g>
	<g>
		<g>
			<path class="st3" d="M195.5,195.1c0,2.7-2.2,4.9-4.9,4.9h-57.7c-2.7,0-4.9-2.2-4.9-4.9v-57.7c0-2.7,2.2-4.9,4.9-4.9h57.7
				c2.7,0,4.9,2.2,4.9,4.9V195.1z"/>
		</g>
	</g>
	<g>
		<g>
			<rect x="128.1" y="172.8" class="st4" width="67.4" height="1.6"/>
		</g>
	</g>
	<g>
		<g>
			<path class="st3" d="M210.4,150.3c0,2.9-2.4,5.3-5.3,5.3l0,0c-2.9,0-5.3-2.4-5.3-5.3v-49c0-2.9,2.4-5.3,5.3-5.3l0,0
				c2.9,0,5.3,2.4,5.3,5.3V150.3z"/>
		</g>
	</g>
	<g>
		<path class="st4" d="M136.5,163.9c-0.6,0-1.1,0-1.7-0.1c-0.5-0.1-1.1-0.2-1.5-0.3V161c0.5,0.1,1,0.3,1.5,0.3
			c0.5,0.1,1.1,0.1,1.6,0.1c0.6,0,1-0.1,1.2-0.2c0.2-0.1,0.3-0.3,0.3-0.5c0-0.2,0-0.3-0.1-0.4c-0.1-0.1-0.3-0.1-0.5-0.2l-1.7-0.3
			c-0.9-0.2-1.6-0.5-2-0.9c-0.4-0.5-0.6-1.1-0.6-1.9c0-1,0.4-1.7,1.2-2.3c0.8-0.6,2-0.9,3.6-0.9c0.5,0,1,0,1.4,0.1s0.9,0.1,1.2,0.2
			v2.4c-0.4-0.1-0.8-0.2-1.2-0.2c-0.4-0.1-0.9-0.1-1.4-0.1c-0.5,0-0.9,0-1.1,0.1s-0.4,0.2-0.5,0.3c-0.1,0.1-0.1,0.2-0.1,0.4
			c0,0.1,0,0.3,0.1,0.3s0.3,0.2,0.5,0.2l1.7,0.3c0.8,0.2,1.5,0.4,1.9,0.9c0.5,0.4,0.7,1.1,0.7,2c0,1-0.4,1.8-1.2,2.3
			S137.9,163.9,136.5,163.9z"/>
		<path class="st4" d="M145,163.9c-1,0-1.8-0.3-2.4-0.8c-0.6-0.5-0.8-1.2-0.8-2c0-0.9,0.3-1.7,1-2.2c0.7-0.5,1.7-0.8,3.2-0.9
			l1.8-0.1l0.4,1.8l-1.8,0.1c-0.5,0-0.8,0.1-1,0.3c-0.2,0.2-0.3,0.4-0.3,0.7c0,0.3,0.1,0.5,0.3,0.7c0.2,0.2,0.4,0.2,0.8,0.2
			c0.2,0,0.4,0,0.6-0.1c0.2-0.1,0.4-0.2,0.6-0.3V158c0-0.4-0.1-0.7-0.2-0.9s-0.3-0.4-0.6-0.5c-0.3-0.1-0.7-0.1-1.2-0.1
			c-0.4,0-0.8,0-1.3,0.1s-0.9,0.2-1.3,0.3v-2.4c0.5-0.1,1-0.2,1.6-0.3s1.1-0.1,1.6-0.1c1.1,0,2,0.1,2.7,0.4c0.7,0.3,1.2,0.7,1.5,1.3
			c0.3,0.6,0.5,1.5,0.5,2.5v5.5h-2.7l-0.2-0.9h-0.1c-0.3,0.4-0.6,0.7-1.1,0.8C146,163.8,145.5,163.9,145,163.9z"/>
		<path class="st4" d="M152.4,163.7v-9.6h2.7l0.2,0.9h0.1c0.3-0.4,0.8-0.6,1.2-0.8c0.5-0.2,1-0.3,1.5-0.3c0.6,0,1.2,0.1,1.7,0.4
			c0.5,0.3,0.9,0.7,1.2,1.3c0.3,0.6,0.4,1.3,0.4,2.3v5.9h-3.3V158c0-0.5-0.1-0.8-0.3-1c-0.2-0.2-0.5-0.3-0.8-0.3
			c-0.2,0-0.4,0-0.5,0.1s-0.3,0.1-0.5,0.2s-0.3,0.2-0.4,0.3v6.3H152.4z"/>
		<path class="st4" d="M167,167.7c-0.5,0-1.1,0-1.7-0.1c-0.6-0.1-1.1-0.2-1.7-0.3v-2.5c0.6,0.1,1.1,0.2,1.6,0.3
			c0.5,0.1,1,0.1,1.5,0.1c0.9,0,1.6-0.2,2-0.5c0.4-0.3,0.6-0.8,0.6-1.6v-0.5h-0.1c-0.3,0.3-0.6,0.6-1,0.8c-0.4,0.2-0.9,0.3-1.4,0.3
			c-0.7,0-1.3-0.2-1.8-0.5c-0.6-0.3-1-0.8-1.4-1.5c-0.4-0.7-0.5-1.6-0.5-2.6c0-1.6,0.5-2.9,1.4-3.8c0.9-0.9,2.4-1.4,4.3-1.4
			c0.4,0,0.9,0,1.4,0.1s0.9,0.1,1.4,0.2c0.4,0.1,0.9,0.2,1.2,0.3v8.1c0,1.8-0.5,3.1-1.4,3.9S168.9,167.7,167,167.7z M168,161.1
			c0.2,0,0.5,0,0.7-0.1s0.4-0.2,0.6-0.3v-4.2c-0.1,0-0.3-0.1-0.4-0.1s-0.3,0-0.5,0c-0.7,0-1.2,0.2-1.5,0.6c-0.4,0.4-0.5,1-0.5,1.9
			c0,0.6,0.1,1,0.2,1.4c0.1,0.3,0.3,0.6,0.6,0.7C167.3,161,167.6,161.1,168,161.1z"/>
		<path class="st4" d="M174.4,163.7v-9.6h2.7l0.3,1.2h0.1c0.3-0.5,0.6-0.8,1-1.1c0.4-0.2,0.9-0.3,1.4-0.3c0.1,0,0.3,0,0.4,0
			s0.3,0,0.4,0v3c-0.2,0-0.3-0.1-0.5-0.1s-0.3,0-0.5,0c-0.3,0-0.5,0-0.8,0.1c-0.3,0.1-0.5,0.1-0.7,0.3c-0.2,0.1-0.4,0.3-0.5,0.4v6
			H174.4z"/>
		<path class="st4" d="M186.9,163.9c-1.3,0-2.3-0.2-3.2-0.5c-0.8-0.3-1.4-0.9-1.8-1.6s-0.6-1.7-0.6-2.9c0-1,0.2-1.9,0.5-2.7
			c0.4-0.7,0.9-1.3,1.6-1.7c0.7-0.4,1.5-0.6,2.5-0.6c1,0,1.8,0.2,2.4,0.6c0.6,0.4,1.1,1,1.4,1.7c0.3,0.8,0.5,1.7,0.5,2.7v0.8h-7.1
			V158h4.6l-0.5,0.2c0-0.5,0-1-0.1-1.3c-0.1-0.3-0.2-0.5-0.4-0.7c-0.2-0.1-0.4-0.2-0.7-0.2c-0.3,0-0.6,0.1-0.8,0.2
			c-0.2,0.1-0.3,0.4-0.4,0.7c-0.1,0.3-0.1,0.7-0.1,1.3v1.3c0,0.5,0.1,0.9,0.2,1.2s0.4,0.5,0.8,0.6c0.4,0.1,1,0.2,1.7,0.2
			c0.4,0,0.8,0,1.2-0.1c0.4,0,0.8-0.1,1.2-0.2v2.4c-0.5,0.1-1,0.2-1.5,0.2C187.8,163.8,187.4,163.9,186.9,163.9z"/>
	</g>
	<g>
		<path class="st1" d="M145.8,39.1c0,1.4-1.1,2.6-2.6,2.6H131c-1.4,0-2.6-1.2-2.6-2.6v-3.9c0-1.4,1.2-2.6,2.6-2.6h12.2
			c1.4,0,2.6,1.2,2.6,2.6V39.1z"/>
	</g>
	<g>
		<path class="st1" d="M192.7,39.1c0,1.4-1.2,2.6-2.6,2.6h-12.2c-1.4,0-2.6-1.2-2.6-2.6v-3.9c0-1.4,1.1-2.6,2.6-2.6h12.2
			c1.4,0,2.6,1.2,2.6,2.6V39.1z"/>
	</g>
	<g>
		<path class="st1" d="M169.2,242.6c0,1.4-1.2,2.6-2.6,2.6h-12.2c-1.4,0-2.6-1.2-2.6-2.6v-3.9c0-1.4,1.2-2.6,2.6-2.6h12.2
			c1.4,0,2.6,1.2,2.6,2.6V242.6z"/>
	</g>
	<g>
		<path class="st1" d="M169.2,27.9c0,1.4-1.2,2.6-2.6,2.6h-12.2c-1.4,0-2.6-1.2-2.6-2.6v-3.9c0-1.4,1.2-2.6,2.6-2.6h12.2
			c1.4,0,2.6,1.1,2.6,2.6V27.9z"/>
	</g>
</g>
<g class="st17">
	<g>
		<rect x="452.4" y="62.1" class="st13" width="6.2" height="17.4"/>
		<rect x="446.9" y="67.6" class="st13" width="17.4" height="6.2"/>
	</g>
</g>
<g class="st17">
	<g>
		<rect x="59.1" y="156.1" class="st13" width="6.2" height="17.4"/>
		<rect x="53.6" y="161.6" class="st13" width="17.4" height="6.2"/>
	</g>
</g>
<path class="st15" d="M422.8,158.9h-7.4c-0.6,0-1-0.4-1-1v-5.5h-5.5c-0.6,0-1-0.4-1-1V144c0-0.6,0.4-1,1-1h5.5v-5.5c0-0.6,0.4-1,1-1
	h7.4c0.6,0,1,0.4,1,1v5.5h5.5c0.6,0,1,0.4,1,1v7.4c0,0.6-0.4,1-1,1h-5.5v5.5C423.8,158.5,423.4,158.9,422.8,158.9z M416.5,156.9h5.4
	v-5.5c0-0.6,0.4-1,1-1h5.5V145h-5.5c-0.6,0-1-0.4-1-1v-5.5h-5.4v5.5c0,0.6-0.4,1-1,1h-5.5v5.4h5.5c0.6,0,1,0.4,1,1V156.9z"/>
<path class="st15" d="M39.1,263.6h-4.4c-0.6,0-1-0.4-1-1v-2.9h-2.9c-0.6,0-1-0.4-1-1v-4.4c0-0.6,0.4-1,1-1h2.9v-2.9c0-0.6,0.4-1,1-1
	h4.4c0.6,0,1,0.4,1,1v2.9H43c0.6,0,1,0.4,1,1v4.4c0,0.6-0.4,1-1,1h-2.9v2.9C40.1,263.2,39.7,263.6,39.1,263.6z M35.7,261.6h2.4v-2.9
	c0-0.6,0.4-1,1-1H42v-2.4h-2.9c-0.6,0-1-0.4-1-1v-2.9h-2.4v2.9c0,0.6-0.4,1-1,1h-2.9v2.4h2.9c0.6,0,1,0.4,1,1V261.6z"/>
<polygon class="st15" points="478.2,198 474.3,198 474.3,194.1 469.9,194.1 469.9,198 466,198 466,202.4 469.9,202.4 469.9,206.3 
	474.3,206.3 474.3,202.4 478.2,202.4 "/>
<polygon class="st15" points="31.5,54 27.6,54 27.6,50.1 23.2,50.1 23.2,54 19.3,54 19.3,58.4 23.2,58.4 23.2,62.3 27.6,62.3 
	27.6,58.4 31.5,58.4 "/>
<g>
	<g>
		<g>
			<g>
				<path class="st18" d="M376.3,206.4c0,0.1,0,0.2,0,0.3l0,11.1l0,0l0,27c0,1.5-1.3,2.8-2.8,2.8c-1.5,0-2.8-1.2-2.8-2.8l0-25.6
					c0-0.2,0-0.4-0.1-0.6c-0.2-1-1.1-1.8-2.2-1.9c-0.1,0-0.1,0-0.2,0c-0.4,0-0.8,0.1-1.1,0.3c-0.8,0.4-1.4,1.2-1.4,2.2l0,38.1
					c0,2.6-2.1,4.7-4.7,4.7c-2.6,0-4.7-2.1-4.7-4.7l0-38.1c0-0.9-0.5-1.6-1.1-2c-0.4-0.3-0.8-0.5-1.3-0.5c-0.5,0-1,0.2-1.4,0.5
					c-0.7,0.4-1.1,1.1-1.1,2l0,42.6c0,2.6-2.1,4.7-4.8,4.7c-2.6,0-4.7-2.1-4.7-4.8l0-42.6c0-0.4-0.1-0.8-0.3-1.1
					c-0.2-0.4-0.5-0.7-0.8-0.9c-0.4-0.3-0.8-0.5-1.4-0.5c-0.3,0-0.6,0.1-0.9,0.2c-0.2,0.1-0.3,0.2-0.5,0.3c-0.7,0.5-1.1,1.2-1.1,2.1
					l-0.1,34.2c0,2.9-2.4,5.3-5.3,5.3c-2.9,0-5.3-2.4-5.3-5.3l0.1-34.2c0-0.1,0-0.1,0-0.2c0-0.1,0-0.1,0-0.2l0-11.9
					c0-1.3-1.1-2.4-2.4-2.4c-1.3,0-2.4,1.1-2.4,2.4l0,11.7c0,0,0,0,0,0v5.3c0,0.3,0,0.6-0.1,0.9c-0.5,2.2-2.4,3.8-4.7,3.8h-0.4
					c-2.6,0-4.8-2.1-4.8-4.8v-10.7l0-12l0-0.1c0-0.2,0-0.4,0-0.6l0-0.1l0,0c0-0.2,0-0.4,0-0.6c0-0.5,0.1-1,0.1-1.5
					c0.1-0.8,0.2-1.7,0.3-2.7c1.2-8.4,4.2-20.7,7.1-27.9c0.4-0.9,2.2-3,2.6-3.7c0.5-1-0.5-111.1,0-111.7c0.5-0.6,45-0.7,45.5-0.1
					c0.5,0.6-0.4,111.1,0.1,112.1c0.4,0.7,2.2,2.5,2.6,3.4c2.1,5,4.1,12.4,5.2,18.6c0.2,1,0.3,1.9,0.5,2.8c0.2,1.7,0.4,3.2,0.4,4.5
					c0,0.3,0,0.6,0,0.9L376.3,206.4z"/>
			</g>
		</g>
	</g>
</g>
<g>
	<g>
		<g>
			<g>
				<path class="st19" d="M324,203.4c0.4,0.4,0.9,0.7,1.5,0.7c12.5,0.7,21.9-2.2,28.1-8.7c8.8-9.3,7.4-22.5,7.3-23.1
					c-0.2-1.3-1.3-2.2-2.6-2.1c-1.3,0.2-2.2,1.3-2.1,2.6l0,0c0,0.1,1.2,11.6-6.1,19.3c-5.1,5.4-13.3,7.8-24.3,7.2
					c-1.3-0.1-2.4,0.9-2.5,2.2C323.3,202.3,323.5,202.9,324,203.4z"/>
			</g>
		</g>
	</g>
</g>
<g>
	<g>
		<g>
			<path class="st20" d="M374,37.9c0-2.6-2.1-4.7-4.7-4.7l-49.7,0.1c-2.6,0-4.7,2.1-4.7,4.7l0,12.8c0,2.6,2.1,4.7,4.7,4.7l49.7-0.1
				c2.6,0,4.7-2.1,4.7-4.7L374,37.9z"/>
		</g>
	</g>
</g>
<g>
	<g>
		<path class="st5" d="M261.1,245h-4.8l-0.1-22.7c0-8,6.6-14.5,14.6-14.5c8,0,14.5,6.5,14.5,14.5v4.5h-4.8v-4.5
			c0-5.4-4.4-9.8-9.8-9.8c-5.4,0-8.8,4.6-8.8,10L261.1,245z"/>
	</g>
</g>
<g>
	<g>
		<path class="st5" d="M294.7,245.9c-7.7,0-14-6.3-14-14v-6.8h4.8v6.8c0,5.1,4.1,9.2,9.2,9.2c5.1,0,9.2-4.1,9.2-9.2V112.2h4.8v119.7
			C308.7,239.6,302.4,245.9,294.7,245.9z"/>
	</g>
</g>
<g>
	<g>
		<path class="st5" d="M308.7,115.4h-4.8V89.9c0-12.3,10-22.3,22.3-22.3c12.3,0,22.3,10,22.3,22.3v14.6h-4.8V89.9
			c0-9.7-7.9-17.6-17.6-17.6c-9.7,0-17.6,7.9-17.6,17.6V115.4z"/>
	</g>
</g>
<g>
	<path class="st5" d="M347.3,132.2c0,0.6-0.5,1.1-1.1,1.1l0,0c-0.6,0-1.1-0.5-1.1-1.1v-14.3c0-0.6,0.5-1.1,1.1-1.1l0,0
		c0.6,0,1.1,0.5,1.1,1.1V132.2z"/>
</g>
<g>
	<path class="st3" d="M359.9,109.9c0,7.6-6.1,13.7-13.7,13.7c-7.6,0-13.7-6.1-13.7-13.7c0-7.6,6.1-13.7,13.7-13.7
		C353.7,96.2,359.9,102.3,359.9,109.9z"/>
</g>
<g>
	<path class="st0" d="M356.3,135.1c0,1.8-1.5,3.2-3.3,3.2h-13.7c-1.8,0-3.2-1.5-3.2-3.2v-3.7c0-1.8,1.5-3.3,3.2-3.3H353
		c1.8,0,3.3,1.5,3.3,3.3V135.1z"/>
</g>
<path class="st5" d="M213.6,280.4c-27.4,0-55.8-14.4-55.8-38.6v-29.5h5.7v29.5c0,20.6,25.5,33,50.1,33c11.7,0,22.4-2.9,29.9-8.1
	c8.5-5.9,12.8-14.2,12.8-24.9v-16.6h5.7v16.6c0,12.5-5.3,22.7-15.3,29.6C238.2,277.2,226.4,280.4,213.6,280.4z"/>
</svg>
